<svg width="433" height="358" viewBox="0 0 433 358" fill="none" xmlns="http://www.w3.org/2000/svg">
<g opacity="0.28">
<path opacity="0.28" d="M227.716 307.181L134.085 247.468C130.694 245.305 130.694 239.898 134.086 237.735L237.972 171.492C241.439 169.282 245.708 169.277 249.179 171.48L344.911 232.25C348.311 234.408 348.315 239.823 344.92 241.989L242.697 307.181C238.062 310.137 232.351 310.137 227.716 307.181Z" fill="#CDE9F9"/>
</g>
<g opacity="0.46">
<path opacity="0.46" d="M134.259 143.486L87.643 173.134C85.8763 174.258 83.6703 172.85 83.6703 170.598V154.66C83.6703 153.614 84.1765 152.646 84.9982 152.124L131.614 122.475C133.381 121.351 135.587 122.76 135.587 125.012V140.949C135.587 141.996 135.081 142.963 134.259 143.486Z" fill="#CDE9F9"/>
</g>
<g opacity="0.46">
<path opacity="0.46" d="M191.873 118.896L145.256 148.545C143.49 149.669 141.284 148.26 141.284 146.008V130.07C141.284 129.024 141.79 128.056 142.612 127.534L189.228 97.885C190.994 96.7612 193.2 98.1699 193.2 100.422V116.359C193.2 117.406 192.694 118.374 191.873 118.896Z" fill="#CDE9F9"/>
</g>
<g opacity="0.46">
<path opacity="0.46" d="M196.231 86.7461L149.615 116.395C147.848 117.519 145.642 116.11 145.642 113.858V97.9207C145.642 96.8739 146.148 95.9064 146.97 95.384L193.586 65.7353C195.353 64.6115 197.558 66.0203 197.558 68.2721V84.2093C197.558 85.2565 197.052 86.2237 196.231 86.7461Z" fill="#CDE9F9"/>
</g>
<path d="M335.616 126.66V243.905C335.616 245.945 334.622 247.828 333.013 248.83L326.77 252.715L325.296 142.74L325.12 129.649L207.339 52.5627L213.119 48.8753C215.018 47.6641 217.357 47.6641 219.256 48.8753L332.815 121.299C333.853 121.961 334.649 122.957 335.122 124.124C335.443 124.909 335.616 125.771 335.616 126.66Z" fill="#CDE9F9"/>
<path d="M335.616 126.66V243.905C335.616 245.945 334.622 247.828 333.013 248.83L326.77 252.715L325.296 142.74V130.231L335.122 124.124C335.443 124.909 335.616 125.771 335.616 126.66Z" fill="#AECFDC"/>
<path d="M207.34 172.656V52.5612L322.834 126.217C325.27 127.771 326.771 130.642 326.771 133.749V252.715L210.5 178.696C208.545 177.452 207.34 175.148 207.34 172.656Z" fill="#7CCAF1"/>
<path d="M207.34 172.656V52.5612L322.834 126.217C325.27 127.771 326.771 130.642 326.771 133.749V252.715L210.5 178.696C208.545 177.452 207.34 175.148 207.34 172.656Z" fill="url(#paint0_linear_1_312)"/>
<path d="M213.628 144.003L240.748 161.298C241.972 162.079 242.727 163.523 242.727 165.085V165.152C242.727 166.507 241.398 167.355 240.335 166.677L213.256 149.407C212.332 148.818 211.763 147.73 211.763 146.552V145.192C211.763 144.135 212.799 143.474 213.628 144.003Z" fill="#17A1DB"/>
<path d="M213.628 152.265L240.748 169.56C241.972 170.341 242.727 171.784 242.727 173.346V173.413C242.727 174.769 241.398 175.616 240.335 174.939L213.256 157.669C212.332 157.08 211.763 155.991 211.763 154.813V153.453C211.763 152.396 212.799 151.736 213.628 152.265Z" fill="#E7F6FD"/>
<path d="M213.628 160.332L240.748 177.627C241.972 178.408 242.727 179.851 242.727 181.413V181.48C242.727 182.836 241.398 183.683 240.335 183.005L213.256 165.736C212.332 165.147 211.763 164.059 211.763 162.881V161.521C211.763 160.464 212.799 159.803 213.628 160.332Z" fill="#17A1DB"/>
<path d="M213.628 168.593L240.748 185.888C241.972 186.669 242.727 188.113 242.727 189.675V189.742C242.727 191.098 241.398 191.945 240.335 191.267L213.256 173.997C212.332 173.408 211.763 172.32 211.763 171.142V169.782C211.763 168.725 212.799 168.065 213.628 168.593Z" fill="#17A1DB"/>
<path d="M252.764 94.0824L320.642 137.372C321.467 137.898 321.976 138.87 321.976 139.923V218.643C321.976 220.513 320.142 221.682 318.676 220.747L253.594 179.241C252.114 178.297 251.202 176.553 251.202 174.665V95.0789C251.202 94.1931 252.07 93.6397 252.764 94.0824Z" fill="url(#paint1_linear_1_312)"/>
<path d="M248.713 95.8725L316.59 139.162C317.416 139.688 317.924 140.66 317.924 141.713V220.433C317.924 222.303 316.091 223.472 314.624 222.537L249.542 181.031C248.062 180.088 247.15 178.343 247.15 176.455V96.8689C247.15 95.9832 248.018 95.4298 248.713 95.8725Z" fill="white"/>
<path d="M251.398 112.423V152.124C251.398 153.425 252.031 154.626 253.055 155.269L270.346 166.122C271.838 167.059 273.69 165.869 273.69 163.973V125.148C273.69 123.776 273.02 122.511 271.937 121.838L254.027 110.724C252.851 109.994 251.398 110.933 251.398 112.423Z" fill="url(#paint2_linear_1_312)"/>
<path d="M278.073 128.672L278.109 140.943C278.112 142.042 278.643 143.057 279.504 143.609L311.022 163.812C312.122 164.517 313.501 163.64 313.501 162.235V150.397C313.501 149.208 312.926 148.108 311.994 147.514L280.257 127.274C279.285 126.654 278.069 127.431 278.073 128.672Z" fill="#BD8AAE"/>
<path d="M280.057 149.714L312.063 170.126C312.953 170.693 313.501 171.742 313.501 172.876V173.703C313.501 175.028 312.202 175.856 311.163 175.194L279.376 154.922C278.564 154.404 278.065 153.448 278.065 152.414V150.985C278.065 149.856 279.172 149.15 280.057 149.714Z" fill="#BD8AAE"/>
<path d="M278.114 162.598V186.286C278.114 187.308 278.607 188.253 279.408 188.765L293.453 197.747C294.487 198.409 295.783 197.584 295.783 196.263V173.008C295.783 171.783 295.189 170.652 294.227 170.043L280.274 161.215C279.312 160.606 278.114 161.373 278.114 162.598Z" fill="#306097"/>
<path d="M300.231 176.725V200.203C300.231 201.361 300.79 202.43 301.697 203.009L310.993 208.938C312.108 209.648 313.501 208.76 313.501 207.338V184.719C313.501 183.239 312.786 181.871 311.625 181.131L302.475 175.295C301.477 174.659 300.231 175.454 300.231 176.725Z" fill="#3C7FBE"/>
<path d="M260.924 165.521C257.274 163.218 254.289 165.097 254.289 169.697C254.289 174.296 257.274 179.989 260.924 182.347C264.573 184.705 267.559 182.826 267.559 178.171C267.559 173.517 264.573 167.824 260.924 165.521Z" fill="#3C7FBE"/>
<path d="M247.15 100.302L317.9 145.638V141.68C317.9 140.648 317.401 139.694 316.592 139.178L248.692 95.8596C248.007 95.4225 247.15 95.9685 247.15 96.8423V100.302Z" fill="#3C7FBE"/>
<path d="M250.234 98.2663C249.593 97.8621 249.069 98.1921 249.069 98.9993C249.069 99.8066 249.593 100.806 250.234 101.22C250.874 101.634 251.398 101.304 251.398 100.487C251.398 99.67 250.874 98.6706 250.234 98.2663Z" fill="white"/>
<path d="M253.967 100.694C253.326 100.289 252.802 100.619 252.802 101.427C252.802 102.234 253.326 103.233 253.967 103.647C254.608 104.061 255.132 103.731 255.132 102.914C255.132 102.097 254.608 101.098 253.967 100.694Z" fill="#E7F6FD"/>
<path d="M257.642 102.914C257.001 102.51 256.477 102.839 256.477 103.647C256.477 104.455 257.001 105.454 257.642 105.868C258.282 106.282 258.806 105.952 258.806 105.135C258.806 104.318 258.282 103.319 257.642 102.914Z" fill="#CDE9F9"/>
<path d="M219.158 73.3733L245.328 90.0627C246.392 90.7417 247.049 91.9968 247.049 93.3548V154.173C247.049 156.258 245.005 157.561 243.371 156.518L217.703 140.149C216.702 139.51 216.085 138.33 216.085 137.053V75.3327C216.085 73.5908 217.792 72.5022 219.158 73.3733Z" fill="url(#paint3_linear_1_312)"/>
<path d="M214.836 74.2683L241.006 90.9577C242.071 91.6367 242.727 92.8918 242.727 94.2498V155.068C242.727 157.153 240.683 158.456 239.049 157.413L213.382 141.044C212.38 140.405 211.763 139.225 211.763 137.948V76.2278C211.763 74.4858 213.471 73.3972 214.836 74.2683Z" fill="#222457"/>
<path d="M214.836 74.2683L241.006 90.9577C242.071 91.6367 242.727 92.8918 242.727 94.2498V155.068C242.727 157.153 240.683 158.456 239.049 157.413L213.382 141.044C212.38 140.405 211.763 139.225 211.763 137.948V76.2278C211.763 74.4858 213.471 73.3972 214.836 74.2683Z" fill="url(#paint4_linear_1_312)"/>
<path d="M213.893 78.9148V79.8393L217.41 82.0795V81.155L213.893 78.9148Z" fill="#CDE9F9"/>
<path d="M213.893 80.6036V81.5282L217.41 83.7683V82.8438L213.893 80.6036Z" fill="#CDE9F9"/>
<path d="M213.893 82.2925V83.2173L217.41 85.4575V84.533L213.893 82.2925Z" fill="#CDE9F9"/>
<path d="M240.43 101.813V100.888L218.729 87.062V87.9868L240.43 101.813Z" fill="#CDE9F9"/>
<path d="M213.893 83.9817V84.9059L217.41 87.1464V86.2216L213.893 83.9817Z" fill="#CDE9F9"/>
<path d="M213.893 85.6705V86.5951L217.41 88.8353V87.9107L213.893 85.6705Z" fill="#CDE9F9"/>
<path d="M240.43 103.501V102.577L218.729 88.7511V89.6756L240.43 103.501Z" fill="#CDE9F9"/>
<path d="M213.893 90.7374V91.6616L217.41 93.9018V92.9773L213.893 90.7374Z" fill="#CDE9F9"/>
<path d="M213.893 92.4263V93.3508L217.41 95.591V94.6665L213.893 92.4263Z" fill="#CDE9F9"/>
<path d="M213.893 99.1818V100.106L217.41 102.346V101.422L213.893 99.1818Z" fill="#CDE9F9"/>
<path d="M213.893 100.871V101.796L217.41 104.035V103.111L213.893 100.871Z" fill="#CDE9F9"/>
<path d="M232.42 112.674L218.729 103.952V104.876L232.42 113.598V112.674Z" fill="#CDE9F9"/>
<path d="M233.141 113.133V114.058L240.43 118.702V117.777L233.141 113.133Z" fill="#CDE9F9"/>
<path d="M225.607 106.645L218.729 102.263V103.187L225.607 107.569V106.645Z" fill="#CDE9F9"/>
<path d="M226.329 107.105V108.029L240.43 117.013V116.088L226.329 107.105Z" fill="#CDE9F9"/>
<path d="M238.575 109.84V110.764L240.43 111.946V111.022L238.575 109.84Z" fill="#CDE9F9"/>
<path d="M228.48 101.719L218.729 95.507V96.4315L228.48 102.644V101.719Z" fill="#CDE9F9"/>
<path d="M224.484 85.6622L218.729 81.9954V82.9202L224.484 86.5867V85.6622Z" fill="#CDE9F9"/>
<path d="M233.919 91.6727L225.206 86.1219V87.0468L233.919 92.5976V91.6727Z" fill="#CDE9F9"/>
<path d="M228.841 90.1268L222.706 86.2186V87.1432L228.841 91.0513V90.1268Z" fill="#CDE9F9"/>
<path d="M235.277 94.227L229.562 90.5862V91.511L235.277 95.1516V94.227Z" fill="#CDE9F9"/>
<path d="M235.999 94.6868V95.6113L240.43 98.4347V97.5102L235.999 94.6868Z" fill="#CDE9F9"/>
<path d="M219.862 86.0957V87.0202L224.484 89.9645V89.04L219.862 86.0957Z" fill="#CDE9F9"/>
<path d="M238.622 98.0472L225.206 89.5V90.4245L238.622 98.9718V98.0472Z" fill="#CDE9F9"/>
<path d="M230.941 98.2205L222.173 92.6345V93.5591L230.941 99.145V98.2205Z" fill="#CDE9F9"/>
<path d="M238.622 103.114L231.663 98.6799V99.6048L238.622 104.039V103.114Z" fill="#CDE9F9"/>
<path d="M237.854 107.691L229.202 102.179V103.103L237.854 108.616V107.691Z" fill="#CDE9F9"/>
<path d="M233.141 106.378V107.302L237.854 110.305V109.38L233.141 106.378Z" fill="#CDE9F9"/>
<path d="M220.426 98.277L218.729 97.1958V98.1203L220.426 99.2015V98.277Z" fill="#CDE9F9"/>
<path d="M223.604 100.302V101.227L232.42 106.843V105.918L223.604 100.302Z" fill="#CDE9F9"/>
<path d="M222.883 99.8422L221.147 98.7366V99.6611L222.883 100.767V99.8422Z" fill="#CDE9F9"/>
<path d="M230.789 106.568L221.147 100.426V101.35L230.789 107.492V106.568Z" fill="#CDE9F9"/>
<path d="M213.893 105.715V106.639L217.41 108.88V107.955L213.893 105.715Z" fill="#BD8AAE"/>
<path d="M213.893 107.404V108.329L217.41 110.569V109.644L213.893 107.404Z" fill="#BD8AAE"/>
<path d="M213.893 109.093V110.017L217.41 112.258V111.333L213.893 109.093Z" fill="#BD8AAE"/>
<path d="M240.43 128.613V127.688L218.729 113.862V114.787L240.43 128.613Z" fill="#BD8AAE"/>
<path d="M213.893 110.782V111.706L217.41 113.947V113.022L213.893 110.782Z" fill="#BD8AAE"/>
<path d="M213.893 112.471V113.395L217.41 115.635V114.711L213.893 112.471Z" fill="#BD8AAE"/>
<path d="M240.43 130.302V129.377L218.729 115.551V116.476L240.43 130.302Z" fill="#BD8AAE"/>
<path d="M213.893 117.538V118.462L217.41 120.702V119.778L213.893 117.538Z" fill="#BD8AAE"/>
<path d="M213.893 119.226V120.151L217.41 122.391V121.467L213.893 119.226Z" fill="#BD8AAE"/>
<path d="M213.893 125.982V126.907L217.41 129.147V128.222L213.893 125.982Z" fill="#BD8AAE"/>
<path d="M213.893 127.671V128.596L217.41 130.836V129.911L213.893 127.671Z" fill="#BD8AAE"/>
<path d="M232.42 139.474L218.729 130.752V131.677L232.42 140.399V139.474Z" fill="#BD8AAE"/>
<path d="M233.141 139.934V140.858L240.43 145.502V144.578L233.141 139.934Z" fill="#BD8AAE"/>
<path d="M225.607 133.445L218.729 129.063V129.987L225.607 134.37V133.445Z" fill="#BD8AAE"/>
<path d="M226.329 133.905V134.829L240.43 143.813V142.889L226.329 133.905Z" fill="#BD8AAE"/>
<path d="M238.575 136.64V137.564L240.43 138.746V137.822L238.575 136.64Z" fill="#BD8AAE"/>
<path d="M228.48 128.52L218.729 122.307V123.232L228.48 129.444V128.52Z" fill="#BD8AAE"/>
<path d="M224.484 112.463L218.729 108.796V109.72L224.484 113.387V112.463Z" fill="#BD8AAE"/>
<path d="M233.919 118.473L225.206 112.922V113.847L233.919 119.398V118.473Z" fill="#BD8AAE"/>
<path d="M228.841 116.927L222.706 113.019V113.943L228.841 117.851V116.927Z" fill="#BD8AAE"/>
<path d="M235.277 121.027L229.562 117.387V118.311L235.277 121.952V121.027Z" fill="#BD8AAE"/>
<path d="M235.999 121.487V122.412L240.43 125.235V124.31L235.999 121.487Z" fill="#BD8AAE"/>
<path d="M219.862 112.896V113.82L224.484 116.765V115.84L219.862 112.896Z" fill="#BD8AAE"/>
<path d="M238.622 124.847L225.206 116.3V117.225L238.622 125.772V124.847Z" fill="#BD8AAE"/>
<path d="M230.941 125.021L222.173 119.435V120.359L230.941 125.945V125.021Z" fill="#BD8AAE"/>
<path d="M238.622 129.914L231.663 125.48V126.405L238.622 130.839V129.914Z" fill="#BD8AAE"/>
<path d="M237.854 134.491L229.202 128.979V129.904L237.854 135.416V134.491Z" fill="#BD8AAE"/>
<path d="M233.141 133.178V134.103L237.854 137.105V136.18L233.141 133.178Z" fill="#BD8AAE"/>
<path d="M220.426 125.077L218.729 123.996V124.921L220.426 126.002V125.077Z" fill="#BD8AAE"/>
<path d="M223.604 127.102V128.027L232.42 133.643V132.718L223.604 127.102Z" fill="#BD8AAE"/>
<path d="M222.883 126.642L221.147 125.537V126.461L222.883 127.567V126.642Z" fill="#BD8AAE"/>
<path d="M230.789 133.368L221.147 127.226V128.151L230.789 134.293V133.368Z" fill="#BD8AAE"/>
<path d="M219.896 135.213C219.805 135.315 219.762 135.513 219.762 135.805L219.758 137.1V137.133C219.758 137.38 219.686 137.512 219.544 137.53C219.401 137.547 219.198 137.471 218.935 137.304L218.932 138.206C219.195 138.373 219.399 138.557 219.541 138.759C219.682 138.961 219.753 139.196 219.752 139.463L219.749 140.744C219.748 141.035 219.79 141.288 219.88 141.507C219.967 141.725 220.106 141.932 220.298 142.129C220.49 142.327 220.755 142.532 221.091 142.747L221.093 141.893C220.875 141.745 220.729 141.6 220.651 141.457C220.573 141.311 220.536 141.143 220.536 140.947L220.539 139.721V139.673C220.541 139.183 220.297 138.739 219.805 138.332V138.284C220.291 138.503 220.536 138.352 220.544 137.834L220.547 136.607C220.548 136.409 220.588 136.29 220.667 136.247C220.745 136.203 220.892 136.249 221.108 136.377L221.11 135.524C220.779 135.312 220.515 135.181 220.321 135.132C220.124 135.081 219.984 135.109 219.896 135.213Z" fill="#CDE9F9"/>
<path d="M224.479 140.676C224.342 140.48 224.271 140.258 224.272 140.011V139.978L224.275 138.683C224.276 138.265 224.177 137.907 223.974 137.606C223.773 137.306 223.425 137 222.928 136.683L222.926 137.536C223.141 137.683 223.29 137.826 223.368 137.969C223.446 138.109 223.484 138.28 223.483 138.479L223.48 139.705C223.488 140.234 223.736 140.699 224.221 141.099V141.147C223.979 141.041 223.794 141.019 223.669 141.087C223.54 141.155 223.476 141.31 223.475 141.556V141.592L223.472 142.819C223.471 143.017 223.433 143.14 223.355 143.184C223.276 143.224 223.127 143.18 222.912 143.051L222.909 143.905C223.404 144.221 223.753 144.355 223.957 144.314C224.159 144.271 224.261 144.041 224.262 143.621L224.266 142.34C224.266 142.073 224.338 141.929 224.475 141.905C224.615 141.883 224.817 141.957 225.084 142.128L225.087 141.226C224.82 141.056 224.618 140.874 224.479 140.676Z" fill="#CDE9F9"/>
<path d="M227.424 139.886C227.333 139.988 227.29 140.186 227.289 140.478L227.286 141.773V141.807C227.286 142.053 227.214 142.185 227.072 142.202C226.929 142.22 226.725 142.144 226.463 141.977L226.46 142.878C226.723 143.046 226.927 143.23 227.069 143.432C227.21 143.634 227.281 143.868 227.28 144.136L227.277 145.416C227.276 145.708 227.319 145.961 227.408 146.18C227.495 146.398 227.635 146.605 227.826 146.802C228.018 147 228.283 147.205 228.619 147.419L228.622 146.566C228.404 146.418 228.257 146.273 228.179 146.13C228.101 145.984 228.064 145.816 228.064 145.62L228.067 144.394V144.346C228.069 143.856 227.825 143.412 227.333 143.004L227.333 142.956C227.819 143.176 228.063 143.025 228.072 142.506L228.075 141.28C228.076 141.082 228.116 140.963 228.195 140.92C228.273 140.876 228.42 140.922 228.636 141.05L228.638 140.196C228.306 139.985 228.043 139.853 227.849 139.805C227.652 139.755 227.512 139.783 227.424 139.886Z" fill="#CDE9F9"/>
<path d="M232.007 145.35C231.87 145.153 231.799 144.931 231.8 144.685V144.651L231.803 143.356C231.804 142.938 231.706 142.58 231.502 142.279C231.301 141.979 230.953 141.673 230.456 141.356L230.454 142.21C230.669 142.356 230.819 142.499 230.896 142.642C230.974 142.782 231.012 142.954 231.011 143.152L231.008 144.378C231.016 144.907 231.264 145.372 231.749 145.772V145.82C231.508 145.714 231.323 145.693 231.197 145.76C231.068 145.829 231.004 145.983 231.003 146.23V146.266L231 147.492C231 147.691 230.961 147.814 230.883 147.857C230.805 147.898 230.655 147.854 230.44 147.725L230.438 148.579C230.933 148.894 231.281 149.029 231.485 148.988C231.687 148.945 231.79 148.715 231.791 148.294L231.794 147.014C231.795 146.747 231.866 146.603 232.004 146.579C232.144 146.557 232.345 146.631 232.613 146.801L232.615 145.9C232.348 145.73 232.146 145.547 232.007 145.35Z" fill="#CDE9F9"/>
<path d="M214.4 76.0869C214.4 76.4497 214.636 76.8984 214.923 77.0842C215.211 77.2701 215.446 77.1221 215.446 76.7549C215.446 76.3876 215.211 75.9389 214.923 75.7576C214.635 75.5762 214.4 75.7241 214.4 76.0869Z" fill="#E7F6FD"/>
<path d="M216.077 77.1771C216.077 77.5399 216.313 77.9885 216.6 78.1744C216.888 78.3603 217.123 78.2123 217.123 77.8451C217.123 77.4778 216.888 77.0291 216.6 76.8477C216.312 76.6663 216.077 76.8146 216.077 77.1771Z" fill="#E7F6FD"/>
<path d="M218.251 77.8453C217.963 77.6636 217.727 77.8119 217.727 78.1747C217.727 78.5375 217.963 78.9862 218.251 79.172C218.538 79.3579 218.774 79.2099 218.774 78.8427C218.774 78.4754 218.538 78.027 218.251 77.8453Z" fill="#E7F6FD"/>
<path d="M155.417 241.11C141.648 232.329 141.648 217.911 155.417 209.071C169.185 200.23 191.716 200.23 205.485 209.071C219.254 217.911 219.254 232.329 205.485 241.11C191.716 249.891 169.185 249.891 155.417 241.11Z" fill="#2A2F6D"/>
<path d="M162.657 182.541C166.147 182.541 168.977 177.668 168.977 171.658C168.977 165.648 166.147 160.776 162.657 160.776C159.167 160.776 156.337 165.648 156.337 171.658C156.337 177.668 159.167 182.541 162.657 182.541Z" fill="url(#paint5_linear_1_312)"/>
<path d="M197.707 157.481C196.741 158.931 195.612 160.332 194.294 161.651C182.697 173.249 170.391 173.207 164.491 172.304C162.607 172.016 161.345 169.958 161.842 167.992L162.56 165.15L161.757 168.326L161.834 168.018C162.221 166.457 163.6 165.485 165.094 165.717C169.775 166.444 180.134 166.576 190.055 156.653C196.5 150.207 197.204 140.922 197.098 136.257C197.059 134.585 198.144 133.185 199.659 132.985C201.492 132.743 203.165 134.33 203.213 136.355C203.33 141.249 202.698 149.991 197.707 157.481Z" fill="#CDE9F9"/>
<path d="M203.521 117.882C203.521 117.882 196.729 121.556 195.612 128.111C194.494 134.666 198.449 141.321 203.521 140.923C208.593 140.526 213.407 135.66 213.407 135.66L210.57 128.509C210.57 128.509 207.371 132.454 204.414 132.617C201.457 132.779 199.452 126.026 205.785 122.947L203.521 117.882Z" fill="url(#paint6_linear_1_312)"/>
<path d="M214.88 213.969V199.703L204.32 201.104C199.602 198.883 193.809 197.797 187.674 197.797V198.367C188.652 198.367 189.618 198.396 190.568 198.452C186.88 198.381 182.593 198.643 177.712 199.281C181.003 198.682 184.352 198.367 187.672 198.367L187.674 197.797C187.674 197.797 187.673 197.797 187.672 197.797C177.639 197.798 166.7 200.697 158.093 206.262C157.483 206.656 156.901 207.061 156.333 207.47L144.99 208.975V225.964C144.99 225.964 145.001 225.968 145.019 225.976C145.214 230.59 147.704 234.872 152.63 238.057C157.764 241.377 164.741 242.989 172.224 242.989C182.256 242.989 193.196 240.089 201.802 234.524C210.439 228.939 214.914 221.839 214.883 215.332C214.929 214.467 214.88 213.969 214.88 213.969ZM165.072 241.881C163.505 241.637 161.997 241.313 160.562 240.91C162.11 241.313 163.612 241.629 165.072 241.881ZM160.391 240.864C160.332 240.847 160.273 240.83 160.215 240.813C160.275 240.83 160.33 240.848 160.391 240.864Z" fill="#2A2F6D"/>
<path d="M210.668 182.03L212.092 192.845L202.809 211.994" stroke="#C4CACB" stroke-width="5" stroke-miterlimit="10"/>
<path d="M207.848 186.486C207.848 186.486 208.268 183.67 209.979 183.504C209.979 183.504 210.398 183.417 210.626 182.997C210.855 182.576 210.983 183.31 210.729 183.952C210.474 184.594 210.474 184.594 210.474 184.594C210.474 184.594 211.806 183.296 211.654 182.873C211.502 182.45 212.948 183.039 212.796 184.006C212.644 184.973 213.644 185.502 213.258 187.171C212.873 188.841 212.091 190.436 210.598 190.668C209.104 190.901 207.848 186.486 207.848 186.486Z" fill="#FDE0D9"/>
<path d="M180.186 155.377V149.521C180.186 146.104 178.644 143.226 173.271 144.937C167.898 146.648 166.758 150.959 168.549 155.377C169.321 157.278 170.15 158.987 171.203 160.247V165.746L177.727 165.232L177.428 162.163C181.345 160.946 180.186 155.377 180.186 155.377Z" fill="#FDE0D9"/>
<path d="M162.654 182.03L160.116 177.966C160.116 177.966 161.917 167.067 164.836 165.466C170.157 162.546 183.993 161.406 190.877 167.19C197.762 172.973 196.341 190.264 199.488 189.636C202.634 189.009 208.141 185.602 208.141 185.602C208.141 185.602 211.163 185.419 210.597 190.668C210.597 190.668 201.929 203.523 195.461 204.279C188.993 205.035 182.622 194.517 182.622 194.517L162.654 182.03Z" fill="#BD8AAE"/>
<path d="M205.843 211.728C205.843 211.728 197.983 176.948 192.981 175.748C188.707 174.722 161.059 173.638 153.094 173.344C151.515 173.286 150.024 174.181 149.247 175.701C148.416 177.328 147.7 179.702 148.243 182.619C149.306 188.336 156.672 204.521 152.532 216.777C152.532 216.777 170.202 228.045 205.843 211.728Z" fill="#222457"/>
<path d="M210.884 184.8C211.917 184.8 212.754 183.875 212.754 182.734C212.754 181.593 211.917 180.668 210.884 180.668C209.851 180.668 209.013 181.593 209.013 182.734C209.013 183.875 209.851 184.8 210.884 184.8Z" fill="#2A2F6D"/>
<path d="M178.006 152.895C178.006 152.895 177.74 152.054 177.093 151.928C176.445 151.802 176.522 155.334 177.093 156.09C177.664 156.847 178.006 156.468 178.006 156.468C178.006 156.468 177.968 158.528 176.826 159.453C175.684 160.378 176.725 161.766 174.054 161.766C171.383 161.766 167.957 160.588 166.777 159.243C165.597 157.898 164.902 152.685 167.762 149.91C167.762 149.91 166.739 143.772 173.438 142.931C180.137 142.09 180.975 142.511 181.736 141.502C182.497 140.493 182.421 139.904 182.421 139.904C182.421 139.904 182.956 142.931 182.156 143.604C182.156 143.604 182.654 144.108 182.956 142.931C182.956 142.931 183.322 145.79 182.149 147.808C180.975 149.826 178.463 151.592 178.006 152.895Z" fill="#2A2F6D"/>
<path d="M178.381 231.48C176.559 231.48 174.601 231.436 172.22 231.34C163.577 230.995 159.404 229.817 152.805 225.862C148.076 223.028 145.446 218.709 145.4 213.7H145.377V109.933L145.4 109.932C145.384 106.64 146.562 102.611 148.631 98.8783C150.287 95.8896 153.306 91.6515 158.28 88.4325C166.867 82.8763 177.944 82.4106 187.654 82.41C196.365 82.4097 203.541 86.2111 207.043 88.4769C209.053 89.7771 210.678 91.2822 211.89 92.9505L211.485 93.2956C211.847 93.8335 212.168 94.341 212.466 94.8473L212.898 94.5498C213.661 95.9636 214.153 97.4735 214.359 99.0576L214.377 99.2008L214.372 99.2175L214.383 99.3202C214.454 99.9664 214.479 100.618 214.456 101.256L214.452 101.376L214.479 101.432V212.327L214.458 212.327C214.321 218.587 210.246 223.275 201.634 227.081C194.658 230.164 187.704 231.48 178.381 231.48Z" fill="url(#paint7_linear_1_312)"/>
<path d="M187.655 82.8579C196.271 82.8579 203.372 86.6205 206.838 88.8636C208.799 90.1325 210.384 91.5976 211.564 93.2184L211.16 93.563C211.517 94.094 211.833 94.5943 212.126 95.0919L212.558 94.7951C213.289 96.1546 213.76 97.6036 213.958 99.1221L213.962 99.1576L213.959 99.1696L213.981 99.3748C214.049 99.9971 214.073 100.624 214.051 101.239L214.043 101.477L214.073 101.542V211.599L214.051 211.599L214.052 212.328C213.915 218.381 209.921 222.937 201.483 226.666C194.558 229.726 187.649 231.032 178.381 231.032C176.564 231.032 174.611 230.988 172.235 230.893C163.666 230.55 159.531 229.384 152.998 225.469C148.404 222.715 145.85 218.534 145.806 213.695H145.783V109.93L145.805 109.93C145.79 106.719 146.946 102.776 148.976 99.112C150.608 96.1671 153.583 91.9905 158.485 88.8186C166.984 83.3191 177.998 82.8582 187.654 82.8576H187.655V82.8579ZM187.655 81.9629C187.655 81.9629 187.655 81.9629 187.654 81.9629C177.621 81.9635 166.682 82.4775 158.076 88.0465C149.44 93.6346 144.964 103.425 144.995 109.935L144.973 107.253V215.713L144.995 213.705C145.039 218.497 147.428 223.149 152.612 226.256C159.332 230.283 163.674 231.446 172.206 231.787C174.333 231.872 176.384 231.927 178.382 231.927C186.554 231.927 193.835 231.01 201.785 227.497C210.853 223.49 214.727 218.571 214.863 212.338L214.862 211.598C214.868 211.847 214.869 212.093 214.863 212.338L214.885 225.64V101.333C214.875 101.313 214.871 101.293 214.862 101.274C214.886 100.598 214.859 99.9288 214.787 99.2671C214.839 99.1007 214.885 98.9947 214.885 98.9947H214.761C214.22 94.833 211.749 91.0036 207.248 88.0913C202.114 84.769 195.137 81.9629 187.655 81.9629ZM212.806 94.6039C212.521 94.1206 212.195 93.6006 211.811 93.0293C212.182 93.5394 212.515 94.0645 212.806 94.6039Z" fill="#FDFEFE"/>
<g opacity="0.5">
<path opacity="0.5" d="M150.855 220.912V112.371C150.855 112.371 157.017 101.387 167.609 102.564C178.201 103.741 179.911 110.409 179.911 110.409V231.229C179.911 231.229 180.321 226.249 178.599 227.269C173.386 230.357 162.016 234.949 155.011 221.82C154.014 219.95 151.645 223.557 150.855 220.912Z" fill="url(#paint8_linear_1_312)"/>
</g>
<path d="M195.37 193.394C198.86 193.394 201.689 188.522 201.689 182.512C201.689 176.502 198.86 171.63 195.37 171.63C191.879 171.63 189.05 176.502 189.05 182.512C189.05 188.522 191.879 193.394 195.37 193.394Z" fill="url(#paint9_linear_1_312)"/>
<path d="M223.756 204.978C222.126 204.978 220.436 204.805 218.692 204.414C203.362 200.973 196.097 190.001 193.258 184.218C192.352 182.371 193.104 180.028 194.832 179.304L197.33 178.259L194.539 179.427L194.809 179.313C196.176 178.732 197.703 179.382 198.419 180.848C200.663 185.444 206.708 194.737 219.824 197.68C228.345 199.592 235.533 194.715 238.871 191.855C240.067 190.829 241.731 190.965 242.775 192.193C244.038 193.68 243.872 196.109 242.425 197.352C238.925 200.358 232.176 204.978 223.756 204.978Z" fill="#CDE9F9"/>
<path d="M244.589 179.496C244.589 179.496 237.798 183.171 236.68 189.726C235.563 196.281 239.517 202.935 244.589 202.538C249.661 202.141 254.475 197.274 254.475 197.274L251.638 190.124C251.638 190.124 248.439 194.069 245.482 194.232C242.526 194.394 240.52 187.641 246.853 184.562L244.589 179.496Z" fill="url(#paint10_linear_1_312)"/>
<path d="M214.884 215.746H214.372V228.657H214.884V215.746Z" fill="#2A2F6D"/>
<path d="M245.715 221.183H214.427V258.046H245.715V221.183Z" fill="url(#paint11_linear_1_312)"/>
<path d="M230.071 267.371C238.727 267.371 245.745 262.895 245.745 257.374C245.745 251.854 238.727 247.378 230.071 247.378C221.414 247.378 214.396 251.854 214.396 257.374C214.396 262.895 221.414 267.371 230.071 267.371Z" fill="#3C7FBE"/>
<path d="M230.071 231.506C238.727 231.506 245.745 227.031 245.745 221.51C245.745 215.989 238.727 211.514 230.071 211.514C221.414 211.514 214.396 215.989 214.396 221.51C214.396 227.031 221.414 231.506 230.071 231.506Z" fill="#17A1DB"/>
<path d="M227.879 211.649L227.874 210.734L227.872 211.581L227.877 212.497L227.879 211.649Z" fill="#2A2F6D"/>
<path d="M235.495 212.751L234.486 213.398L234.484 214.245L235.493 213.598L235.495 212.751Z" fill="#2A2F6D"/>
<path d="M223.759 213.398L222.744 212.751L222.742 213.598L223.757 214.245L223.759 213.398Z" fill="#2A2F6D"/>
<path d="M225.913 216.332C225.918 216.302 225.926 216.272 225.933 216.241C225.942 216.205 225.95 216.169 225.961 216.134C225.971 216.104 225.983 216.075 225.995 216.047C226.009 216.009 226.024 215.972 226.042 215.935C226.055 215.908 226.071 215.882 226.085 215.856C226.109 215.814 226.134 215.772 226.161 215.731C226.178 215.706 226.196 215.683 226.214 215.659C226.255 215.603 226.301 215.549 226.351 215.496C226.369 215.476 226.386 215.456 226.404 215.438C226.436 215.407 226.47 215.377 226.504 215.347C226.534 215.32 226.562 215.294 226.595 215.268C226.631 215.238 226.672 215.21 226.711 215.182C226.752 215.152 226.79 215.122 226.834 215.094C226.931 215.032 227.034 214.976 227.14 214.924C227.17 214.909 227.201 214.894 227.232 214.88C227.315 214.842 227.4 214.806 227.487 214.774C227.518 214.762 227.548 214.749 227.58 214.738C227.634 214.719 227.69 214.703 227.746 214.686C227.789 214.673 227.831 214.659 227.874 214.648C227.933 214.632 227.993 214.619 228.052 214.606C228.093 214.597 228.134 214.587 228.176 214.578C228.297 214.555 228.42 214.536 228.544 214.522C228.582 214.517 228.62 214.515 228.658 214.511C228.731 214.504 228.804 214.499 228.878 214.495C228.925 214.493 228.972 214.492 229.018 214.49C229.077 214.489 229.137 214.489 229.196 214.49C229.245 214.49 229.295 214.492 229.344 214.494C229.399 214.496 229.454 214.5 229.508 214.504C229.558 214.508 229.608 214.513 229.658 214.518C229.712 214.523 229.766 214.53 229.82 214.538C229.868 214.544 229.916 214.552 229.965 214.56C230.022 214.57 230.079 214.581 230.136 214.593C230.182 214.603 230.226 214.613 230.271 214.623C230.339 214.64 230.405 214.658 230.472 214.678C230.509 214.688 230.546 214.699 230.583 214.711C230.702 214.749 230.818 214.792 230.93 214.84C230.986 214.864 231.04 214.891 231.094 214.917C231.122 214.931 231.151 214.943 231.178 214.957C231.26 215 231.339 215.046 231.416 215.094C232.054 215.501 232.372 216.035 232.371 216.568L232.373 215.721C232.375 215.188 232.056 214.654 231.418 214.247C231.341 214.198 231.262 214.153 231.18 214.11C231.153 214.096 231.124 214.083 231.096 214.07C231.048 214.046 231 214.021 230.95 213.999C230.945 213.997 230.938 213.995 230.932 213.993C230.82 213.945 230.704 213.902 230.585 213.863C230.575 213.86 230.566 213.856 230.557 213.853C230.53 213.844 230.501 213.838 230.474 213.83C230.407 213.811 230.341 213.792 230.273 213.776C230.255 213.771 230.237 213.765 230.219 213.761C230.193 213.755 230.165 213.751 230.138 213.746C230.081 213.734 230.024 213.723 229.967 213.713C229.944 213.709 229.921 213.703 229.898 213.7C229.873 213.696 229.847 213.694 229.822 213.69C229.768 213.683 229.714 213.676 229.66 213.67C229.634 213.667 229.609 213.663 229.583 213.661C229.559 213.658 229.535 213.658 229.511 213.656C229.456 213.652 229.401 213.649 229.346 213.646C229.319 213.645 229.291 213.642 229.264 213.641C229.242 213.641 229.22 213.642 229.198 213.642C229.139 213.641 229.079 213.641 229.02 213.643C228.991 213.643 228.961 213.642 228.932 213.643C228.915 213.644 228.898 213.646 228.88 213.647C228.807 213.651 228.734 213.657 228.661 213.663C228.632 213.666 228.602 213.666 228.573 213.67C228.564 213.671 228.555 213.673 228.546 213.674C228.422 213.688 228.299 213.707 228.178 213.731C228.172 213.732 228.166 213.732 228.16 213.733C228.125 213.74 228.091 213.75 228.056 213.758C227.996 213.771 227.936 213.785 227.877 213.8C227.834 213.812 227.792 213.825 227.75 213.838C227.694 213.855 227.637 213.872 227.583 213.891C227.571 213.895 227.559 213.898 227.547 213.902C227.527 213.909 227.509 213.919 227.489 213.926C227.402 213.959 227.318 213.994 227.235 214.033C227.204 214.047 227.173 214.061 227.143 214.076C227.037 214.129 226.934 214.184 226.837 214.247C226.824 214.255 226.811 214.264 226.798 214.273C226.768 214.292 226.743 214.314 226.715 214.334C226.675 214.362 226.634 214.391 226.598 214.42C226.566 214.446 226.537 214.473 226.507 214.499C226.473 214.529 226.438 214.559 226.407 214.59C226.401 214.596 226.394 214.602 226.387 214.608C226.375 214.621 226.366 214.635 226.354 214.648C226.304 214.702 226.258 214.756 226.216 214.811C226.208 214.823 226.195 214.835 226.186 214.847C226.178 214.859 226.172 214.871 226.164 214.884C226.136 214.925 226.111 214.967 226.088 215.008C226.078 215.026 226.065 215.043 226.056 215.061C226.051 215.07 226.049 215.079 226.044 215.088C226.026 215.125 226.012 215.162 225.997 215.199C225.988 215.221 225.977 215.242 225.97 215.264C225.967 215.272 225.966 215.279 225.964 215.287C225.952 215.322 225.944 215.358 225.936 215.393C225.93 215.417 225.921 215.441 225.917 215.466C225.916 215.472 225.916 215.479 225.915 215.485C225.909 215.523 225.906 215.56 225.903 215.598C225.901 215.622 225.897 215.647 225.896 215.671C225.896 215.682 225.895 215.692 225.895 215.703L225.893 216.55C225.893 216.515 225.898 216.48 225.901 216.445C225.904 216.407 225.907 216.37 225.913 216.332Z" fill="#2A2F6D"/>
<path d="M235.488 216.502C235.473 216.553 235.455 216.604 235.437 216.654C235.425 216.689 235.411 216.724 235.398 216.758C235.385 216.79 235.371 216.823 235.357 216.855C235.342 216.889 235.326 216.923 235.309 216.957C235.294 216.989 235.278 217.02 235.262 217.051C235.241 217.09 235.219 217.129 235.196 217.169C235.179 217.197 235.163 217.226 235.145 217.255C235.12 217.295 235.093 217.335 235.066 217.375C235.048 217.401 235.031 217.427 235.012 217.453C234.959 217.527 234.904 217.6 234.844 217.671C234.835 217.681 234.827 217.69 234.818 217.7C234.765 217.762 234.709 217.824 234.651 217.884C234.605 217.932 234.559 217.979 234.51 218.026L234.508 218.873C234.548 218.835 234.587 218.796 234.626 218.757C234.634 218.748 234.641 218.74 234.649 218.731C234.707 218.671 234.763 218.61 234.815 218.548C234.824 218.538 234.833 218.528 234.842 218.518C234.902 218.447 234.957 218.374 235.01 218.301C235.015 218.294 235.02 218.288 235.024 218.282C235.039 218.262 235.051 218.242 235.065 218.221C235.091 218.182 235.118 218.142 235.143 218.102C235.161 218.073 235.178 218.044 235.194 218.015C235.217 217.976 235.24 217.937 235.26 217.898C235.267 217.885 235.275 217.872 235.282 217.859C235.291 217.841 235.299 217.822 235.308 217.804C235.324 217.77 235.34 217.736 235.355 217.702C235.37 217.67 235.383 217.637 235.396 217.605C235.41 217.57 235.423 217.536 235.436 217.502C235.441 217.486 235.448 217.471 235.453 217.456C235.465 217.42 235.477 217.384 235.487 217.349H236.918L236.92 216.502H235.488Z" fill="#2A2F6D"/>
<path d="M223.78 218.873L223.783 218.026C223.285 217.557 222.953 217.038 222.788 216.502H221.357L221.355 217.349H222.786C222.95 217.886 223.282 218.405 223.78 218.873Z" fill="#2A2F6D"/>
<path d="M232.768 219.143C232.597 219.218 232.42 219.285 232.24 219.348C232.141 219.383 232.039 219.412 231.938 219.443C231.843 219.471 231.75 219.503 231.653 219.529C231.55 219.556 231.445 219.579 231.34 219.602C231.242 219.625 231.146 219.649 231.047 219.669C230.831 219.711 230.611 219.747 230.39 219.774L230.388 220.622C230.609 220.594 230.828 220.558 231.045 220.516C231.055 220.514 231.066 220.513 231.077 220.511C231.166 220.493 231.252 220.469 231.34 220.449C231.444 220.425 231.549 220.403 231.651 220.376C231.748 220.35 231.842 220.318 231.938 220.289C232.038 220.258 232.14 220.229 232.238 220.195C232.25 220.191 232.262 220.188 232.274 220.184C232.442 220.124 232.606 220.06 232.766 219.99L233.782 220.637L235.523 219.52L235.525 218.673L233.784 219.79L232.768 219.143Z" fill="#2A2F6D"/>
<path d="M227.92 219.774C227.765 219.755 227.612 219.729 227.459 219.702C227.349 219.683 227.24 219.662 227.132 219.639C227.037 219.619 226.942 219.598 226.849 219.575C226.719 219.544 226.592 219.509 226.465 219.472C226.366 219.442 226.265 219.414 226.168 219.382C226.124 219.367 226.08 219.352 226.037 219.337C225.867 219.277 225.699 219.214 225.536 219.144C225.536 219.144 225.536 219.143 225.536 219.143L224.525 219.792L222.772 218.674L222.77 219.521L224.523 220.639L225.533 219.991C225.696 220.061 225.865 220.124 226.035 220.185C226.078 220.2 226.122 220.214 226.165 220.229C226.209 220.244 226.252 220.26 226.296 220.274C226.351 220.291 226.408 220.303 226.463 220.319C226.59 220.356 226.717 220.391 226.846 220.423C226.889 220.433 226.929 220.447 226.971 220.456C227.023 220.468 227.077 220.476 227.129 220.487C227.238 220.51 227.347 220.531 227.457 220.55C227.507 220.558 227.556 220.571 227.606 220.578C227.71 220.594 227.813 220.609 227.917 220.622L227.918 220.622L227.922 221.538H230.393L230.395 220.69H227.925L227.92 219.774Z" fill="#2A2F6D"/>
<path d="M233.784 219.791L232.768 219.143C232.038 219.46 231.228 219.671 230.39 219.774L230.394 220.69H227.924L227.92 219.774C227.081 219.671 226.269 219.46 225.535 219.143L224.525 219.792L222.772 218.674L223.782 218.026C223.285 217.557 222.953 217.038 222.788 216.502H221.357L221.349 214.922H222.78C222.939 214.386 223.267 213.868 223.759 213.398L222.744 212.751L224.485 211.633L225.5 212.28C226.232 211.965 227.041 211.753 227.879 211.649L227.874 210.734H230.344L230.349 211.649C231.187 211.753 231.998 211.964 232.734 212.28L233.742 211.633L235.495 212.751L234.486 213.398C234.983 213.868 235.316 214.386 235.481 214.922H236.912L236.92 216.503H235.489C235.33 217.039 235.003 217.558 234.51 218.026L235.525 218.673L233.784 219.791ZM226.852 217.178C228.12 217.988 230.17 217.986 231.431 217.177C232.692 216.368 232.686 215.057 231.417 214.248C230.148 213.438 228.098 213.438 226.837 214.248C225.576 215.057 225.582 216.369 226.852 217.178Z" fill="white"/>
<path d="M230.918 221.092L230.914 220.344L230.912 221.036L230.916 221.784L230.918 221.092Z" fill="#BD8AAE"/>
<path d="M237.14 221.992L236.315 222.521L236.314 223.213L237.138 222.684L237.14 221.992Z" fill="#BD8AAE"/>
<path d="M227.552 222.521L226.722 221.992L226.72 222.684L227.55 223.213L227.552 222.521Z" fill="#BD8AAE"/>
<path d="M229.311 224.918C229.315 224.893 229.322 224.868 229.328 224.843C229.335 224.814 229.342 224.785 229.351 224.756C229.359 224.732 229.369 224.709 229.378 224.685C229.39 224.654 229.402 224.624 229.417 224.594C229.427 224.572 229.44 224.55 229.452 224.529C229.471 224.494 229.492 224.46 229.514 224.427C229.528 224.407 229.543 224.387 229.557 224.368C229.591 224.323 229.629 224.278 229.669 224.235C229.684 224.219 229.697 224.203 229.713 224.187C229.738 224.162 229.767 224.138 229.794 224.113C229.819 224.091 229.842 224.069 229.868 224.048C229.898 224.024 229.931 224.001 229.963 223.978C229.997 223.954 230.028 223.93 230.064 223.907C230.143 223.856 230.227 223.811 230.313 223.767C230.338 223.755 230.363 223.743 230.388 223.732C230.456 223.701 230.525 223.672 230.597 223.645C230.622 223.635 230.647 223.625 230.673 223.616C230.717 223.6 230.763 223.587 230.809 223.573C230.843 223.562 230.878 223.551 230.913 223.542C230.961 223.529 231.01 223.518 231.059 223.507C231.092 223.5 231.125 223.491 231.159 223.485C231.258 223.465 231.359 223.45 231.46 223.439C231.491 223.435 231.522 223.433 231.554 223.43C231.613 223.424 231.673 223.419 231.733 223.417C231.771 223.415 231.809 223.414 231.848 223.413C231.896 223.412 231.944 223.412 231.993 223.413C232.033 223.413 232.073 223.414 232.114 223.416C232.159 223.418 232.204 223.421 232.248 223.424C232.289 223.427 232.33 223.431 232.37 223.435C232.415 223.44 232.459 223.445 232.502 223.452C232.542 223.457 232.581 223.463 232.621 223.47C232.668 223.478 232.715 223.488 232.761 223.497C232.798 223.505 232.834 223.513 232.87 223.522C232.926 223.535 232.98 223.55 233.035 223.566C233.065 223.575 233.095 223.584 233.125 223.593C233.222 223.624 233.317 223.66 233.409 223.699C233.455 223.718 233.499 223.74 233.543 223.762C233.566 223.773 233.589 223.783 233.612 223.795C233.678 223.83 233.743 223.867 233.806 223.907C234.327 224.239 234.587 224.675 234.586 225.111L234.588 224.419C234.589 223.983 234.329 223.547 233.807 223.215C233.745 223.175 233.68 223.138 233.613 223.103C233.591 223.091 233.567 223.081 233.544 223.07C233.505 223.05 233.466 223.03 233.425 223.012C233.421 223.01 233.416 223.009 233.411 223.007C233.319 222.967 233.224 222.932 233.127 222.901C233.119 222.899 233.112 222.895 233.104 222.893C233.082 222.886 233.059 222.881 233.037 222.874C232.982 222.858 232.928 222.843 232.872 222.83C232.857 222.826 232.843 222.821 232.828 222.818C232.807 222.813 232.784 222.81 232.762 222.805C232.716 222.795 232.669 222.786 232.622 222.778C232.603 222.775 232.585 222.77 232.566 222.767C232.546 222.764 232.525 222.763 232.504 222.76C232.46 222.753 232.416 222.748 232.372 222.743C232.351 222.741 232.33 222.737 232.309 222.735C232.289 222.734 232.269 222.733 232.25 222.732C232.205 222.729 232.16 222.726 232.115 222.724C232.093 222.723 232.071 222.72 232.048 222.72C232.03 222.719 232.013 222.72 231.995 222.72C231.946 222.72 231.898 222.72 231.849 222.721C231.825 222.721 231.801 222.72 231.777 222.721C231.763 222.722 231.749 222.723 231.735 222.724C231.675 222.727 231.615 222.732 231.556 222.737C231.532 222.74 231.508 222.74 231.484 222.743C231.476 222.743 231.469 222.745 231.462 222.746C231.361 222.758 231.26 222.773 231.161 222.792C231.156 222.793 231.151 222.794 231.146 222.795C231.118 222.8 231.09 222.809 231.062 222.815C231.012 222.826 230.963 222.837 230.915 222.85C230.88 222.859 230.846 222.87 230.811 222.88C230.765 222.894 230.719 222.908 230.675 222.923C230.665 222.927 230.655 222.929 230.645 222.933C230.629 222.938 230.615 222.946 230.599 222.952C230.528 222.979 230.458 223.008 230.39 223.039C230.365 223.051 230.34 223.063 230.315 223.075C230.229 223.118 230.145 223.164 230.065 223.214C230.054 223.221 230.044 223.228 230.033 223.235C230.009 223.252 229.988 223.269 229.965 223.286C229.933 223.309 229.9 223.332 229.87 223.356C229.843 223.377 229.82 223.399 229.796 223.42C229.768 223.445 229.74 223.469 229.715 223.495C229.709 223.5 229.703 223.505 229.698 223.51C229.688 223.52 229.681 223.532 229.671 223.542C229.63 223.586 229.593 223.63 229.559 223.675C229.551 223.685 229.541 223.695 229.534 223.705C229.527 223.715 229.523 223.725 229.516 223.735C229.493 223.768 229.473 223.802 229.454 223.837C229.446 223.851 229.435 223.865 229.428 223.879C229.424 223.886 229.422 223.894 229.418 223.901C229.404 223.931 229.392 223.962 229.38 223.992C229.373 224.01 229.363 224.027 229.357 224.045C229.355 224.051 229.355 224.058 229.352 224.064C229.343 224.093 229.337 224.121 229.33 224.151C229.325 224.171 229.318 224.19 229.314 224.21C229.313 224.215 229.313 224.221 229.313 224.226C229.308 224.256 229.306 224.287 229.303 224.318C229.302 224.338 229.298 224.357 229.297 224.377C229.297 224.386 229.297 224.395 229.297 224.403L229.295 225.095C229.295 225.067 229.299 225.038 229.301 225.009C229.304 224.979 229.306 224.949 229.311 224.918Z" fill="#BD8AAE"/>
<path d="M237.134 225.057C237.122 225.099 237.107 225.14 237.092 225.182C237.082 225.21 237.071 225.238 237.06 225.266C237.05 225.293 237.038 225.319 237.027 225.345C237.014 225.373 237.001 225.401 236.988 225.429C236.975 225.455 236.963 225.48 236.949 225.505C236.932 225.538 236.914 225.57 236.895 225.602C236.882 225.625 236.868 225.649 236.853 225.672C236.833 225.705 236.811 225.737 236.789 225.77C236.774 225.791 236.76 225.813 236.745 225.834C236.701 225.894 236.656 225.954 236.607 226.012C236.6 226.02 236.593 226.028 236.586 226.035C236.543 226.086 236.497 226.137 236.449 226.186C236.412 226.225 236.374 226.264 236.334 226.302L236.332 226.994C236.365 226.963 236.397 226.931 236.429 226.899C236.436 226.893 236.441 226.885 236.448 226.878C236.495 226.829 236.541 226.779 236.584 226.728C236.59 226.72 236.598 226.712 236.605 226.704C236.654 226.646 236.7 226.586 236.743 226.527C236.746 226.521 236.751 226.517 236.754 226.512C236.766 226.495 236.776 226.478 236.787 226.462C236.809 226.43 236.831 226.397 236.851 226.364C236.866 226.341 236.879 226.317 236.893 226.294C236.912 226.262 236.93 226.23 236.947 226.197C236.953 226.187 236.959 226.177 236.965 226.166C236.972 226.151 236.979 226.136 236.986 226.121C236.999 226.093 237.012 226.066 237.025 226.038C237.036 226.011 237.047 225.984 237.058 225.958C237.07 225.93 237.08 225.902 237.09 225.874C237.095 225.861 237.1 225.849 237.105 225.836C237.114 225.807 237.124 225.778 237.133 225.749H238.302L238.304 225.057H237.134Z" fill="#BD8AAE"/>
<path d="M227.569 226.994L227.571 226.302C227.164 225.919 226.893 225.495 226.759 225.057H225.589L225.587 225.749H226.757C226.891 226.187 227.162 226.612 227.569 226.994Z" fill="#BD8AAE"/>
<path d="M234.912 227.215C234.772 227.276 234.628 227.331 234.481 227.382C234.4 227.41 234.316 227.434 234.234 227.459C234.156 227.483 234.08 227.508 234.001 227.53C233.917 227.552 233.831 227.57 233.745 227.59C233.666 227.608 233.587 227.628 233.506 227.644C233.329 227.678 233.15 227.708 232.969 227.73L232.967 228.422C233.148 228.4 233.327 228.371 233.504 228.336C233.513 228.334 233.522 228.333 233.531 228.332C233.603 228.317 233.674 228.298 233.745 228.281C233.83 228.262 233.916 228.244 233.999 228.221C234.079 228.2 234.155 228.174 234.233 228.15C234.316 228.125 234.398 228.102 234.479 228.074C234.488 228.07 234.499 228.068 234.508 228.065C234.645 228.016 234.779 227.963 234.911 227.906L235.74 228.435L237.163 227.522L237.164 226.83L235.742 227.744L234.912 227.215Z" fill="#BD8AAE"/>
<path d="M230.951 227.73C230.824 227.715 230.699 227.693 230.574 227.671C230.485 227.656 230.396 227.639 230.307 227.62C230.229 227.604 230.152 227.586 230.075 227.568C229.97 227.542 229.866 227.513 229.762 227.483C229.681 227.459 229.599 227.436 229.519 227.409C229.484 227.397 229.448 227.385 229.413 227.373C229.274 227.324 229.137 227.272 229.004 227.215L229.003 227.215L228.178 227.744L226.746 226.831L226.744 227.523L228.176 228.436L229.001 227.906C229.134 227.964 229.272 228.016 229.411 228.065C229.447 228.077 229.482 228.089 229.517 228.101C229.553 228.113 229.588 228.127 229.624 228.138C229.669 228.152 229.716 228.161 229.761 228.175C229.864 228.205 229.968 228.234 230.074 228.259C230.108 228.268 230.141 228.279 230.176 228.287C230.218 228.296 230.262 228.303 230.305 228.312C230.394 228.33 230.483 228.347 230.573 228.363C230.614 228.37 230.654 228.38 230.695 228.386C230.779 228.399 230.864 228.411 230.948 228.422H230.949L230.953 229.17H232.971L232.973 228.477H230.955L230.951 227.73Z" fill="#BD8AAE"/>
<path d="M235.742 227.744L234.912 227.215C234.316 227.474 233.654 227.646 232.969 227.73L232.973 228.478H230.955L230.951 227.73C230.266 227.646 229.602 227.474 229.003 227.215L228.177 227.744L226.745 226.831L227.571 226.302C227.164 225.919 226.893 225.495 226.758 225.057H225.589L225.583 223.766H226.752C226.882 223.327 227.15 222.904 227.551 222.521L226.722 221.992L228.145 221.078L228.974 221.607C229.572 221.349 230.233 221.176 230.917 221.092L230.913 220.344H232.931L232.935 221.092C233.62 221.176 234.283 221.349 234.884 221.607L235.708 221.078L237.14 221.992L236.315 222.521C236.721 222.904 236.993 223.327 237.128 223.766H238.297L238.304 225.057H237.134C237.004 225.495 236.738 225.919 236.335 226.302L237.164 226.831L235.742 227.744ZM230.078 225.609C231.115 226.27 232.789 226.27 233.819 225.608C234.85 224.947 234.845 223.876 233.808 223.215C232.771 222.554 231.096 222.554 230.066 223.215C229.036 223.876 229.041 224.948 230.078 225.609Z" fill="white"/>
<path d="M301.531 221.347L276.91 205.654C276.157 205.175 275.293 205.196 274.446 205.763L274.445 205.762L269.039 209.21L271.552 212.974L272.489 214.159V241.101C272.489 242.705 273.263 244.187 274.521 244.99L292.948 256.758L293.137 257.889L296.897 263.709L302.68 259.954C302.69 259.948 302.7 259.942 302.709 259.935L302.748 259.911V259.907C303.264 259.551 303.63 258.926 303.63 258.157L303.63 225.36C303.63 223.704 302.83 222.173 301.531 221.347Z" fill="url(#paint12_linear_1_312)"/>
<path d="M295.776 225.083L270.864 209.207C269.649 208.433 268.13 209.402 268.13 210.952V243.888C268.13 245.491 268.905 246.974 270.162 247.777L295.07 263.682C296.316 264.478 297.875 263.485 297.875 261.895L297.876 229.097C297.876 227.44 297.075 225.91 295.776 225.083Z" fill="url(#paint13_linear_1_312)"/>
<path d="M296.934 263.686L296.897 263.71L296.894 263.704C296.906 263.697 296.921 263.694 296.934 263.686Z" fill="url(#paint14_linear_1_312)"/>
<path d="M297.875 261.894L297.876 229.097C297.876 228.544 297.758 228.02 297.591 227.516L303.369 223.84C303.523 224.325 303.631 224.83 303.631 225.36L303.631 258.157C303.631 258.926 303.265 259.551 302.749 259.907V259.91L302.71 259.935C302.7 259.941 302.691 259.948 302.681 259.954L296.947 263.677C297.489 263.329 297.875 262.686 297.875 261.894Z" fill="url(#paint15_linear_1_312)"/>
<path d="M298.699 274.909L298.492 273.672L279.903 261.802C278.774 261.081 278.073 259.739 278.073 258.299V231.19L277.048 229.892L274.814 226.545L279.608 223.488L279.613 223.491L279.835 223.344C280.215 223.089 280.597 222.961 280.97 222.961C281.287 222.961 281.596 223.055 281.888 223.241L306.508 238.933C307.678 239.678 308.405 241.067 308.405 242.559L308.405 275.356C308.405 275.924 308.152 276.423 307.714 276.726L307.654 276.767L302.191 280.314L298.699 274.909Z" fill="url(#paint16_linear_1_312)"/>
<path d="M280.97 223.408C281.215 223.408 281.456 223.482 281.685 223.628L306.306 239.321C307.351 239.986 308 241.226 308 242.559L307.999 275.356C307.999 275.766 307.817 276.127 307.499 276.346L307.461 276.373L307.45 276.381L302.306 279.721L299.081 274.73L298.925 273.794L298.857 273.388L298.534 273.181L280.106 261.414C279.103 260.773 278.479 259.58 278.479 258.299V231.358V231.022L278.279 230.769L277.365 229.611L275.409 226.682L279.442 224.11L279.452 224.123L280.045 223.726C280.361 223.515 280.672 223.408 280.97 223.408ZM280.97 222.513C280.529 222.513 280.075 222.66 279.625 222.961L279.624 222.96L274.218 226.408L276.732 230.173L277.668 231.358V258.3C277.668 259.904 278.443 261.386 279.7 262.189L298.128 273.956L298.316 275.088L302.076 280.908L307.86 277.153C307.87 277.147 307.88 277.14 307.889 277.134L307.928 277.109V277.106C308.444 276.75 308.809 276.125 308.809 275.356L308.81 242.559C308.81 240.903 308.009 239.372 306.71 238.546L282.089 222.854C281.736 222.628 281.358 222.513 280.97 222.513Z" fill="#FDFEFE"/>
<path d="M301.182 280.713C300.927 280.713 300.681 280.639 300.452 280.493L275.545 264.588C274.416 263.867 273.715 262.525 273.715 261.086V228.15C273.715 227.181 274.453 226.58 275.136 226.58C275.383 226.58 275.621 226.652 275.842 226.793L300.753 242.669C301.923 243.414 302.65 244.803 302.65 246.295L302.649 279.093C302.649 279.539 302.491 279.952 302.205 280.256C301.93 280.546 301.557 280.713 301.182 280.713Z" fill="url(#paint17_linear_1_312)"/>
<path d="M275.136 227.028C275.311 227.028 275.48 227.079 275.639 227.18L300.55 243.057C301.595 243.722 302.245 244.963 302.245 246.295L302.244 279.093C302.244 279.817 301.693 280.266 301.182 280.266C300.999 280.266 300.821 280.212 300.655 280.106L275.747 264.2C274.743 263.559 274.12 262.366 274.12 261.086V228.15C274.12 227.457 274.647 227.028 275.136 227.028ZM275.136 226.133C274.184 226.133 273.31 226.975 273.31 228.15V261.086C273.31 262.689 274.084 264.172 275.342 264.975L300.25 280.88C300.551 281.073 300.871 281.16 301.182 281.16C302.159 281.16 303.055 280.298 303.055 279.093L303.055 246.295C303.055 244.639 302.254 243.109 300.955 242.281L276.044 226.405C275.751 226.218 275.439 226.133 275.136 226.133Z" fill="#FDFEFE"/>
<path d="M302.113 280.884L302.076 280.908L302.073 280.903C302.086 280.895 302.101 280.892 302.113 280.884Z" fill="url(#paint18_linear_1_312)"/>
<path d="M302.113 280.884L302.113 280.884L302.113 280.884ZM302.113 280.884C302.101 280.892 302.086 280.895 302.073 280.903L302.076 280.908L302.113 280.884Z" fill="#FDFEFE"/>
<path d="M303.429 279.51C303.449 279.374 303.459 279.234 303.459 279.093L303.46 246.295C303.46 245.859 303.394 245.407 303.26 244.92L308.307 241.709C308.373 242.01 308.405 242.288 308.405 242.559L308.405 275.356C308.405 275.924 308.152 276.423 307.714 276.725L307.644 276.773L303.429 279.51Z" fill="url(#paint19_linear_1_312)"/>
<path d="M307.997 242.423C307.999 242.468 308 242.514 308 242.559L308 275.356C308 275.766 307.818 276.127 307.5 276.345L307.446 276.383L303.865 278.708L303.866 246.295C303.866 245.921 303.822 245.537 303.734 245.135L307.997 242.423ZM308.549 241.039L302.771 244.715C302.938 245.218 303.056 245.743 303.056 246.295L303.055 279.093C303.055 279.878 302.674 280.516 302.139 280.867L307.86 277.153C307.87 277.147 307.88 277.14 307.89 277.134L307.928 277.109V277.105C308.445 276.75 308.81 276.125 308.81 275.356L308.81 242.559C308.81 242.029 308.702 241.524 308.549 241.039ZM302.139 280.867L302.126 280.876C302.13 280.873 302.135 280.87 302.139 280.867Z" fill="#FDFEFE"/>
<path d="M287.779 244.406C287.778 244.797 287.719 245.047 287.608 245.175C287.494 245.296 287.319 245.283 287.079 245.129C286.907 245.02 286.729 244.869 286.542 244.675L286.538 245.987C286.719 246.198 286.962 246.398 287.27 246.594C287.598 246.803 287.893 246.888 288.15 246.846C288.409 246.806 288.608 246.636 288.748 246.334C288.892 246.034 288.964 245.619 288.966 245.088L288.986 237.244L287.8 236.487L287.779 244.406Z" fill="white"/>
<path d="M291.083 244.642L292.746 245.703L293.107 247.976L294.296 248.735L292.736 239.602L291.125 238.575L289.526 245.692L290.712 246.449L291.083 244.642ZM291.784 241.133C291.843 240.788 291.892 240.469 291.929 240.175C291.945 240.338 291.986 240.673 292.056 241.179C292.127 241.681 292.171 241.998 292.19 242.126L292.526 244.223L291.323 243.456C291.57 242.25 291.725 241.479 291.784 241.133Z" fill="white"/>
<path d="M297.178 250.572L298.699 243.438L297.507 242.677L296.667 247.09C296.572 247.573 296.496 248.127 296.433 248.754C296.36 247.92 296.29 247.274 296.214 246.801L295.393 241.33L294.201 240.569L295.671 249.611L297.178 250.572Z" fill="white"/>
<path d="M299.748 252.211L300.12 250.405L301.779 251.463L302.14 253.737L303.333 254.497L301.769 245.362L300.161 244.337L298.562 251.455L299.748 252.211ZM300.817 246.894C300.876 246.548 300.926 246.23 300.966 245.938C300.978 246.098 301.02 246.434 301.09 246.94C301.16 247.442 301.208 247.761 301.227 247.889L301.562 249.986L300.357 249.217C300.606 248.012 300.757 247.239 300.817 246.894Z" fill="white"/>
<path d="M298.525 255.024L289.526 249.267V249.773L298.525 255.53V255.024Z" fill="white"/>
<path d="M289.526 250.766L303.333 259.587V259.081L289.526 250.26V250.766Z" fill="white"/>
<path d="M299.128 255.904L303.333 258.594V258.088L299.128 255.399V255.904Z" fill="white"/>
<path d="M298.525 256.961L289.526 251.204V251.71L298.525 257.467V256.961Z" fill="white"/>
<path d="M289.526 252.703L303.333 261.524V261.018L289.526 252.198V252.703Z" fill="white"/>
<path d="M299.128 257.841L303.333 260.532V260.026L299.128 257.336V257.841Z" fill="white"/>
<path d="M298.525 259.761L289.526 254.004V254.51L298.525 260.266V259.761Z" fill="white"/>
<path d="M289.526 255.503L303.333 264.323V263.818L289.526 254.997V255.503Z" fill="white"/>
<path d="M299.128 260.641L303.333 263.33V262.825L299.128 260.135V260.641Z" fill="white"/>
<path d="M298.525 261.698L289.526 255.941V256.447L298.525 262.204V261.698Z" fill="white"/>
<path d="M289.526 257.44L303.333 266.261V265.755L289.526 256.934V257.44Z" fill="white"/>
<path d="M299.128 262.578L303.333 265.268V264.762L299.128 262.073V262.578Z" fill="white"/>
<path d="M298.525 264.497L289.526 258.74V259.246L298.525 265.003V264.497Z" fill="white"/>
<path d="M289.526 260.239L303.333 269.06V268.554L289.526 259.734V260.239Z" fill="white"/>
<path d="M299.128 265.377L303.333 268.067V267.561L299.128 264.872V265.377Z" fill="white"/>
<path d="M298.525 266.434L289.526 260.678V261.183L298.525 266.94V266.434Z" fill="white"/>
<path d="M289.526 262.177L303.333 270.997V270.492L289.526 261.671V262.177Z" fill="white"/>
<path d="M299.128 267.315L303.333 270.005V269.499L299.128 266.809V267.315Z" fill="white"/>
<path d="M298.525 269.234L289.526 263.477V263.983L298.525 269.739V269.234Z" fill="white"/>
<path d="M289.526 264.975L303.333 273.796V273.291L289.526 264.47V264.975Z" fill="white"/>
<path d="M299.128 270.114L303.333 272.804V272.298L299.128 269.608V270.114Z" fill="white"/>
<path d="M298.525 271.171L289.526 265.414V265.92L298.525 271.676V271.171Z" fill="white"/>
<path d="M289.526 266.913L303.333 275.734V275.228L289.526 266.407V266.913Z" fill="white"/>
<path d="M299.128 272.051L303.333 274.741V274.235L299.128 271.545V272.051Z" fill="white"/>
<g opacity="0.46">
<path opacity="0.46" d="M275.128 279.048L228.512 308.696C226.745 309.82 224.539 308.411 224.539 306.16V290.222C224.539 289.175 225.046 288.208 225.867 287.686L272.483 258.037C274.25 256.913 276.456 258.322 276.456 260.574V276.511C276.456 277.558 275.95 278.525 275.128 279.048Z" fill="#CDE9F9"/>
</g>
<g opacity="0.46">
<path opacity="0.46" d="M332.742 254.458L286.126 284.107C284.359 285.23 282.153 283.822 282.153 281.57V265.633C282.153 264.586 282.659 263.618 283.481 263.096L330.097 233.447C331.864 232.323 334.069 233.732 334.069 235.984V251.921C334.069 252.968 333.563 253.935 332.742 254.458Z" fill="#CDE9F9"/>
</g>
<g opacity="0.46">
<path opacity="0.46" d="M337.1 222.308L290.484 251.957C288.717 253.081 286.511 251.672 286.511 249.42V233.483C286.511 232.436 287.017 231.469 287.839 230.946L334.455 201.297C336.222 200.174 338.428 201.582 338.428 203.834V219.771C338.428 220.818 337.921 221.786 337.1 222.308Z" fill="#CDE9F9"/>
</g>
<defs>
<linearGradient id="paint0_linear_1_312" x1="207.34" y1="152.638" x2="326.771" y2="152.638" gradientUnits="userSpaceOnUse">
<stop stop-color="#21409A"/>
<stop offset="0.9984" stop-color="#29ABE2" stop-opacity="0"/>
</linearGradient>
<linearGradient id="paint1_linear_1_312" x1="251.202" y1="157.501" x2="321.976" y2="157.501" gradientUnits="userSpaceOnUse">
<stop offset="0.5191" stop-color="#21285A"/>
<stop offset="0.7064" stop-color="#21295A" stop-opacity="0.6104"/>
<stop offset="0.7739" stop-color="#222D5E" stop-opacity="0.4701"/>
<stop offset="0.822" stop-color="#233463" stop-opacity="0.37"/>
<stop offset="0.861" stop-color="#253E6B" stop-opacity="0.2891"/>
<stop offset="0.8943" stop-color="#274A77" stop-opacity="0.2198"/>
<stop offset="0.9238" stop-color="#2A5986" stop-opacity="0.1584"/>
<stop offset="0.9505" stop-color="#2E6D9A" stop-opacity="0.1029"/>
<stop offset="0.975" stop-color="#2F85B5" stop-opacity="0.0519"/>
<stop offset="0.9969" stop-color="#2CA5D9" stop-opacity="0.01"/>
<stop offset="1" stop-color="#29ABE2" stop-opacity="0"/>
</linearGradient>
<linearGradient id="paint2_linear_1_312" x1="251.398" y1="138.46" x2="273.69" y2="138.46" gradientUnits="userSpaceOnUse">
<stop offset="0.0607" stop-color="#28A8E0"/>
<stop offset="0.9984" stop-color="#29ABE2" stop-opacity="0"/>
</linearGradient>
<linearGradient id="paint3_linear_1_312" x1="216.085" y1="114.976" x2="247.049" y2="114.976" gradientUnits="userSpaceOnUse">
<stop offset="0.5191" stop-color="#21285A"/>
<stop offset="0.7064" stop-color="#21295A" stop-opacity="0.6104"/>
<stop offset="0.7739" stop-color="#222D5E" stop-opacity="0.4701"/>
<stop offset="0.822" stop-color="#233463" stop-opacity="0.37"/>
<stop offset="0.861" stop-color="#253E6B" stop-opacity="0.2891"/>
<stop offset="0.8943" stop-color="#274A77" stop-opacity="0.2198"/>
<stop offset="0.9238" stop-color="#2A5986" stop-opacity="0.1584"/>
<stop offset="0.9505" stop-color="#2E6D9A" stop-opacity="0.1029"/>
<stop offset="0.975" stop-color="#2F85B5" stop-opacity="0.0519"/>
<stop offset="0.9969" stop-color="#2CA5D9" stop-opacity="0.01"/>
<stop offset="1" stop-color="#29ABE2" stop-opacity="0"/>
</linearGradient>
<linearGradient id="paint4_linear_1_312" x1="211.763" y1="115.871" x2="242.727" y2="115.871" gradientUnits="userSpaceOnUse">
<stop stop-color="#21409A"/>
<stop offset="0.9984" stop-color="#29ABE2" stop-opacity="0"/>
</linearGradient>
<linearGradient id="paint5_linear_1_312" x1="156.337" y1="171.658" x2="168.977" y2="171.658" gradientUnits="userSpaceOnUse">
<stop stop-color="#6B385F"/>
<stop offset="0.4197" stop-color="#6F3B62" stop-opacity="0.7323"/>
<stop offset="0.5218" stop-color="#764268" stop-opacity="0.6035"/>
<stop offset="0.6937" stop-color="#8C567A" stop-opacity="0.3865"/>
<stop offset="0.9131" stop-color="#B5799B" stop-opacity="0.1096"/>
<stop offset="1" stop-color="#CC8DAE" stop-opacity="0"/>
</linearGradient>
<linearGradient id="paint6_linear_1_312" x1="195.421" y1="129.411" x2="213.406" y2="129.411" gradientUnits="userSpaceOnUse">
<stop stop-color="#6B385F"/>
<stop offset="0.4197" stop-color="#6F3B62" stop-opacity="0.7323"/>
<stop offset="0.5218" stop-color="#764268" stop-opacity="0.6035"/>
<stop offset="0.6937" stop-color="#8C567A" stop-opacity="0.3865"/>
<stop offset="0.9131" stop-color="#B5799B" stop-opacity="0.1096"/>
<stop offset="1" stop-color="#CC8DAE" stop-opacity="0"/>
</linearGradient>
<linearGradient id="paint7_linear_1_312" x1="145.378" y1="156.945" x2="214.479" y2="156.945" gradientUnits="userSpaceOnUse">
<stop offset="0.0607" stop-color="#28A8E0"/>
<stop offset="0.9984" stop-color="#29ABE2" stop-opacity="0"/>
</linearGradient>
<linearGradient id="paint8_linear_1_312" x1="150.854" y1="166.852" x2="179.953" y2="166.852" gradientUnits="userSpaceOnUse">
<stop offset="0.4247" stop-color="white"/>
<stop offset="1" stop-color="#2484C6" stop-opacity="0"/>
</linearGradient>
<linearGradient id="paint9_linear_1_312" x1="189.05" y1="182.512" x2="201.689" y2="182.512" gradientUnits="userSpaceOnUse">
<stop stop-color="#6B385F"/>
<stop offset="0.4197" stop-color="#6F3B62" stop-opacity="0.7323"/>
<stop offset="0.5218" stop-color="#764268" stop-opacity="0.6035"/>
<stop offset="0.6937" stop-color="#8C567A" stop-opacity="0.3865"/>
<stop offset="0.9131" stop-color="#B5799B" stop-opacity="0.1096"/>
<stop offset="1" stop-color="#CC8DAE" stop-opacity="0"/>
</linearGradient>
<linearGradient id="paint10_linear_1_312" x1="236.49" y1="191.026" x2="254.475" y2="191.026" gradientUnits="userSpaceOnUse">
<stop stop-color="#6B385F"/>
<stop offset="0.4197" stop-color="#6F3B62" stop-opacity="0.7323"/>
<stop offset="0.5218" stop-color="#764268" stop-opacity="0.6035"/>
<stop offset="0.6937" stop-color="#8C567A" stop-opacity="0.3865"/>
<stop offset="0.9131" stop-color="#B5799B" stop-opacity="0.1096"/>
<stop offset="1" stop-color="#CC8DAE" stop-opacity="0"/>
</linearGradient>
<linearGradient id="paint11_linear_1_312" x1="214.416" y1="239.615" x2="245.725" y2="239.615" gradientUnits="userSpaceOnUse">
<stop offset="0.0607" stop-color="#28A8E0"/>
<stop offset="0.9984" stop-color="#29ABE2" stop-opacity="0"/>
</linearGradient>
<linearGradient id="paint12_linear_1_312" x1="269.039" y1="234.512" x2="303.631" y2="234.512" gradientUnits="userSpaceOnUse">
<stop stop-color="#21409A"/>
<stop offset="0.9984" stop-color="#29ABE2" stop-opacity="0"/>
</linearGradient>
<linearGradient id="paint13_linear_1_312" x1="268.13" y1="236.448" x2="297.875" y2="236.448" gradientUnits="userSpaceOnUse">
<stop stop-color="#21409A"/>
<stop offset="0.9984" stop-color="#29ABE2" stop-opacity="0"/>
</linearGradient>
<linearGradient id="paint14_linear_1_312" x1="296.894" y1="263.698" x2="296.934" y2="263.698" gradientUnits="userSpaceOnUse">
<stop stop-color="#21409A"/>
<stop offset="0.9984" stop-color="#29ABE2" stop-opacity="0"/>
</linearGradient>
<linearGradient id="paint15_linear_1_312" x1="296.947" y1="243.759" x2="303.631" y2="243.759" gradientUnits="userSpaceOnUse">
<stop stop-color="#21409A"/>
<stop offset="0.9984" stop-color="#29ABE2" stop-opacity="0"/>
</linearGradient>
<linearGradient id="paint16_linear_1_312" x1="274.813" y1="251.637" x2="308.405" y2="251.637" gradientUnits="userSpaceOnUse">
<stop offset="0.0607" stop-color="#28A8E0"/>
<stop offset="0.9984" stop-color="#29ABE2" stop-opacity="0"/>
</linearGradient>
<linearGradient id="paint17_linear_1_312" x1="273.715" y1="253.647" x2="302.65" y2="253.647" gradientUnits="userSpaceOnUse">
<stop offset="0.0607" stop-color="#28A8E0"/>
<stop offset="0.9984" stop-color="#29ABE2" stop-opacity="0"/>
</linearGradient>
<linearGradient id="paint18_linear_1_312" x1="302.073" y1="280.896" x2="302.113" y2="280.896" gradientUnits="userSpaceOnUse">
<stop offset="0.0607" stop-color="#28A8E0"/>
<stop offset="0.9984" stop-color="#29ABE2" stop-opacity="0"/>
</linearGradient>
<linearGradient id="paint19_linear_1_312" x1="303.26" y1="260.61" x2="308.405" y2="260.61" gradientUnits="userSpaceOnUse">
<stop offset="0.0607" stop-color="#28A8E0"/>
<stop offset="0.9984" stop-color="#29ABE2" stop-opacity="0"/>
</linearGradient>
</defs>
</svg>
