<svg width="304" height="256" viewBox="0 0 304 256" fill="none" xmlns="http://www.w3.org/2000/svg">
<g opacity="0.46">
<path opacity="0.46" d="M147.6 253.735L51.5047 192.726C48.0236 190.517 48.0238 184.992 51.5052 182.782L158.126 115.102C161.684 112.844 166.066 112.839 169.627 115.09L267.879 177.178C271.368 179.383 271.374 184.916 267.889 187.128L162.975 253.735C158.218 256.755 152.357 256.755 147.6 253.735Z" fill="#CDE9F9"/>
</g>
<path d="M123.524 231.711L237.263 159.129V138.801L123.524 211.098V231.711Z" fill="url(#paint0_linear_1_662)"/>
<g opacity="0.46">
<path opacity="0.46" d="M130.311 99.8415L93.5426 123.122C92.1491 124.004 90.4091 122.898 90.4091 121.13V108.616C90.4091 107.794 90.8084 107.034 91.4565 106.624L128.225 83.3438C129.619 82.4613 131.359 83.5675 131.359 85.3356V97.8497C131.359 98.6717 130.959 99.4311 130.311 99.8415Z" fill="#CDE9F9"/>
</g>
<g opacity="0.46">
<path opacity="0.46" d="M175.754 80.5334L138.986 103.814C137.592 104.696 135.852 103.59 135.852 101.822V89.3078C135.852 88.4858 136.251 87.7261 136.899 87.316L173.668 64.0356C175.062 63.1532 176.802 64.2593 176.802 66.0275V78.5415C176.802 79.3635 176.403 80.123 175.754 80.5334Z" fill="#CDE9F9"/>
</g>
<g opacity="0.46">
<path opacity="0.46" d="M179.192 55.2891L142.423 78.5694C141.03 79.4518 139.29 78.3457 139.29 76.5775V64.0635C139.29 63.2415 139.689 62.4818 140.337 62.0716L177.106 38.7913C178.5 37.9088 180.24 39.015 180.24 40.7831V53.2972C180.239 54.1194 179.84 54.8789 179.192 55.2891Z" fill="#CDE9F9"/>
</g>
<path d="M149.08 94.1915C149.089 96.1393 148.817 97.4188 148.343 98.3783C147.57 99.9471 146.258 100.666 144.751 102.066C144.123 102.651 143.46 103.356 142.787 104.293C139.526 108.838 143.843 110.706 143.843 110.706C143.843 110.706 147.012 131.522 132.053 144.191C131.998 144.238 131.942 144.285 131.886 144.33C129.611 146.228 127.428 147.471 125.396 148.176C123.902 148.694 122.49 148.922 121.184 148.906C119.148 148.883 117.369 148.27 115.938 147.243C111.371 143.965 110.348 136.48 115.827 130.585C125.655 120.009 128.031 112.903 127.124 106.473C126.024 98.6369 132.459 93.4335 135.025 91.9705C139.282 89.5439 140.18 88.2157 144.027 88.5354C148.897 88.9391 149.08 94.1915 149.08 94.1915Z" fill="#A17194"/>
<path d="M121.184 148.906C119.148 148.883 117.369 148.27 115.938 147.243C114.484 145.746 113.572 143.464 113.415 140.078C113.094 133.154 121.703 125.914 121.703 125.914C114.964 139.597 119.213 146.636 121.184 148.906Z" fill="url(#paint1_linear_1_662)"/>
<path d="M138.85 105.723C138.524 107.07 133.336 136.178 131.886 144.33C129.611 146.229 127.428 147.471 125.396 148.176C122.435 148.27 119.105 147.119 117.157 142.396C113.053 132.44 127.662 121.175 129.351 111.74C131.041 102.307 138.118 101.161 138.118 101.161C138.118 101.161 139.23 104.156 138.85 105.723Z" fill="url(#paint2_linear_1_662)"/>
<path d="M148.343 98.3783C147.57 99.9471 146.258 100.666 144.751 102.066L145.248 98.5514C145.248 98.5514 147.744 96.1108 147.824 94.5621C147.877 93.5272 148.363 96.074 148.343 98.3783Z" fill="url(#paint3_linear_1_662)"/>
<path d="M156.245 109.949C156.245 109.949 154.292 115.205 153.727 117.145C153.164 119.088 152.842 118.426 152.842 118.426L149.842 114.533C148.656 112.781 147.561 111.472 146.575 110.495C146.427 110.35 146.286 110.215 146.145 110.085C145.773 109.729 145.396 109.419 145.02 109.156C144.913 109.075 144.818 109.003 144.73 108.936C144.724 108.93 144.717 108.926 144.711 108.92C143.901 108.284 143.918 108.133 142.619 107.897C142.032 107.738 141.2 107.927 141.144 107.952C141.135 107.956 137.292 109.209 137.292 109.209C134.221 111.159 130.06 113.431 127.623 114.733C127.397 114.802 127.184 114.916 126.984 115.071C126.932 115.109 126.882 115.152 126.834 115.197C126.832 115.197 126.828 115.201 126.826 115.201C126.776 115.248 126.728 115.295 126.68 115.344C126.647 115.378 126.615 115.413 126.584 115.45C126.552 115.486 126.521 115.523 126.489 115.562C126.458 115.6 126.428 115.639 126.396 115.68C123.68 119.308 124.036 131.427 124.462 135.01C124.69 136.918 124.847 137.097 125.248 138.003C125.305 138.132 125.364 138.256 125.429 138.374C125.968 139.387 126.754 139.982 128.025 140.073C128.49 140.11 129.106 139.849 129.728 139.597C129.726 142.05 129.224 146.552 128.963 148.435C128.757 149.924 126.521 150.509 126.508 151.354C126.508 151.397 126.504 151.438 126.508 151.479C126.489 152.97 126.671 153.518 126.671 153.518L137.471 145.75L145.743 139.8L147.129 138.802C146.738 139.028 146.301 139.216 145.921 139.23H145.836C145.832 139.23 145.832 139.23 145.83 139.23C145.296 139.23 144.448 141.192 144.457 140.016C144.457 139.902 144.042 138.199 144.027 138.003C143.96 136.82 144.594 133.45 145.13 131.412C145.183 131.205 145.237 130.982 145.291 130.744C145.636 129.234 146.003 127.144 146.662 124.992C146.949 124.049 147.294 123.096 147.716 122.175C147.863 122.633 147.944 122.902 147.944 122.902C147.944 122.902 150.526 125.041 153.025 125.63C155.53 126.219 156.64 124.014 156.911 122.731C157.074 121.969 157.706 118.13 158.191 115.146C158.521 113.121 158.784 111.491 158.784 111.491C157.252 111.422 156.245 109.949 156.245 109.949Z" fill="#3C7FBE"/>
<path d="M158.784 111.491C158.784 111.491 158.521 113.121 158.191 115.146C157.706 118.131 157.074 121.969 156.911 122.731C156.64 124.015 155.53 126.219 153.025 125.63C150.526 125.042 147.944 122.902 147.944 122.902C147.944 122.902 147.863 122.633 147.716 122.175C147.294 123.096 146.949 124.049 146.662 124.993C146.003 127.144 145.636 129.234 145.291 130.744C145.237 130.983 145.184 131.205 145.13 131.413C144.594 133.45 143.96 136.82 144.027 138.003C144.042 138.199 144.457 139.902 144.457 140.016C144.448 141.192 145.296 139.23 145.83 139.23C145.832 139.23 145.832 139.23 145.836 139.23H145.921C146.301 139.216 146.738 139.028 147.129 138.802L145.743 139.801L137.472 145.75L126.671 153.518C126.671 153.518 126.489 152.97 126.508 151.479C126.504 151.438 126.508 151.397 126.508 151.354C126.519 150.605 128.279 150.061 128.82 148.907C128.891 148.761 128.939 148.604 128.963 148.435C129.22 146.577 129.713 142.166 129.728 139.692V139.597C129.106 139.849 128.49 140.11 128.025 140.073C126.754 139.982 125.968 139.387 125.429 138.374C125.364 138.256 125.305 138.132 125.248 138.003C124.847 137.097 124.69 136.917 124.462 135.01C124.247 133.201 124.049 129.218 124.258 125.249C124.46 121.356 125.051 117.477 126.396 115.68C126.428 115.639 126.458 115.6 126.489 115.562C126.521 115.523 126.552 115.486 126.584 115.45C126.615 115.413 126.647 115.378 126.68 115.344C126.728 115.295 126.776 115.248 126.826 115.201C126.828 115.201 126.832 115.197 126.834 115.197C126.882 115.152 126.932 115.109 126.984 115.071C127.184 114.916 127.397 114.802 127.623 114.732C130.06 113.431 134.221 111.159 137.292 109.209C137.292 109.209 141.135 107.956 141.144 107.952C141.2 107.928 142.032 107.738 142.619 107.897C143.918 108.133 143.901 108.284 144.711 108.92C144.717 108.926 144.724 108.93 144.73 108.936C144.818 109.003 144.913 109.075 145.02 109.156C145.397 109.419 145.773 109.729 146.145 110.085C146.286 110.216 146.427 110.35 146.575 110.495C147.561 111.473 148.656 112.78 149.842 114.533L152.842 118.426C152.842 118.426 153.164 119.088 153.727 117.145C154.292 115.205 156.245 109.949 156.245 109.949C156.245 109.949 157.252 111.422 158.784 111.491Z" fill="url(#paint4_linear_1_662)"/>
<path d="M148.238 138.004C148.148 138.085 147.685 138.479 147.13 138.801L148.238 138.004Z" fill="#BD8AAE"/>
<path d="M135.465 127.594C134.957 127.668 134.689 127.615 134.689 127.615C134.689 127.615 134.388 127.541 135.465 127.594Z" fill="#2A2F6D"/>
<path d="M158.191 115.146C157.706 118.131 157.075 121.97 156.911 122.732C156.64 124.016 155.529 126.22 153.025 125.631C150.524 125.042 147.944 122.903 147.944 122.903C147.944 122.903 147.863 122.633 147.716 122.174C147.293 123.095 146.949 124.05 146.661 124.993C146.03 124.909 145.331 124.828 145.26 124.865C145.13 124.931 143.233 124.965 143.233 124.965C143.233 124.965 142.807 124.124 141.566 124.9C140.323 125.672 137.382 127.706 135.851 127.616C135.707 127.606 135.58 127.6 135.467 127.594C136.209 127.488 137.467 127.113 139.155 125.913C142.006 123.889 143.771 122.54 145.768 122.574C147.764 122.609 144.823 121.161 144.823 121.161C144.823 121.161 146.295 120.252 146.202 118.299C146.109 116.346 144.547 112.418 143.63 111.587C143.63 111.587 144.597 110.796 145.768 113.233C145.768 113.233 148.068 121.867 152.755 121.7C155.786 121.591 157.419 117.809 158.191 115.146Z" fill="url(#paint5_linear_1_662)"/>
<path d="M145.835 139.23C145.648 139.644 145.389 139.98 145.037 140.2C143.202 141.349 129.048 149.935 126.507 151.479C126.504 151.438 126.507 151.397 126.507 151.355C126.52 150.509 128.757 149.924 128.962 148.435C129.224 146.553 129.726 142.05 129.728 139.597C130.018 139.477 130.311 139.361 130.591 139.277C134.623 138.065 138.038 136.7 138.852 135.852C139.659 135.007 139.583 135.487 139.111 134.12C138.75 133.075 139.187 131.302 139.187 131.302C136.471 132.042 132.228 132.706 131.736 132.236C131.247 131.763 131.553 126.307 132.472 120.989C132.976 118.077 131.57 116.456 130.195 115.586C130.195 115.586 133.74 116.464 133.417 120.15C133.097 123.839 132.745 128.071 133.438 130.049C133.438 130.049 133.804 131.472 137.377 130.585C140.34 129.848 143.994 129.544 145.291 130.744C145.237 130.982 145.184 131.205 145.13 131.412C144.594 133.45 143.96 136.82 144.027 138.003C144.042 138.199 144.457 139.902 144.457 140.016C144.448 141.192 145.296 139.23 145.83 139.23C145.832 139.23 145.832 139.23 145.835 139.23Z" fill="url(#paint6_linear_1_662)"/>
<path d="M139.156 135.497L143.143 121.24L152.379 115.376L149.511 128.923L139.156 135.497Z" fill="#707070"/>
<path d="M139.208 131.471C139.208 131.471 139.98 129.633 141.725 128.885C143.471 128.137 141.909 129.855 141.909 129.855C141.909 129.855 142.693 129.832 143.516 128.697C144.339 127.562 143.562 129.656 143.195 130.084C143.195 130.084 143.792 129.804 144.205 129.097C144.619 128.39 144.757 129.218 144.205 130.167C143.654 131.117 143.241 131.471 143.241 131.471C143.241 131.471 143.884 131.168 144.343 130.713C144.803 130.259 144.523 131.396 143.826 132.026L144.569 131.622C144.569 131.622 144.825 131.824 143.826 132.683C142.827 133.541 141.03 135.107 139.839 135.006C138.648 134.905 138.969 135.01 138.969 135.01C138.969 135.01 137.843 133.316 139.208 131.471Z" fill="#FDE0D9"/>
<path d="M156.262 110.57C156.262 110.57 155.589 108.684 155.956 107.876C156.324 107.068 156.446 106.496 156.446 106.277C156.446 106.058 156.875 106.505 156.814 107.022C156.752 107.539 156.752 107.539 156.752 107.539C156.752 107.539 157.249 107.051 157.487 106.22C157.726 105.389 158.077 104.661 158.192 105.014C158.307 105.368 158.054 106.479 158.054 106.479C158.054 106.479 158.881 105.538 158.927 104.923C158.973 104.307 159.592 104.282 159.455 105.04C159.317 105.797 158.927 106.58 158.927 106.58C158.927 106.58 159.661 105.822 159.845 105.368C160.029 104.913 160.396 105.09 160.19 105.646C159.983 106.201 159.57 107.022 159.57 107.022C159.57 107.022 160.304 106.656 160.511 106.277C160.718 105.899 161.246 106.228 160.718 107.022C160.19 107.817 159.593 108.625 159.478 109.358C159.363 110.09 159.279 111.463 158.448 111.711C157.618 111.959 156.262 110.57 156.262 110.57Z" fill="#FDE0D9"/>
<path d="M144.71 108.92C142.142 106.998 141.177 109.168 140.537 110.077C139.894 110.985 133.739 112.979 133.074 113.534C132.408 114.092 130.195 115.586 129.789 115.177C129.383 114.768 127.623 114.733 127.623 114.733C130.059 113.431 134.221 111.159 137.292 109.209C137.292 109.209 141.135 107.956 141.144 107.953C141.2 107.928 142.032 107.739 142.618 107.897C143.918 108.133 143.901 108.285 144.71 108.92Z" fill="url(#paint7_linear_1_662)"/>
<path d="M144.457 99.7139C143.844 100.253 143.63 99.4107 143.63 99.4107C143.63 99.4107 142.834 100.455 142.099 100.69C141.364 100.926 141.895 99.7811 141.895 99.7811C141.895 99.7811 140.629 100.959 140.17 100.993C139.71 101.027 140.017 100.151 140.017 100.151C140.017 100.151 139.282 100.589 138.975 101.397C138.669 102.205 138.547 102.508 138.547 102.508C138.547 102.508 138.577 101.566 138.118 101.162C137.659 100.757 137.383 103.384 137.842 103.956C138.302 104.528 138.302 104.528 138.302 104.528C138.302 104.528 135.985 109.869 134.583 110.816C134.539 110.874 134.495 110.93 134.451 110.985C134.451 110.985 135.797 112.408 137.317 112.895C137.32 112.892 137.326 112.892 137.328 112.889C138.493 112.238 139.026 111.124 139.136 110.877C139.15 110.842 139.158 110.808 139.161 110.774L139.215 110.337L139.494 108.108C139.496 108.102 139.499 108.092 139.499 108.086C139.502 108.083 139.502 108.083 139.502 108.08C140.354 108.489 141.746 108.548 142.993 108.158C144.837 107.578 145.065 102.037 145.065 102.037C145.174 100.864 145.226 99.6265 145.248 98.5513C145.012 99.0053 144.726 99.4768 144.457 99.7139Z" fill="#FDE0D9"/>
<path d="M139.5 108.086C139.5 108.092 139.497 108.102 139.494 108.108L139.215 110.337C138.471 109.106 138.471 107.29 138.471 107.29C138.73 107.63 139.127 107.894 139.5 108.086Z" fill="#ECBFB9"/>
<path d="M138.47 113.003C138.104 113.071 137.712 113.019 137.317 112.895C135.797 112.408 134.451 110.985 134.451 110.985L136.167 110.337H139.215C139.215 110.337 140.261 112.678 138.47 113.003Z" fill="#FDE0D9"/>
<g opacity="0.1">
<path opacity="0.1" d="M130.195 115.586C130.195 115.586 132.25 116.842 131.646 121.555C131.042 126.267 130.016 132.44 131.224 132.971C132.431 133.503 137.924 131.687 137.924 131.687C137.924 131.687 132.129 132.96 131.736 132.236C131.344 131.511 131.488 128.758 131.715 126.674C131.941 124.589 133.059 119.835 132.395 118.428C131.731 117.02 130.195 115.586 130.195 115.586Z" fill="white"/>
</g>
<path d="M129.728 139.692V139.597C129.105 139.849 128.49 140.11 128.025 140.073C126.754 139.982 125.968 139.387 125.429 138.374C125.364 138.256 125.305 138.132 125.247 138.003C124.847 137.097 124.69 136.917 124.462 135.01C124.247 133.201 124.048 129.218 124.258 125.249C124.438 128.538 124.917 132.564 126.153 134.564C128.447 138.28 131.886 137.551 134.271 137.019C136.611 136.5 138.768 135.876 138.85 135.854C138.783 135.884 137.215 136.842 134.946 137.814C133.354 138.497 131.278 139.13 129.728 139.692Z" fill="#1C3F75"/>
<path d="M141.092 141.143L128.862 148.908H128.82C128.89 148.761 128.939 148.604 128.963 148.435C129.22 146.577 129.713 142.166 129.728 139.693V139.597L133.137 138.513C133.137 138.513 132.733 140.628 134.866 141.867C136.949 143.077 140.905 141.231 141.092 141.143Z" fill="#1C3F75"/>
<path d="M104.178 148.387C103.096 148.387 101.974 148.277 100.816 148.03C90.6375 145.856 85.8143 138.923 83.9297 135.269C83.3278 134.102 83.8274 132.622 84.9747 132.164L86.6328 131.503L84.78 132.242L84.9591 132.169C85.8671 131.803 86.8806 132.213 87.3561 133.14C88.8462 136.043 92.8595 141.916 101.568 143.776C107.225 144.984 111.997 141.902 114.214 140.095C115.008 139.447 116.113 139.532 116.806 140.309C117.644 141.248 117.534 142.783 116.573 143.568C114.249 145.468 109.768 148.387 104.178 148.387Z" fill="#CDE9F9"/>
<path d="M85.3314 141.068C87.6487 141.068 89.5273 137.989 89.5273 134.191C89.5273 130.394 87.6487 127.315 85.3314 127.315C83.014 127.315 81.1354 130.394 81.1354 134.191C81.1354 137.989 83.014 141.068 85.3314 141.068Z" fill="#707070"/>
<path d="M118.01 132.286C118.01 132.286 113.501 134.608 112.759 138.75C112.017 142.891 114.642 147.096 118.01 146.845C121.377 146.594 124.574 143.519 124.574 143.519L122.69 139.001C122.69 139.001 120.566 141.493 118.603 141.596C116.64 141.699 115.308 137.431 119.513 135.486L118.01 132.286Z" fill="url(#paint8_linear_1_662)"/>
<path d="M92.9312 159.502V152.259L87.5465 152.971C85.1405 151.843 82.1866 151.292 79.0585 151.292V151.581C79.5572 151.581 80.0493 151.596 80.5338 151.624C78.6532 151.588 76.4672 151.721 73.9784 152.045C75.6565 151.741 77.3643 151.581 79.0572 151.581L79.0582 151.292C79.0578 151.292 79.0574 151.292 79.0572 151.292C73.9411 151.292 68.3629 152.764 63.9741 155.589C63.6631 155.789 63.3663 155.995 63.0763 156.202L57.2925 156.966V165.591C57.2925 165.591 57.2983 165.593 57.3072 165.597C57.4065 167.939 58.6765 170.113 61.1881 171.73C63.8064 173.415 67.3643 174.233 71.1796 174.233C76.2957 174.233 81.8739 172.761 86.2624 169.936C90.6665 167.101 92.9485 163.497 92.9327 160.194C92.9566 159.754 92.9312 159.502 92.9312 159.502ZM67.5328 173.67C66.7337 173.547 65.965 173.382 65.2332 173.178C66.0223 173.382 66.7885 173.543 67.5328 173.67ZM65.1459 173.154C65.1158 173.146 65.086 173.137 65.0562 173.129C65.0869 173.137 65.1152 173.146 65.1459 173.154Z" fill="#2A2F6D"/>
<path d="M75.8778 162.902C85.7214 161.741 93.3611 157.315 92.9415 153.016C92.522 148.717 84.2021 146.174 74.3586 147.336C64.515 148.497 56.8753 152.923 57.2949 157.222C57.7144 161.521 66.0343 164.064 75.8778 162.902Z" fill="#65939E"/>
<path d="M71.1799 166.199C67.3008 166.199 63.8096 165.327 61.3498 163.744C58.9347 162.189 57.6464 160.091 57.6242 157.676H57.6125V101.569H57.614L57.6238 101.251C57.6082 97.9281 59.9818 94.4888 64.1358 91.8148C68.33 89.1151 73.7687 87.5664 79.0573 87.5662C82.9373 87.5662 86.4277 88.4381 88.8875 90.0214C89.8986 90.6721 90.7159 91.4248 91.325 92.2576L91.1192 92.4325C91.3026 92.7038 91.4647 92.9594 91.6152 93.2133L91.8352 93.0625C92.2155 93.7647 92.4607 94.5137 92.5632 95.2991L92.5688 95.342L92.5666 95.3488L92.5756 95.4294C92.6109 95.751 92.6231 96.0745 92.6118 96.3912L92.6084 96.4856L92.6233 96.5165V152.689L92.6124 152.689C92.543 155.956 90.1698 159.331 86.1015 161.95C81.9066 164.65 76.468 166.199 71.1799 166.199Z" fill="url(#paint9_linear_1_662)"/>
<path d="M79.0584 87.9172C82.8811 87.9172 86.3143 88.772 88.726 90.3244C89.6986 90.9504 90.4839 91.6716 91.0678 92.4674L90.8625 92.6419C91.0419 92.9071 91.2004 93.1568 91.3469 93.4049L91.5664 93.2545C91.9149 93.9015 92.142 94.5888 92.2411 95.3075L92.2402 95.3103L92.2579 95.4717C92.2912 95.7741 92.3027 96.0789 92.2922 96.3775L92.2856 96.5642L92.3035 96.602V152.372L92.292 152.372L92.2924 152.69C92.2215 155.829 89.9067 159.093 85.9398 161.647C81.7926 164.317 76.4128 165.848 71.1797 165.848C67.3564 165.848 63.9225 164.993 61.511 163.44C59.1982 161.951 57.9645 159.957 57.9434 157.673H57.9316V101.881L57.9459 101.879L57.9429 101.249C57.928 98.055 60.2441 94.7268 64.2968 92.1179C68.4436 89.4485 73.8234 87.9175 79.0569 87.9172H79.0584ZM79.0584 87.2145C79.058 87.2145 79.0578 87.2145 79.0573 87.2145C73.9412 87.2147 68.363 88.6863 63.9743 91.5114C59.5704 94.3461 57.2887 97.9506 57.304 101.253L57.2927 101.254V158.698L57.3044 157.68C57.3268 160.11 58.5934 162.376 61.1883 164.047C63.8066 165.732 67.3645 166.55 71.1797 166.55C76.2958 166.55 81.874 165.078 86.2626 162.253C90.5838 159.472 92.8623 155.949 92.9316 152.698L92.9311 152.371C92.9339 152.479 92.9339 152.588 92.9316 152.698L92.9424 159.494V96.4352C92.9373 96.4253 92.9354 96.415 92.9307 96.4052C92.9429 96.0625 92.9294 95.723 92.8924 95.3874C92.919 95.303 92.9424 95.2491 92.9424 95.2491H92.8792C92.6033 93.138 91.3437 91.1954 89.0486 89.7182C86.4309 88.0327 82.8732 87.2145 79.0584 87.2145ZM91.8827 93.0216C91.7377 92.7764 91.5713 92.5126 91.3755 92.2228C91.5649 92.4819 91.7343 92.748 91.8827 93.0216Z" fill="#FDFEFE"/>
<g opacity="0.5">
<path opacity="0.5" d="M59.6439 156.467V101.368C59.6439 101.368 62.7864 95.7922 68.1875 96.3898C73.5887 96.9871 74.4605 100.372 74.4605 100.372V161.704C74.4605 161.704 63.8092 170.346 59.6439 156.467Z" fill="url(#paint10_linear_1_662)"/>
</g>
<path d="M62.3828 159.702C64.7002 159.702 66.5788 156.623 66.5788 152.826C66.5788 149.028 64.7002 145.949 62.3828 145.949C60.0655 145.949 58.1869 149.028 58.1869 152.826C58.1869 156.623 60.0655 159.702 62.3828 159.702Z" fill="url(#paint11_linear_1_662)"/>
<path d="M81.2298 167.021C80.1475 167.021 79.0252 166.912 77.8673 166.665C67.689 164.491 62.8658 157.558 60.9812 153.904C60.3794 152.737 60.879 151.256 62.0262 150.799L63.6844 150.138L61.8315 150.876L62.0107 150.804C62.9187 150.437 63.9321 150.848 64.4076 151.775C65.8977 154.678 69.9111 160.55 78.6193 162.41C84.2766 163.618 89.0488 160.536 91.2651 158.729C92.0596 158.081 93.1642 158.167 93.8571 158.943C94.6958 159.883 94.5857 161.417 93.6246 162.203C91.3007 164.102 86.8197 167.021 81.2298 167.021Z" fill="#CDE9F9"/>
<path d="M95.0612 150.92C95.0612 150.92 90.5523 153.242 89.8103 157.384C89.0682 161.526 91.6938 165.731 95.0612 165.48C98.4286 165.229 101.625 162.154 101.625 162.154L99.7414 157.635C99.7414 157.635 97.6174 160.128 95.6543 160.231C93.6913 160.334 92.3598 156.066 96.5643 154.121L95.0612 150.92Z" fill="url(#paint12_linear_1_662)"/>
<g opacity="0.5">
<path opacity="0.5" d="M78.2386 157.759C78.2386 157.027 77.6924 156.467 77.0185 156.467C76.3446 156.467 75.7984 157.061 75.7984 157.793C75.7984 158.525 76.3446 159.119 77.0185 159.119C77.6924 159.119 78.2386 158.491 78.2386 157.759Z" fill="white"/>
</g>
<g opacity="0.5">
<path opacity="0.5" d="M74.4605 151.246C74.4605 150.247 73.7152 149.483 72.7957 149.483C71.8764 149.483 71.131 150.293 71.131 151.292C71.131 152.291 71.8762 153.101 72.7957 153.101C73.7152 153.101 74.4605 152.245 74.4605 151.246Z" fill="white"/>
</g>
<g opacity="0.5">
<path opacity="0.5" d="M78.2386 142.808C78.2386 141.344 77.1461 140.225 75.7984 140.225C74.4507 140.225 73.3582 141.412 73.3582 142.876C73.3582 144.341 74.4507 145.528 75.7984 145.528C77.1461 145.528 78.2386 144.272 78.2386 142.808Z" fill="white"/>
</g>
<path d="M81.0506 133.014H77.5341C76.7788 133.014 76.1608 132.334 76.1608 131.504C76.1608 130.673 76.7788 129.994 77.5341 129.994H81.0506C81.8059 129.994 82.4239 130.673 82.4239 131.504C82.4239 132.334 81.8059 133.014 81.0506 133.014Z" fill="white"/>
<path d="M89.8531 133.014H88.4651C87.7322 133.014 87.1327 132.354 87.1327 131.549C87.1327 130.743 87.7322 130.084 88.4651 130.084H89.8531C90.586 130.084 91.1855 130.743 91.1855 131.549C91.1855 132.354 90.586 133.014 89.8531 133.014Z" fill="white"/>
<path d="M182.722 105.326V101.183L179.642 101.59C178.265 100.945 176.576 100.63 174.786 100.63V100.795C175.071 100.795 175.353 100.804 175.63 100.82C174.554 100.8 173.304 100.876 171.88 101.061C172.84 100.887 173.817 100.795 174.786 100.795L174.786 100.63C174.786 100.63 174.786 100.63 174.786 100.63C171.859 100.63 168.668 101.472 166.157 103.088C165.979 103.203 165.81 103.32 165.644 103.439L162.335 103.876V108.809C162.335 108.809 162.339 108.811 162.344 108.813C162.401 110.153 163.127 111.396 164.564 112.321C166.061 113.285 168.097 113.753 170.279 113.753C173.206 113.753 176.397 112.911 178.907 111.295C181.427 109.673 182.732 107.611 182.723 105.722C182.736 105.471 182.722 105.326 182.722 105.326ZM168.193 113.431C167.736 113.361 167.296 113.266 166.877 113.149C167.329 113.266 167.767 113.358 168.193 113.431ZM166.827 113.136C166.81 113.131 166.793 113.126 166.776 113.121C166.794 113.126 166.81 113.131 166.827 113.136Z" fill="#2A2F6D"/>
<path d="M172.968 107.273C178.599 106.608 182.969 104.076 182.729 101.617C182.489 99.1582 177.73 97.7034 172.099 98.3678C166.468 99.0322 162.097 101.564 162.337 104.023C162.577 106.482 167.337 107.937 172.968 107.273Z" fill="#65939E"/>
<path d="M170.279 109.007C168.084 109.007 166.111 108.515 164.725 107.623C163.387 106.762 162.674 105.606 162.661 104.28H162.655V72.3207L162.656 72.3204L162.661 72.0035C162.653 70.1578 163.986 68.2376 166.319 66.7358C168.698 65.2045 171.784 64.326 174.785 64.326C176.981 64.326 178.953 64.8175 180.339 65.71C180.901 66.0717 181.355 66.4887 181.693 66.9495L181.575 67.0492C181.679 67.2027 181.77 67.3463 181.854 67.4885L181.98 67.4023C182.185 67.7822 182.318 68.1866 182.374 68.6094L182.374 68.612L182.383 68.6923C182.402 68.8675 182.409 69.0444 182.403 69.2187L182.399 69.3117L182.409 69.332V101.426H182.403C182.364 103.241 181.031 105.126 178.746 106.597C176.367 108.128 173.281 109.007 170.279 109.007Z" fill="url(#paint13_linear_1_662)"/>
<path d="M174.786 64.6774C176.925 64.6774 178.84 65.1518 180.178 66.0131C180.701 66.35 181.123 66.7358 181.436 67.1593L181.319 67.2589C181.418 67.4055 181.506 67.5433 181.586 67.6799L181.711 67.5941C181.886 67.9204 182 68.265 182.053 68.6234L182.065 68.7342C182.082 68.8914 182.088 69.0498 182.083 69.2046L182.076 69.392L182.089 69.419V101.248H182.082L182.083 101.426C182.043 103.114 180.768 104.888 178.584 106.294C176.252 107.794 173.225 108.655 170.279 108.655C168.139 108.655 166.224 108.181 164.886 107.32C163.65 106.524 162.992 105.472 162.981 104.277H162.974V72.6324L162.983 72.6313L162.98 72.0016C162.973 70.3098 164.281 68.4548 166.48 67.0392C168.811 65.5383 171.838 64.6777 174.785 64.6774H174.786ZM174.786 63.9747C174.786 63.9747 174.786 63.9747 174.785 63.9747C171.859 63.9749 168.668 64.8166 166.157 66.4327C163.638 68.0542 162.333 70.1161 162.342 72.0053L162.335 72.0063V104.867L162.342 104.284C162.355 105.675 163.079 106.971 164.563 107.926C166.061 108.89 168.096 109.358 170.279 109.358C173.206 109.358 176.397 108.516 178.907 106.9C181.379 105.309 182.683 103.294 182.722 101.434L182.722 101.247C182.723 101.309 182.724 101.371 182.722 101.434L182.728 105.322V69.2491C182.725 69.2435 182.724 69.2376 182.722 69.232C182.729 69.036 182.721 68.8418 182.7 68.6497C182.715 68.6014 182.728 68.5707 182.728 68.5707H182.692C182.534 67.3631 181.814 66.2519 180.501 65.4067C179.003 64.4427 176.968 63.9747 174.786 63.9747ZM182.122 67.2966C182.039 67.1563 181.944 67.0054 181.832 66.8396C181.94 66.9876 182.037 67.1399 182.122 67.2966Z" fill="#FDFEFE"/>
<g opacity="0.5">
<path opacity="0.5" d="M174.317 104.329C174.317 103.91 174.005 103.59 173.619 103.59C173.234 103.59 172.921 103.93 172.921 104.349C172.921 104.768 173.234 105.107 173.619 105.107C174.005 105.107 174.317 104.748 174.317 104.329Z" fill="white"/>
</g>
<g opacity="0.5">
<path opacity="0.5" d="M172.156 100.603C172.156 100.032 171.729 99.5951 171.203 99.5951C170.677 99.5951 170.251 100.058 170.251 100.63C170.251 101.201 170.677 101.665 171.203 101.665C171.729 101.665 172.156 101.175 172.156 100.603Z" fill="white"/>
</g>
<g opacity="0.5">
<path opacity="0.5" d="M174.317 95.7765C174.317 94.9388 173.692 94.2986 172.921 94.2986C172.15 94.2986 171.525 94.9777 171.525 95.8154C171.525 96.6531 172.15 97.3322 172.921 97.3322C173.692 97.3322 174.317 96.6144 174.317 95.7765Z" fill="white"/>
</g>
<path d="M169.199 91.0375H167.187C166.755 91.0375 166.401 90.6489 166.401 90.1736C166.401 89.6985 166.755 89.3097 167.187 89.3097H169.199C169.631 89.3097 169.984 89.6983 169.984 90.1736C169.984 90.6489 169.631 91.0375 169.199 91.0375Z" fill="white"/>
<path d="M176.24 91.0375H174.228C173.796 91.0375 173.443 90.6489 173.443 90.1736C173.443 89.6985 173.796 89.3097 174.228 89.3097H176.24C176.672 89.3097 177.026 89.6983 177.026 90.1736C177.026 90.6489 176.672 91.0375 176.24 91.0375Z" fill="white"/>
<path d="M303.612 79.0066V131.906C303.612 134.907 302.156 137.682 299.791 139.183L257.305 166.156C255.916 167.036 254.367 167.479 252.817 167.479C251.268 167.479 249.719 167.037 248.332 166.156L192.789 130.893V73.143L252.817 109.013L303.612 79.0066Z" fill="#CDE9F9"/>
<path d="M238.965 155.727L238.965 109.629L197.407 81.9385V129.343L238.965 155.727Z" fill="url(#paint14_linear_1_662)"/>
<path d="M123.524 211.098L238.965 137.64V131.776L127.549 202.512C127.549 202.512 124.08 204.083 123.074 205.764C122.068 207.446 123.524 211.098 123.524 211.098Z" fill="#707070"/>
<path d="M238.965 131.776L126.051 203.463C124.487 204.456 123.524 206.29 123.524 208.275V233.495C123.524 235.922 121.135 237.439 119.224 236.226L88.0169 216.413C87.13 215.85 86.5835 214.809 86.5835 213.683V175.751L123.524 199.204L238.965 125.913V131.776Z" fill="#3C7FBE"/>
<path d="M238.965 109.63V125.914L232.27 130.166H232.268L232.088 130.28L223.261 135.885L223.081 135.997L217.217 139.721L217.037 139.835L210.727 143.841L210.55 143.955L202.037 149.358L201.857 149.472L193.028 155.077L192.848 155.191L186.824 159.015L186.646 159.129L180.337 163.133L180.159 163.247L171.647 168.652L171.467 168.766L162.637 174.371L162.458 174.485L156.593 178.207L156.413 178.321L150.106 182.327L149.926 182.441L141.415 187.844L141.234 187.958L132.407 193.563L132.227 193.677L125.817 197.746L125.64 197.86L123.524 199.203C123.524 199.203 122.788 200.733 122.017 202.935C121.993 202.999 121.971 203.064 121.949 203.129C121.298 205.009 120.635 207.348 120.375 209.634C120.366 209.708 120.359 209.783 120.351 209.858C120.309 210.274 120.281 210.688 120.268 211.097C120.244 211.855 119.495 212.313 118.899 211.935L88.8624 190.395C87.4506 189.497 86.5833 187.838 86.5833 186.045V175.75L91.0636 172.906L91.2434 172.792L97.6527 168.724L97.8325 168.609L106.66 163.004L106.84 162.89L115.352 157.487L115.53 157.373L121.839 153.368L122.019 153.254L127.882 149.531L128.063 149.417L136.893 143.81L137.071 143.698L145.583 138.293L145.763 138.179L152.07 134.176L152.25 134.06L158.274 130.238L158.452 130.123L167.281 124.518L167.461 124.404L175.974 118.999L176.151 118.885H176.153L182.461 114.88H182.463L182.641 114.768L188.505 111.043L188.685 110.929L197.514 105.324L197.694 105.21L206.205 99.807L206.384 99.6929L212.692 95.6874L212.872 95.5734L215.431 93.9493L238.965 109.63Z" fill="#E7F6FD"/>
<path d="M158.274 130.237L192.849 155.191L193.028 155.077L158.452 130.123L158.274 130.237Z" fill="#707070"/>
<path d="M167.282 124.518L201.858 149.472L202.037 149.358L167.461 124.404L167.282 124.518Z" fill="#707070"/>
<path d="M176.152 118.885L175.974 118.999L210.55 143.955L210.728 143.841L176.154 118.885H176.152Z" fill="#707070"/>
<path d="M182.463 114.879L217.217 139.721L182.641 114.767L182.463 114.879Z" fill="#707070"/>
<path d="M188.505 111.043L223.081 135.996L223.261 135.885L188.685 110.929L188.505 111.043Z" fill="#707070"/>
<path d="M197.694 105.21L197.514 105.324L232.089 130.28L232.27 130.165H232.268L197.694 105.21Z" fill="#707070"/>
<path d="M206.205 99.8064L238.965 123.45V123.206L206.384 99.6923L206.205 99.8064Z" fill="#707070"/>
<path d="M212.872 95.5726L212.692 95.6867L238.965 114.651V114.406L212.872 95.5726Z" fill="#707070"/>
<path d="M97.6534 168.723L132.228 193.677L132.407 193.563L97.8332 168.609L97.6534 168.723Z" fill="#707070"/>
<path d="M91.0645 172.906L125.64 197.86L125.818 197.746L91.2441 172.792L91.0645 172.906Z" fill="#707070"/>
<path d="M86.584 177.604L121.949 203.129L122.018 202.935L86.584 177.36V177.604Z" fill="#707070"/>
<path d="M86.584 185.487L120.352 209.858L120.376 209.634L86.584 185.242V185.487Z" fill="#707070"/>
<path d="M106.661 163.004L141.235 187.958L141.416 187.844L106.84 162.89L106.661 163.004Z" fill="#707070"/>
<path d="M115.353 157.487L149.927 182.441L150.107 182.327L115.531 157.373L115.353 157.487Z" fill="#707070"/>
<path d="M121.84 153.367L156.414 178.321L156.594 178.207L122.02 153.253L121.84 153.367Z" fill="#707070"/>
<path d="M127.883 149.531L162.459 174.485L162.638 174.371L128.064 149.417L127.883 149.531Z" fill="#707070"/>
<path d="M136.893 143.81L171.467 168.766L171.647 168.652L137.071 143.698L136.893 143.81Z" fill="#707070"/>
<path d="M145.584 138.293L180.16 163.247L180.338 163.133L145.763 138.179L145.584 138.293Z" fill="#707070"/>
<path d="M152.071 134.175L186.647 159.129L186.825 159.015L152.251 134.059L152.071 134.175Z" fill="#707070"/>
<path d="M303.612 79.0066V131.906C303.612 134.907 302.156 137.681 299.791 139.183L257.305 166.156C255.916 167.036 254.367 167.479 252.817 167.479V109.014L303.612 79.0066Z" fill="#707070"/>
<path d="M211.26 84.8703L246.665 107.348C250.472 109.766 255.164 109.766 258.972 107.348L303.612 79.0072L254.338 47.724C247.683 43.4987 239.483 43.4987 232.828 47.724L192.789 73.1438L211.26 84.8703Z" fill="#3C7FBE"/>
<path d="M211.26 65.4195L246.665 87.8973C250.472 90.3148 255.164 90.3148 258.972 87.8973L303.612 59.5563L254.338 28.2732C247.683 24.0479 239.483 24.0479 232.828 28.2732L192.789 53.693L211.26 65.4195Z" fill="url(#paint15_linear_1_662)"/>
<path d="M211.26 75.6348L246.665 98.1126C250.472 100.53 255.164 100.53 258.972 98.1126L303.612 69.7716L254.338 38.4884C247.683 34.2632 239.483 34.2632 232.828 38.4884L192.789 63.9082L211.26 75.6348Z" fill="url(#paint16_linear_1_662)"/>
<g opacity="0.44">
<path opacity="0.44" d="M131.51 186.319C143.675 186.319 153.537 179.853 153.537 171.877C153.537 163.901 143.675 157.435 131.51 157.435C119.344 157.435 109.482 163.901 109.482 171.877C109.482 179.853 119.344 186.319 131.51 186.319Z" fill="#707070"/>
</g>
<path d="M131.107 149.957L116.389 159.301C115.259 160.019 114.563 161.344 114.563 162.779V170.029C114.563 171.376 115.177 172.634 116.2 173.378L130.853 184.036C132.003 184.873 133.484 184.926 134.681 184.173L149.664 174.753C150.801 174.038 151.503 172.708 151.503 171.267V163.949C151.503 162.581 150.87 161.307 149.822 160.568L134.905 150.053C133.755 149.243 132.29 149.205 131.107 149.957Z" fill="#3C7FBE"/>
<path d="M131.107 149.957L116.389 159.301C115.259 160.019 114.563 161.344 114.563 162.779V170.029C114.563 171.376 115.177 172.634 116.2 173.378L130.853 184.036C132.003 184.873 133.484 184.926 134.681 184.173L149.664 174.753C150.801 174.038 151.503 172.708 151.503 171.267V163.949C151.503 162.581 150.87 161.307 149.822 160.568L134.905 150.053C133.755 149.243 132.29 149.205 131.107 149.957Z" fill="url(#paint17_linear_1_662)"/>
<path d="M118.623 158.867L132.083 150.322C132.666 149.951 133.39 149.97 133.957 150.37L147.514 159.926C148.655 160.73 148.611 162.58 147.433 163.318L133.974 171.742C133.395 172.105 132.681 172.087 132.118 171.695L118.56 162.259C117.415 161.462 117.449 159.613 118.623 158.867Z" fill="white"/>
<path d="M119.367 158.912L132.122 150.886C132.675 150.538 133.361 150.555 133.898 150.931L146.746 159.906C147.828 160.662 147.786 162.399 146.669 163.092L133.915 171.004C133.366 171.345 132.689 171.328 132.156 170.96L119.308 162.097C118.222 161.349 118.254 159.612 119.367 158.912Z" fill="url(#paint18_linear_1_662)"/>
<path d="M123.125 164.731L133.033 158.365L142.838 165.469L146.669 163.092C146.669 163.092 148.198 162.325 148.025 161.426C147.851 160.526 147.851 160.526 147.851 160.526L133.574 150.371C133.574 150.371 133.412 149.858 130.973 151.359C128.533 152.86 118.633 159.166 118.633 159.166C118.633 159.166 117.456 160.475 118.633 161.928C119.811 163.38 123.125 164.731 123.125 164.731Z" fill="url(#paint19_linear_1_662)"/>
<path d="M140.319 161.226C140.319 156.942 137.123 153.669 133.181 153.669C129.238 153.669 126.042 157.142 126.042 161.426C126.042 165.71 129.238 169.182 133.181 169.182C137.123 169.183 140.319 165.51 140.319 161.226Z" fill="url(#paint20_linear_1_662)"/>
<path d="M136.668 164.25C136.665 164.245 136.662 164.243 136.662 164.243L135.324 161.059C135.324 160.857 134.35 160.692 133.149 160.692C131.947 160.692 130.973 160.857 130.973 161.059L129.405 164.22C129.363 164.26 129.34 164.301 129.34 164.343C129.34 164.707 130.989 165.002 133.023 165.002C135.057 165.002 136.705 164.707 136.705 164.343C136.705 164.312 136.692 164.281 136.668 164.25Z" fill="white"/>
<path d="M136.663 164.243C136.39 163.6 134.892 160.06 134.719 159.56C134.578 159.153 134.552 158.876 134.549 158.758V156.568H134.547C134.548 156.565 134.549 156.561 134.549 156.557C134.549 156.395 133.937 156.264 133.182 156.264C132.426 156.264 131.814 156.395 131.814 156.557C131.814 156.561 131.815 156.565 131.816 156.568H131.814V158.696H131.813C131.7 159.786 129.784 163.497 129.406 164.221C129.363 164.261 129.341 164.302 129.341 164.344C129.341 164.708 130.99 165.003 133.023 165.003C135.057 165.003 136.706 164.708 136.706 164.344C136.706 164.31 136.691 164.276 136.663 164.243Z" fill="white"/>
<path d="M133.181 156.85C133.936 156.85 134.548 156.718 134.548 156.556C134.548 156.394 133.936 156.263 133.181 156.263C132.426 156.263 131.814 156.394 131.814 156.556C131.814 156.718 132.426 156.85 133.181 156.85Z" fill="white"/>
<path d="M133.148 161.426C134.35 161.426 135.324 161.262 135.324 161.059C135.324 160.857 134.35 160.693 133.148 160.693C131.947 160.693 130.973 160.857 130.973 161.059C130.973 161.262 131.947 161.426 133.148 161.426Z" fill="white"/>
<path d="M133.022 165.002C135.056 165.002 136.705 164.707 136.705 164.343C136.705 163.979 135.056 163.685 133.022 163.685C130.989 163.685 129.34 163.979 129.34 164.343C129.34 164.707 130.989 165.002 133.022 165.002Z" fill="white"/>
<path d="M140.319 161.226C140.319 156.942 137.123 153.669 133.181 153.669C129.238 153.669 126.042 157.142 126.042 161.426C126.042 165.71 129.238 169.182 133.181 169.182C137.123 169.183 140.319 165.51 140.319 161.226Z" fill="url(#paint21_linear_1_662)"/>
<g opacity="0.44">
<path opacity="0.44" d="M172.901 159.385C185.066 159.385 194.928 152.919 194.928 144.943C194.928 136.967 185.066 130.502 172.901 130.502C160.735 130.502 150.873 136.967 150.873 144.943C150.873 152.919 160.735 159.385 172.901 159.385Z" fill="#707070"/>
</g>
<path d="M171.245 123.831L156.526 133.176C155.396 133.893 154.7 135.219 154.7 136.654V143.903C154.7 145.251 155.315 146.509 156.337 147.253L170.991 157.911C172.141 158.747 173.621 158.8 174.819 158.047L189.802 148.628C190.939 147.913 191.641 146.582 191.641 145.141V137.824C191.641 136.456 191.008 135.182 189.96 134.443L175.043 123.928C173.893 123.117 172.428 123.08 171.245 123.831Z" fill="#3C7FBE"/>
<path d="M172.499 123.023L157.78 132.367C156.65 133.085 155.954 134.411 155.954 135.845V143.095C155.954 144.443 156.569 145.701 157.591 146.444L172.244 157.102C173.394 157.939 174.875 157.992 176.072 157.239L191.055 147.82C192.193 147.105 192.895 145.774 192.895 144.333V137.016C192.895 135.648 192.261 134.374 191.214 133.635L176.296 123.12C175.146 122.309 173.681 122.272 172.499 123.023Z" fill="url(#paint22_linear_1_662)"/>
<path d="M158.761 132.742L172.22 124.196C172.804 123.826 173.527 123.844 174.095 124.244L187.652 133.8C188.793 134.605 188.749 136.455 187.571 137.192L174.112 145.617C173.533 145.979 172.819 145.961 172.256 145.569L158.698 136.133C157.553 135.336 157.587 133.487 158.761 132.742Z" fill="white"/>
<path d="M159.505 132.786L172.26 124.76C172.813 124.412 173.498 124.429 174.036 124.805L186.884 133.78C187.965 134.536 187.923 136.273 186.807 136.966L174.052 144.879C173.504 145.219 172.827 145.202 172.293 144.834L159.445 135.972C158.36 135.223 158.392 133.486 159.505 132.786Z" fill="url(#paint23_linear_1_662)"/>
<path d="M163.263 138.605L173.17 132.24L182.975 139.343L186.807 136.966C186.807 136.966 188.336 136.199 188.162 135.3C187.989 134.401 187.989 134.401 187.989 134.401L173.712 124.245C173.712 124.245 173.55 123.733 171.11 125.233C168.671 126.734 158.771 133.04 158.771 133.04C158.771 133.04 157.594 134.35 158.771 135.802C159.948 137.255 163.263 138.605 163.263 138.605Z" fill="url(#paint24_linear_1_662)"/>
<path d="M180.457 135.1C180.457 130.816 177.261 127.543 173.318 127.543C169.376 127.543 166.18 131.016 166.18 135.3C166.18 139.584 169.376 143.057 173.318 143.057C177.261 143.057 180.457 139.384 180.457 135.1Z" fill="url(#paint25_linear_1_662)"/>
<path d="M176.806 138.125C176.803 138.12 176.8 138.117 176.8 138.117L175.462 134.933C175.462 134.731 174.488 134.567 173.286 134.567C172.085 134.567 171.111 134.731 171.111 134.933L169.543 138.094C169.501 138.134 169.478 138.175 169.478 138.217C169.478 138.581 171.127 138.876 173.161 138.876C175.194 138.876 176.843 138.581 176.843 138.217C176.843 138.186 176.83 138.155 176.806 138.125Z" fill="white"/>
<path d="M176.8 138.118C176.527 137.474 175.029 133.934 174.856 133.434C174.715 133.028 174.689 132.75 174.685 132.633V130.443H174.684C174.685 130.439 174.685 130.435 174.685 130.432C174.685 130.269 174.073 130.138 173.318 130.138C172.563 130.138 171.951 130.27 171.951 130.432C171.951 130.435 171.952 130.439 171.952 130.443H171.951V132.57H171.95C171.837 133.66 169.92 137.371 169.542 138.095C169.5 138.135 169.478 138.176 169.478 138.218C169.478 138.582 171.126 138.877 173.16 138.877C175.194 138.877 176.843 138.582 176.843 138.218C176.842 138.184 176.828 138.15 176.8 138.118Z" fill="white"/>
<path d="M173.318 130.724C174.074 130.724 174.686 130.593 174.686 130.431C174.686 130.269 174.074 130.137 173.318 130.137C172.563 130.137 171.951 130.269 171.951 130.431C171.951 130.593 172.563 130.724 173.318 130.724Z" fill="white"/>
<path d="M173.286 135.3C174.488 135.3 175.462 135.136 175.462 134.933C175.462 134.731 174.488 134.567 173.286 134.567C172.085 134.567 171.11 134.731 171.11 134.933C171.11 135.136 172.085 135.3 173.286 135.3Z" fill="white"/>
<path d="M173.16 138.876C175.194 138.876 176.843 138.581 176.843 138.217C176.843 137.854 175.194 137.559 173.16 137.559C171.126 137.559 169.478 137.854 169.478 138.217C169.478 138.581 171.126 138.876 173.16 138.876Z" fill="white"/>
<path d="M180.457 135.1C180.457 130.816 177.261 127.543 173.318 127.543C169.376 127.543 166.18 131.016 166.18 135.3C166.18 139.584 169.376 143.057 173.318 143.057C177.261 143.057 180.457 139.384 180.457 135.1Z" fill="url(#paint26_linear_1_662)"/>
<g opacity="0.44">
<path opacity="0.44" d="M213.668 133.101C225.834 133.101 235.696 126.635 235.696 118.66C235.696 110.684 225.834 104.218 213.668 104.218C201.503 104.218 191.641 110.684 191.641 118.66C191.641 126.635 201.503 133.101 213.668 133.101Z" fill="#707070"/>
</g>
<path d="M213.266 96.7391L198.547 106.084C197.417 106.801 196.721 108.127 196.721 109.562V116.811C196.721 118.159 197.336 119.417 198.359 120.161L213.012 130.819C214.162 131.655 215.643 131.708 216.84 130.956L231.823 121.536C232.96 120.821 233.662 119.49 233.662 118.05V110.732C233.662 109.364 233.029 108.09 231.981 107.351L217.064 96.8363C215.914 96.0255 214.449 95.9881 213.266 96.7391Z" fill="#3C7FBE"/>
<path d="M213.266 96.7391L198.547 106.084C197.417 106.801 196.721 108.127 196.721 109.562V116.811C196.721 118.159 197.336 119.417 198.359 120.161L213.012 130.819C214.162 131.655 215.643 131.708 216.84 130.956L231.823 121.536C232.96 120.821 233.662 119.49 233.662 118.05V110.732C233.662 109.364 233.029 108.09 231.981 107.351L217.064 96.8363C215.914 96.0255 214.449 95.9881 213.266 96.7391Z" fill="url(#paint27_linear_1_662)"/>
<path d="M200.782 105.65L214.241 97.1045C214.825 96.7339 215.548 96.7521 216.116 97.1522L229.673 106.708C230.814 107.513 230.77 109.363 229.592 110.1L216.133 118.525C215.554 118.888 214.84 118.869 214.277 118.477L200.719 109.041C199.574 108.244 199.608 106.395 200.782 105.65Z" fill="white"/>
<path d="M201.526 105.694L214.281 97.6681C214.834 97.32 215.519 97.3373 216.057 97.7131L228.905 106.689C229.987 107.444 229.945 109.181 228.828 109.874L216.074 117.787C215.525 118.127 214.848 118.11 214.315 117.742L201.466 108.88C200.381 108.131 200.413 106.394 201.526 105.694Z" fill="url(#paint28_linear_1_662)"/>
<path d="M205.284 111.513L215.192 105.148L224.997 112.251L228.828 109.874C228.828 109.874 230.357 109.107 230.184 108.208C230.01 107.309 230.01 107.309 230.01 107.309L215.733 97.1533C215.733 97.1533 215.571 96.6407 213.132 98.1416C210.692 99.6424 200.792 105.948 200.792 105.948C200.792 105.948 199.615 107.258 200.792 108.71C201.969 110.163 205.284 111.513 205.284 111.513Z" fill="url(#paint29_linear_1_662)"/>
<path d="M222.478 108.008C222.478 103.724 219.282 100.451 215.34 100.451C211.397 100.451 208.201 103.924 208.201 108.208C208.201 112.492 211.397 115.965 215.34 115.965C219.282 115.965 222.478 112.293 222.478 108.008Z" fill="url(#paint30_linear_1_662)"/>
<path d="M218.827 111.033C218.824 111.028 218.821 111.025 218.821 111.025L217.483 107.842C217.483 107.639 216.509 107.475 215.307 107.475C214.106 107.475 213.132 107.639 213.132 107.842L211.564 111.002C211.522 111.042 211.499 111.083 211.499 111.126C211.499 111.489 213.148 111.784 215.182 111.784C217.216 111.784 218.864 111.489 218.864 111.126C218.864 111.094 218.851 111.063 218.827 111.033Z" fill="white"/>
<path d="M218.822 111.026C218.549 110.382 217.051 106.842 216.878 106.343C216.737 105.936 216.711 105.658 216.707 105.541V103.351H216.706C216.707 103.347 216.707 103.343 216.707 103.34C216.707 103.178 216.095 103.046 215.34 103.046C214.585 103.046 213.973 103.178 213.973 103.34C213.973 103.343 213.974 103.347 213.975 103.351H213.973V105.478H213.972C213.859 106.568 211.942 110.279 211.564 111.003C211.522 111.043 211.5 111.084 211.5 111.126C211.5 111.49 213.149 111.785 215.182 111.785C217.216 111.785 218.865 111.49 218.865 111.126C218.865 111.092 218.85 111.059 218.822 111.026Z" fill="white"/>
<path d="M215.34 103.632C216.095 103.632 216.707 103.501 216.707 103.339C216.707 103.177 216.095 103.045 215.34 103.045C214.585 103.045 213.972 103.177 213.972 103.339C213.972 103.501 214.585 103.632 215.34 103.632Z" fill="white"/>
<path d="M215.307 108.208C216.509 108.208 217.483 108.044 217.483 107.842C217.483 107.639 216.509 107.475 215.307 107.475C214.106 107.475 213.132 107.639 213.132 107.842C213.132 108.044 214.106 108.208 215.307 108.208Z" fill="white"/>
<path d="M215.181 111.784C217.215 111.784 218.864 111.489 218.864 111.126C218.864 110.762 217.215 110.467 215.181 110.467C213.147 110.467 211.499 110.762 211.499 111.126C211.499 111.489 213.147 111.784 215.181 111.784Z" fill="white"/>
<path d="M222.478 108.008C222.478 103.724 219.282 100.451 215.34 100.451C211.397 100.451 208.201 103.924 208.201 108.208C208.201 112.492 211.397 115.965 215.34 115.965C219.282 115.965 222.478 112.293 222.478 108.008Z" fill="url(#paint31_linear_1_662)"/>
<defs>
<linearGradient id="paint0_linear_1_662" x1="123.524" y1="185.256" x2="237.263" y2="185.256" gradientUnits="userSpaceOnUse">
<stop stop-color="#6B385F"/>
<stop offset="0.4197" stop-color="#6F3B62" stop-opacity="0.7323"/>
<stop offset="0.5218" stop-color="#764268" stop-opacity="0.6035"/>
<stop offset="0.6937" stop-color="#8C567A" stop-opacity="0.3865"/>
<stop offset="0.9131" stop-color="#B5799B" stop-opacity="0.1096"/>
<stop offset="1" stop-color="#CC8DAE" stop-opacity="0"/>
</linearGradient>
<linearGradient id="paint1_linear_1_662" x1="113.406" y1="137.41" x2="121.703" y2="137.41" gradientUnits="userSpaceOnUse">
<stop stop-color="#6B385F"/>
<stop offset="0.4197" stop-color="#6F3B62" stop-opacity="0.7323"/>
<stop offset="0.5218" stop-color="#764268" stop-opacity="0.6035"/>
<stop offset="0.6937" stop-color="#8C567A" stop-opacity="0.3865"/>
<stop offset="0.9131" stop-color="#B5799B" stop-opacity="0.1096"/>
<stop offset="1" stop-color="#CC8DAE" stop-opacity="0"/>
</linearGradient>
<linearGradient id="paint2_linear_1_662" x1="116.433" y1="124.671" x2="138.929" y2="124.671" gradientUnits="userSpaceOnUse">
<stop offset="0.2595" stop-color="#6B385F"/>
<stop offset="0.6487" stop-color="#6F3B62" stop-opacity="0.7323"/>
<stop offset="0.7105" stop-color="#764268" stop-opacity="0.6035"/>
<stop offset="0.8146" stop-color="#8C567A" stop-opacity="0.3865"/>
<stop offset="0.9474" stop-color="#B5799B" stop-opacity="0.1096"/>
<stop offset="1" stop-color="#CC8DAE" stop-opacity="0"/>
</linearGradient>
<linearGradient id="paint3_linear_1_662" x1="144.752" y1="98.1954" x2="148.343" y2="98.1954" gradientUnits="userSpaceOnUse">
<stop stop-color="#6B385F"/>
<stop offset="0.4197" stop-color="#6F3B62" stop-opacity="0.7323"/>
<stop offset="0.5218" stop-color="#764268" stop-opacity="0.6035"/>
<stop offset="0.6937" stop-color="#8C567A" stop-opacity="0.3865"/>
<stop offset="0.9131" stop-color="#B5799B" stop-opacity="0.1096"/>
<stop offset="1" stop-color="#CC8DAE" stop-opacity="0"/>
</linearGradient>
<linearGradient id="paint4_linear_1_662" x1="124.169" y1="130.676" x2="158.784" y2="130.676" gradientUnits="userSpaceOnUse">
<stop offset="0.1342" stop-color="#707070"/>
<stop offset="0.9351" stop-color="white" stop-opacity="0"/>
</linearGradient>
<linearGradient id="paint5_linear_1_662" x1="135.467" y1="119.541" x2="158.191" y2="119.541" gradientUnits="userSpaceOnUse">
<stop offset="0.3423" stop-color="#1D4989"/>
<stop offset="0.9818" stop-color="#2575AE" stop-opacity="0.4681"/>
<stop offset="1" stop-color="#29ABE2" stop-opacity="0"/>
</linearGradient>
<linearGradient id="paint6_linear_1_662" x1="126.506" y1="133.533" x2="145.836" y2="133.533" gradientUnits="userSpaceOnUse">
<stop offset="0.3423" stop-color="#1D4989"/>
<stop offset="1" stop-color="#29ABE2" stop-opacity="0"/>
</linearGradient>
<linearGradient id="paint7_linear_1_662" x1="127.623" y1="111.541" x2="144.71" y2="111.541" gradientUnits="userSpaceOnUse">
<stop offset="0.3423" stop-color="#1D4989"/>
<stop offset="1" stop-color="#29ABE2" stop-opacity="0"/>
</linearGradient>
<linearGradient id="paint8_linear_1_662" x1="112.632" y1="139.571" x2="124.573" y2="139.571" gradientUnits="userSpaceOnUse">
<stop offset="0.0607" stop-color="#28A8E0"/>
<stop offset="0.9984" stop-color="#29ABE2" stop-opacity="0"/>
</linearGradient>
<linearGradient id="paint9_linear_1_662" x1="57.6124" y1="126.882" x2="92.6231" y2="126.882" gradientUnits="userSpaceOnUse">
<stop offset="0.0607" stop-color="#28A8E0"/>
<stop offset="0.9984" stop-color="#29ABE2" stop-opacity="0"/>
</linearGradient>
<linearGradient id="paint10_linear_1_662" x1="59.6439" y1="130.354" x2="74.4605" y2="130.354" gradientUnits="userSpaceOnUse">
<stop offset="0.4247" stop-color="white"/>
<stop offset="1" stop-color="#2484C6" stop-opacity="0"/>
</linearGradient>
<linearGradient id="paint11_linear_1_662" x1="58.1868" y1="152.826" x2="66.5787" y2="152.826" gradientUnits="userSpaceOnUse">
<stop stop-color="#6B385F"/>
<stop offset="0.4197" stop-color="#6F3B62" stop-opacity="0.7323"/>
<stop offset="0.5218" stop-color="#764268" stop-opacity="0.6035"/>
<stop offset="0.6937" stop-color="#8C567A" stop-opacity="0.3865"/>
<stop offset="0.9131" stop-color="#B5799B" stop-opacity="0.1096"/>
<stop offset="1" stop-color="#CC8DAE" stop-opacity="0"/>
</linearGradient>
<linearGradient id="paint12_linear_1_662" x1="89.684" y1="158.205" x2="101.625" y2="158.205" gradientUnits="userSpaceOnUse">
<stop offset="0.0607" stop-color="#28A8E0"/>
<stop offset="0.9984" stop-color="#29ABE2" stop-opacity="0"/>
</linearGradient>
<linearGradient id="paint13_linear_1_662" x1="162.655" y1="86.6664" x2="182.409" y2="86.6664" gradientUnits="userSpaceOnUse">
<stop offset="0.0607" stop-color="#28A8E0"/>
<stop offset="0.9984" stop-color="#29ABE2" stop-opacity="0"/>
</linearGradient>
<linearGradient id="paint14_linear_1_662" x1="197.407" y1="118.833" x2="238.965" y2="118.833" gradientUnits="userSpaceOnUse">
<stop stop-color="#29ABE2" stop-opacity="0"/>
<stop offset="0.2747" stop-color="#20439C" stop-opacity="0.8757"/>
<stop offset="0.7514" stop-color="#21409A"/>
</linearGradient>
<linearGradient id="paint15_linear_1_662" x1="192.789" y1="57.4073" x2="303.612" y2="57.4073" gradientUnits="userSpaceOnUse">
<stop offset="0.0607" stop-color="#28A8E0"/>
<stop offset="0.9984" stop-color="#29ABE2" stop-opacity="0"/>
</linearGradient>
<linearGradient id="paint16_linear_1_662" x1="192.789" y1="67.6226" x2="303.612" y2="67.6226" gradientUnits="userSpaceOnUse">
<stop offset="0.0607" stop-color="#28A8E0"/>
<stop offset="0.9984" stop-color="#29ABE2" stop-opacity="0"/>
</linearGradient>
<linearGradient id="paint17_linear_1_662" x1="114.562" y1="167.06" x2="151.504" y2="167.06" gradientUnits="userSpaceOnUse">
<stop offset="0.3062" stop-color="#29ABE2" stop-opacity="0"/>
<stop offset="0.6875" stop-color="#28A8E0" stop-opacity="0.8614"/>
<stop offset="0.9037" stop-color="#28A8E0"/>
</linearGradient>
<linearGradient id="paint18_linear_1_662" x1="118.513" y1="160.942" x2="147.532" y2="160.942" gradientUnits="userSpaceOnUse">
<stop stop-color="white"/>
<stop offset="0.9052" stop-color="#2484C6" stop-opacity="0"/>
</linearGradient>
<linearGradient id="paint19_linear_1_662" x1="118.11" y1="157.878" x2="148.038" y2="157.878" gradientUnits="userSpaceOnUse">
<stop offset="0.3423" stop-color="#1D4989"/>
<stop offset="1" stop-color="#29ABE2" stop-opacity="0"/>
</linearGradient>
<linearGradient id="paint20_linear_1_662" x1="126.042" y1="161.426" x2="140.319" y2="161.426" gradientUnits="userSpaceOnUse">
<stop stop-color="#BD8AAE"/>
<stop offset="1" stop-color="#2484C6" stop-opacity="0"/>
</linearGradient>
<linearGradient id="paint21_linear_1_662" x1="126.042" y1="161.426" x2="140.319" y2="161.426" gradientUnits="userSpaceOnUse">
<stop offset="0.3062" stop-color="#29ABE2" stop-opacity="0"/>
<stop offset="0.6875" stop-color="#28A8E0" stop-opacity="0.8614"/>
<stop offset="0.9037" stop-color="#28A8E0"/>
</linearGradient>
<linearGradient id="paint22_linear_1_662" x1="155.954" y1="140.127" x2="192.895" y2="140.127" gradientUnits="userSpaceOnUse">
<stop offset="0.3062" stop-color="#29ABE2" stop-opacity="0"/>
<stop offset="0.6875" stop-color="#28A8E0" stop-opacity="0.8614"/>
<stop offset="0.9037" stop-color="#28A8E0"/>
</linearGradient>
<linearGradient id="paint23_linear_1_662" x1="158.65" y1="134.817" x2="187.67" y2="134.817" gradientUnits="userSpaceOnUse">
<stop stop-color="white"/>
<stop offset="0.9052" stop-color="#2484C6" stop-opacity="0"/>
</linearGradient>
<linearGradient id="paint24_linear_1_662" x1="158.248" y1="131.752" x2="188.176" y2="131.752" gradientUnits="userSpaceOnUse">
<stop offset="0.3423" stop-color="#1D4989"/>
<stop offset="1" stop-color="#29ABE2" stop-opacity="0"/>
</linearGradient>
<linearGradient id="paint25_linear_1_662" x1="166.18" y1="135.3" x2="180.457" y2="135.3" gradientUnits="userSpaceOnUse">
<stop stop-color="#BD8AAE"/>
<stop offset="1" stop-color="#2484C6" stop-opacity="0"/>
</linearGradient>
<linearGradient id="paint26_linear_1_662" x1="166.18" y1="135.3" x2="180.457" y2="135.3" gradientUnits="userSpaceOnUse">
<stop offset="0.3062" stop-color="#29ABE2" stop-opacity="0"/>
<stop offset="0.6875" stop-color="#28A8E0" stop-opacity="0.8614"/>
<stop offset="0.9037" stop-color="#28A8E0"/>
</linearGradient>
<linearGradient id="paint27_linear_1_662" x1="196.721" y1="113.843" x2="233.662" y2="113.843" gradientUnits="userSpaceOnUse">
<stop offset="0.3062" stop-color="#29ABE2" stop-opacity="0"/>
<stop offset="0.6875" stop-color="#28A8E0" stop-opacity="0.8614"/>
<stop offset="0.9037" stop-color="#28A8E0"/>
</linearGradient>
<linearGradient id="paint28_linear_1_662" x1="200.671" y1="107.725" x2="229.691" y2="107.725" gradientUnits="userSpaceOnUse">
<stop stop-color="white"/>
<stop offset="0.9052" stop-color="#2484C6" stop-opacity="0"/>
</linearGradient>
<linearGradient id="paint29_linear_1_662" x1="200.269" y1="104.66" x2="230.197" y2="104.66" gradientUnits="userSpaceOnUse">
<stop offset="0.3423" stop-color="#1D4989"/>
<stop offset="1" stop-color="#29ABE2" stop-opacity="0"/>
</linearGradient>
<linearGradient id="paint30_linear_1_662" x1="208.201" y1="108.208" x2="222.478" y2="108.208" gradientUnits="userSpaceOnUse">
<stop stop-color="#BD8AAE"/>
<stop offset="1" stop-color="#2484C6" stop-opacity="0"/>
</linearGradient>
<linearGradient id="paint31_linear_1_662" x1="208.201" y1="108.208" x2="222.478" y2="108.208" gradientUnits="userSpaceOnUse">
<stop offset="0.3062" stop-color="#29ABE2" stop-opacity="0"/>
<stop offset="0.6875" stop-color="#28A8E0" stop-opacity="0.8614"/>
<stop offset="0.9037" stop-color="#28A8E0"/>
</linearGradient>
</defs>
</svg>
