<svg width="570" height="471" viewBox="0 0 570 471" fill="none" xmlns="http://www.w3.org/2000/svg">
<path d="M222.52 340.374C206.246 330.492 206.09 314.222 222.175 304.219C238.258 294.216 264.169 294.132 279.754 304.033C295.339 313.934 295.495 330.204 280.1 340.188C264.705 350.172 238.794 350.256 222.52 340.374Z" fill="#E7F6FD"/>
<path d="M299.566 276.86C286.805 269.111 286.683 256.354 299.295 248.511C311.906 240.667 332.223 240.602 344.443 248.365C356.663 256.128 356.785 268.885 344.714 276.714C332.643 284.543 312.326 284.608 299.566 276.86Z" fill="#E7F6FD"/>
<g opacity="0.46">
<path opacity="0.46" d="M227.285 207.249L165.997 246.185C163.675 247.661 160.774 245.811 160.774 242.854V221.924C160.774 220.549 161.44 219.279 162.52 218.593L223.808 179.656C226.13 178.18 229.031 180.03 229.031 182.987V203.917C229.03 205.292 228.365 206.562 227.285 207.249Z" fill="#CDE9F9"/>
</g>
<g opacity="0.46">
<path opacity="0.46" d="M303.031 174.956L241.743 213.892C239.421 215.368 236.52 213.518 236.52 210.561V189.631C236.52 188.256 237.186 186.986 238.266 186.3L299.554 147.363C301.876 145.887 304.777 147.737 304.777 150.694V171.624C304.777 172.999 304.111 174.27 303.031 174.956Z" fill="#CDE9F9"/>
</g>
<g opacity="0.46">
<path opacity="0.46" d="M308.761 132.734L247.473 171.671C245.151 173.147 242.25 171.297 242.25 168.34V147.41C242.25 146.035 242.916 144.764 243.996 144.078L305.284 105.142C307.606 103.666 310.507 105.516 310.507 108.473V129.403C310.506 130.778 309.841 132.048 308.761 132.734Z" fill="#CDE9F9"/>
</g>
<g opacity="0.49">
<path opacity="0.49" d="M352.837 113.175V162.916C352.837 165.347 354.013 167.594 355.922 168.811L416.249 207.255C420.363 209.876 425.506 206.601 425.506 201.36V151.34C425.506 148.901 424.323 146.648 422.405 145.434L362.077 107.269C357.964 104.667 352.837 107.943 352.837 113.175Z" fill="#E7F6FD"/>
</g>
<g opacity="0.49">
<path opacity="0.49" d="M346.716 118.779V168.52C346.716 170.951 347.892 173.198 349.8 174.414L410.128 212.859C414.241 215.48 419.384 212.205 419.384 206.964V156.944C419.384 154.505 418.201 152.252 416.283 151.038L355.955 112.873C351.842 110.27 346.716 113.547 346.716 118.779Z" fill="url(#paint0_linear_1_1802)"/>
</g>
<path d="M392.382 147.687C389.562 145.809 387.048 146.377 386.128 147.989C385.962 148.279 385.543 148.031 385.363 147.521C384.418 144.838 381.972 140.755 379.193 138.904C377.366 137.688 375.706 137.509 374.447 138.18L374.44 138.17L374.292 138.264C374.229 138.303 373.638 138.675 373.578 138.717L365.799 143.65C365.799 143.65 371.92 166.34 372.09 167.34C372.26 168.339 379.621 181.935 379.621 181.935L387.64 176.846C387.734 176.801 387.825 176.746 387.909 176.676L396.887 169.177C398.536 167.785 399.446 165.178 399.446 161.851C399.447 156.626 396.284 150.285 392.382 147.687Z" fill="url(#paint1_linear_1_1802)"/>
<path d="M373.324 138.187C373.368 138.155 373.983 137.768 374.048 137.727L374.588 137.386C375.989 136.843 377.721 137.225 379.456 138.379C382.246 140.238 384.785 144.27 385.85 147.293C385.859 147.318 385.869 147.342 385.879 147.362C387.03 145.777 389.678 145.185 392.645 147.162C396.685 149.852 399.972 156.441 399.972 161.851C399.972 165.38 398.986 168.155 397.196 169.665L388.217 177.166C388.109 177.256 387.987 177.334 387.845 177.404L379.438 182.741L379.175 182.255C377.437 179.043 371.749 168.485 371.575 167.454C371.455 166.746 367.754 152.937 365.298 143.829L365.171 143.357L373.324 138.187ZM372.606 167.222C372.814 168.035 377.022 175.98 379.803 181.128L387.388 176.315C387.504 176.255 387.558 176.221 387.601 176.185L396.579 168.686C398.088 167.412 398.921 164.984 398.921 161.851C398.921 156.828 395.87 150.71 392.12 148.212C389.537 146.492 387.329 146.985 386.568 148.322C386.504 148.433 386.419 148.515 386.326 148.581L389.492 153.688L384.174 160.018L375.069 162.094C375.069 162.094 371.568 154.976 371.568 153.537C371.568 152.098 373.03 146.048 373.03 146.048L380.641 140.902C380.088 140.328 379.514 139.818 378.931 139.429C377.333 138.365 375.818 138.116 374.668 138.73L374.545 138.795C374.476 138.837 373.924 139.185 373.85 139.236L366.429 143.942C367.459 147.765 372.444 166.27 372.606 167.222Z" fill="url(#paint2_linear_1_1802)"/>
<path d="M392.341 147.82C390.451 146.561 388.711 146.418 387.483 146.935L387.47 146.92L387.356 146.993C387.113 147.108 386.894 147.248 386.699 147.414L379.397 152.098L375.616 165.761L379.395 181.305C379.49 181.694 379.874 181.881 380.182 181.686L387.6 176.979C387.694 176.933 387.785 176.879 387.869 176.808L396.847 169.309C398.496 167.917 399.406 165.311 399.406 161.984C399.406 156.76 396.243 150.419 392.341 147.82Z" fill="url(#paint3_linear_1_1802)"/>
<path d="M378.96 151.684L386.444 146.885C386.612 146.734 386.872 146.567 387.156 146.432L387.546 146.178L387.614 146.249C389.084 145.773 390.881 146.147 392.604 147.296C396.644 149.986 399.931 156.575 399.931 161.984C399.931 165.513 398.945 168.289 397.156 169.798L388.176 177.299C388.069 177.389 387.947 177.467 387.804 177.537L380.435 182.217C380.307 182.298 380.169 182.337 380.029 182.354L379.928 182.425L379.912 182.367C379.774 182.366 379.637 182.337 379.506 182.273C379.203 182.127 378.977 181.835 378.888 181.469L375.068 165.749L378.96 151.684ZM392.079 148.345C390.501 147.294 388.892 146.988 387.662 147.504L387.573 147.541C387.333 147.661 387.161 147.774 387.012 147.9L379.834 152.51L376.164 165.772L379.003 177.454L383.123 173.529L388.827 158.989L396.709 153.884C395.494 151.556 393.868 149.537 392.079 148.345Z" fill="url(#paint4_linear_1_1802)"/>
<path d="M378.763 182.046C377.673 182.046 376.333 180.793 375.505 178.999L366.533 159.548C364.886 155.977 363.979 152.193 363.979 148.893C363.979 145.406 365.417 143.24 367.732 143.24C368.689 143.24 369.725 143.607 370.812 144.331C373.438 146.08 375.914 150.026 376.909 152.851C377.057 153.273 377.359 153.567 377.642 153.567C377.787 153.567 377.911 153.491 377.989 153.352C378.493 152.47 379.467 151.965 380.663 151.965C381.717 151.965 382.872 152.362 384.001 153.115C387.849 155.677 390.979 161.955 390.979 167.11C390.979 170.378 390.095 172.925 388.49 174.281L379.513 181.779C379.301 181.956 379.049 182.046 378.763 182.046Z" fill="url(#paint5_linear_1_1802)"/>
<path d="M367.732 143.044L367.732 143.436C368.644 143.436 369.677 143.804 370.721 144.499C373.313 146.225 375.759 150.128 376.743 152.922C376.92 153.425 377.282 153.763 377.642 153.763C377.847 153.763 378.029 153.652 378.14 153.457C378.61 152.633 379.53 152.161 380.663 152.161C381.685 152.161 382.808 152.548 383.91 153.282C387.711 155.813 390.803 162.016 390.803 167.11C390.803 170.316 389.943 172.808 388.384 174.124L379.407 181.622C379.226 181.774 379.009 181.851 378.763 181.851C377.753 181.851 376.45 180.614 375.664 178.911L366.692 159.459C365.057 155.916 364.157 152.163 364.157 148.893C364.157 145.527 365.527 143.436 367.732 143.436V143.044ZM367.732 143.044C365.402 143.044 363.802 145.187 363.802 148.893C363.802 152.221 364.717 156.042 366.375 159.636L375.347 179.088C376.233 181.009 377.645 182.242 378.763 182.242C379.078 182.242 379.37 182.144 379.621 181.934L388.598 174.435C390.247 173.043 391.157 170.438 391.157 167.11C391.157 161.886 387.994 155.545 384.093 152.947C382.854 152.121 381.674 151.768 380.663 151.768C379.372 151.768 378.355 152.344 377.839 153.248C377.791 153.332 377.721 153.371 377.642 153.371C377.449 153.371 377.201 153.141 377.074 152.78C376.129 150.097 373.683 146.014 370.904 144.163C369.764 143.404 368.687 143.044 367.732 143.044Z" fill="white"/>
<path d="M378.765 182.848C378.58 182.848 378.387 182.822 378.189 182.769C376.966 182.442 375.699 181.141 374.883 179.372L365.911 159.921C364.213 156.238 363.277 152.321 363.277 148.893C363.277 146.14 364.109 144.071 365.619 143.065C367.13 142.059 369.099 142.262 371.167 143.639C373.957 145.497 376.496 149.529 377.561 152.552C377.57 152.578 377.58 152.601 377.59 152.622C378.741 151.037 381.389 150.445 384.356 152.422C388.396 155.113 391.682 161.701 391.682 167.11C391.682 170.64 390.697 173.415 388.908 174.925L388.906 174.926L379.928 182.426C379.593 182.706 379.197 182.848 378.765 182.848ZM367.735 143.647C367.149 143.647 366.613 143.802 366.144 144.114C364.973 144.894 364.328 146.592 364.328 148.893C364.328 152.126 365.219 155.841 366.839 159.352L375.811 178.803C376.478 180.249 377.505 181.343 378.426 181.589C378.783 181.684 379.083 181.637 379.313 181.443L388.289 173.945C389.8 172.669 390.632 170.242 390.632 167.11C390.632 162.087 387.581 155.969 383.831 153.471C381.248 151.751 379.041 152.243 378.279 153.581C378.119 153.859 377.845 154 377.562 153.973C377.161 153.927 376.779 153.548 376.589 153.009C375.615 150.247 373.2 146.391 370.642 144.688C369.605 143.997 368.613 143.647 367.735 143.647Z" fill="url(#paint6_linear_1_1802)"/>
<path d="M352.465 267.25V273.483C352.465 275.018 353.208 276.437 354.413 277.205L371.217 287.909C372.74 288.88 374.617 288.88 376.141 287.909L439.004 247.864C440.21 247.095 440.953 245.676 440.953 244.139V237.612C440.953 237.612 419.016 238.247 414.387 240.545C409.759 242.842 352.465 267.25 352.465 267.25Z" fill="url(#paint7_linear_1_1802)"/>
<path d="M353.471 269.153L369.684 279.515C372.155 281.094 375.203 281.097 377.677 279.521L439.697 240.012C441.371 238.946 441.371 236.279 439.696 235.214L425.663 226.284C422.276 224.129 418.104 224.13 414.718 226.287L353.473 265.302C352.13 266.157 352.129 268.296 353.471 269.153Z" fill="#E7F6FD"/>
<path d="M373.685 280.505C372.313 280.505 370.96 280.105 369.773 279.346L353.56 268.984C352.985 268.616 352.643 267.96 352.643 267.228C352.643 266.495 352.987 265.838 353.562 265.472L414.807 226.457C416.442 225.415 418.305 224.865 420.193 224.865C422.08 224.865 423.941 225.414 425.575 226.454L439.608 235.384C440.339 235.849 440.775 236.682 440.775 237.613C440.775 238.544 440.339 239.377 439.609 239.843L377.588 279.352C376.403 280.107 375.054 280.506 373.686 280.506C373.686 280.505 373.686 280.505 373.685 280.505Z" fill="url(#paint8_linear_1_1802)"/>
<path d="M420.193 225.06C422.049 225.06 423.879 225.601 425.486 226.623L439.519 235.553C440.194 235.983 440.597 236.753 440.597 237.613C440.597 238.473 440.195 239.243 439.519 239.673L377.499 279.182C376.341 279.92 375.022 280.31 373.685 280.31C372.344 280.31 371.022 279.918 369.862 279.176L353.649 268.815C353.13 268.483 352.82 267.89 352.82 267.228C352.821 266.565 353.131 265.973 353.651 265.642L414.896 226.626C416.504 225.602 418.336 225.06 420.193 225.06ZM420.193 224.668C418.302 224.668 416.412 225.208 414.718 226.287L353.474 265.302C352.131 266.158 352.129 268.296 353.471 269.154L369.684 279.515C370.921 280.306 372.303 280.702 373.685 280.702C375.063 280.702 376.442 280.308 377.677 279.522L439.697 240.012C441.371 238.946 441.371 236.28 439.696 235.214L425.663 226.284C423.971 225.207 422.082 224.668 420.193 224.668Z" fill="white"/>
<path d="M257.769 173.78C257.769 173.78 255.859 173.461 255.57 172.121C255.281 170.781 255.281 169.504 255.05 168.93C254.818 168.356 255.735 168.198 256.091 169.249C256.447 170.3 256.447 170.3 256.447 170.3C256.447 170.3 256.247 165.973 256.391 165.42C256.535 164.866 256.984 164.758 257.106 165.599C257.229 166.441 257.229 167.079 257.229 167.079C257.229 167.079 257.614 164.554 257.769 164.455C257.923 164.356 258.27 164.143 258.27 165.292C258.27 166.441 258.27 166.738 258.27 166.738C258.27 166.738 258.548 164.681 258.902 164.455C259.257 164.229 259.35 164.824 259.311 165.717C259.272 166.611 259.319 166.909 259.319 166.909C259.319 166.909 259.736 164.739 260.121 164.824C260.507 164.909 260.468 166.228 260.353 167.334C260.237 168.441 260.468 170.568 260.623 171.164C260.777 171.759 261.201 172.738 260.121 173.461C259.041 174.185 257.769 173.78 257.769 173.78Z" fill="#FDE0D9"/>
<path d="M218.703 194.093C218.703 194.093 216.746 190.663 216.645 189.401C216.544 188.14 216.09 185.63 216.645 185.63C217.199 185.63 217.539 187.757 217.539 187.757C217.539 187.757 217.878 185.63 217.539 184.779C217.199 183.928 218.009 182.822 218.51 184.055C219.012 185.289 219.012 186.906 219.012 186.906C219.012 186.906 219.783 185.252 219.59 183.505C219.397 181.758 220.531 182.316 220.708 183.505C220.886 184.694 221.094 186.055 221.094 186.055C221.094 186.055 221.403 185.204 221.518 184.353C221.634 183.502 222.444 182.949 222.328 184.609C222.213 186.268 221.965 187.374 222.34 187.885C222.714 188.395 223.955 187.672 224.01 186.991C224.064 186.31 224.797 186.948 224.372 188.438C223.948 189.927 223.794 192.692 222.945 192.99C222.096 193.288 218.703 194.093 218.703 194.093Z" fill="#FDE0D9"/>
<path d="M253.087 189.033C252.718 191.792 251.099 194.323 249.813 195.945C248.908 197.1 248.165 197.798 248.165 197.798L246.177 208.458L245.967 209.583C245.967 209.583 246.56 211.205 247.228 213.912C248.158 217.658 249.234 223.48 249.089 229.948V229.976C248.986 234.552 248.275 239.449 246.468 244.158C243.485 251.936 236.979 254.839 230.818 254.702C227.018 254.619 223.35 253.385 220.719 251.43C218.734 249.953 217.342 248.069 216.93 245.961C215.079 236.511 221.621 237.028 228.961 222.477C232.011 216.431 232.324 212.208 231.681 208.823C230.783 204.059 227.995 200.964 228.29 196.818C228.794 189.731 238.261 180.943 244.888 180.794C250.008 180.677 252.487 182.839 253.059 186.009C253.23 186.941 253.23 187.96 253.087 189.033Z" fill="#A17194"/>
<path d="M249.089 229.948V229.976C248.986 234.552 248.276 239.449 246.468 244.158C243.485 251.936 236.98 254.839 230.818 254.702C225.989 252.073 224.355 244.644 229.824 237.028C238.904 224.389 233.858 207.201 235.904 202.307C237.945 197.414 243.404 197.312 243.404 197.312L244.696 202.053C244.696 202.053 245.36 204.552 246.177 208.458C246.514 210.065 246.877 211.906 247.228 213.912C248.066 218.684 248.847 224.369 249.089 229.948Z" fill="url(#paint9_linear_1_1802)"/>
<path d="M253.087 189.033C252.718 191.792 251.098 194.323 249.813 195.945C249.497 194.965 249.497 193.5 249.497 193.5C249.497 193.5 251.5 188.285 251.23 185.331C251.102 183.909 252.228 184.398 253.059 186.009C253.229 186.941 253.229 187.96 253.087 189.033Z" fill="url(#paint10_linear_1_1802)"/>
<path d="M220.555 238.548C217.686 242.846 219.064 247.927 220.719 251.43C218.734 249.953 217.342 248.069 216.93 245.961C215.079 236.511 221.621 237.028 228.961 222.477C232.011 216.431 232.324 212.208 231.681 208.823C232.278 210.186 232.761 212.212 232.665 215.146C232.43 222.144 225.492 231.155 220.555 238.548Z" fill="url(#paint11_linear_1_1802)"/>
<path d="M249.4 319.234C249.4 319.234 252.695 325.41 254.384 327.394C256.074 329.378 249.924 331.769 247.271 327.394C244.618 323.019 241.533 322.197 244.232 319.234C246.931 316.272 249.4 319.234 249.4 319.234Z" fill="#222457"/>
<path d="M242.858 305.07C242.858 305.07 241.778 307.845 244.092 313.23C244.092 313.23 244.205 316.478 242.606 315.484C241.007 314.491 239.837 312.625 237.954 310.372C236.07 308.119 233.57 305.579 238.6 301.975C243.629 298.372 242.858 305.07 242.858 305.07Z" fill="#222457"/>
<path d="M258.902 247.767C258.902 247.767 268.744 267.072 268.744 271.531C268.744 274.993 250.634 296.492 246.007 302.915L242.425 306.989C241.928 306.982 237.893 305.905 238.834 301.746C238.834 301.746 252.695 278.253 254.491 271.102C256.287 263.951 248.342 253.205 248.342 253.205C248.342 253.205 249.338 246.318 258.902 247.767Z" fill="#222457"/>
<path d="M264.721 278.436C264.717 286.594 252.579 318.321 251.18 321.976C251.18 321.976 247.008 323.316 244.231 319.234C244.231 319.234 249.469 302.775 251.599 292.098C251.812 291.033 251.997 290.022 252.139 289.093C253.709 278.867 235.193 260.806 240.3 253.957C240.342 253.899 240.388 253.84 240.431 253.785C245.555 247.175 254.337 251.328 254.337 251.328C254.337 251.328 264.725 271.2 264.721 278.436Z" fill="#2A2F6D"/>
<path d="M252.139 289.093C253.709 278.867 235.193 260.806 240.3 253.957C240.342 253.899 240.388 253.84 240.431 253.785C241.649 254.126 242.611 254.71 242.611 254.71C242.611 254.71 242.998 257.961 245.388 261.962C247.782 265.958 253.641 274.468 253.719 282.554C253.762 287.162 252.604 290.272 251.599 292.098C251.813 291.033 251.997 290.022 252.139 289.093Z" fill="url(#paint12_linear_1_1802)"/>
<path d="M235.64 216.321L252.118 205.825C252.118 205.825 256.602 202.353 257.993 194.672L258.308 192.055L256.832 173.184C256.832 173.184 258.579 171.659 260.973 173.184C260.973 173.184 264.841 186.902 264.718 194.414C264.594 201.926 257.768 216.222 258.231 218.774C258.694 221.327 260.122 221.89 260.681 224.864C261.239 227.837 260.131 227.921 258.903 232.858C257.322 239.21 258.903 247.749 258.903 247.749C258.903 247.749 260.063 257.499 241.437 256.599L239.739 256.025C239.381 255.904 239.138 255.536 239.144 255.123L240.025 242.835V237.155L239.49 229.054C239.49 229.054 227.439 224.551 223.524 221.838C219.609 219.125 220.4 207.59 219.128 201.503C217.855 195.416 218.195 194.093 218.195 194.093C218.195 194.093 219.359 191.331 221.673 191.331C223.987 191.331 223.987 191.331 223.987 191.331C223.987 191.331 225.671 207.037 227.374 211.055C229.078 215.073 231.907 217.698 235.64 216.321Z" fill="#3C7FBE"/>
<path d="M246.102 256.59C244.703 256.672 243.155 256.68 241.436 256.598L239.738 256.026C239.38 255.904 239.138 255.536 239.142 255.121L240.026 242.834V237.153L239.49 229.055C239.49 229.055 227.437 224.549 223.524 221.838C220.79 219.942 220.349 213.752 219.902 208.118C220.811 210.833 222.135 213.998 224.01 216.859C228.467 223.668 239.991 224.518 242.604 224.687C245.218 224.859 245.544 235.241 244.618 241.878C243.908 246.976 245.378 253.73 246.102 256.59Z" fill="#164998"/>
<path d="M256.227 200.227C255.467 202.625 254.064 206.531 252.754 207.542C250.825 209.031 248.357 212.263 248.357 212.263C248.357 212.263 245.928 214.947 244.426 214.86C242.921 214.774 235.641 216.322 235.641 216.322C235.641 216.322 235.655 216.31 235.68 216.294L252.118 205.826C252.118 205.826 254.412 204.051 256.227 200.227Z" fill="#253E84"/>
<path d="M258.904 232.859C257.32 239.21 258.904 247.747 258.904 247.747C258.904 247.747 259.859 255.783 246.102 256.59C244.703 256.672 243.155 256.68 241.436 256.598L239.738 256.026C239.38 255.904 239.138 255.536 239.142 255.121L240.026 242.834V237.153L239.49 229.055C239.49 229.055 227.437 224.549 223.524 221.838C220.79 219.942 220.349 213.752 219.902 208.118C219.707 205.681 219.511 203.342 219.128 201.504C217.853 195.416 218.194 194.092 218.194 194.092C218.194 194.092 219.359 191.329 221.674 191.329C223.986 191.329 223.986 191.329 223.986 191.329C223.986 191.329 225.669 207.036 227.373 211.056C229.078 215.072 231.837 216.322 235.64 216.322C235.64 216.322 235.655 216.31 235.679 216.294L252.118 205.826C252.118 205.826 254.106 204.286 255.846 200.987C255.974 200.744 256.102 200.49 256.226 200.227C256.951 198.707 257.597 196.862 257.995 194.671L258.307 192.054L256.83 173.186C256.83 173.186 256.993 173.045 257.285 172.892C257.952 172.539 259.305 172.124 260.974 173.186C260.974 173.186 261.88 176.39 262.799 180.551C263.78 184.998 264.781 190.534 264.717 194.413C264.593 201.927 257.767 216.22 258.233 218.774C258.272 218.99 258.318 219.194 258.368 219.386C258.371 219.386 258.371 219.39 258.371 219.39C258.932 221.443 260.168 222.144 260.679 224.863C261.241 227.837 260.133 227.919 258.904 232.859Z" fill="url(#paint13_linear_1_1802)"/>
<path d="M249.231 215.072C246.141 215.601 243.368 213.207 242.604 211.887V206.778C242.586 206.77 242.565 206.766 242.547 206.758C242.466 206.069 241.862 204.96 240.53 204.521C238.457 203.835 238.833 200.948 239.451 200.948C240.044 200.948 241.329 202.437 241.432 202.554C241.365 202.413 240.569 200.689 241.457 198.734C242.381 196.693 245.928 197.712 248.783 193.715C249.38 192.877 249.795 192.078 250.079 191.341C250.893 196.517 251.855 206.159 247.934 207.228V211.499C247.935 211.499 252.324 214.543 249.231 215.072Z" fill="#FDE0D9"/>
<g opacity="0.23">
<path opacity="0.23" d="M244.888 228.347C244.888 228.347 244.695 232.262 248.629 233.028C252.562 233.794 254.456 230.664 257.884 230.134C257.884 230.134 251.84 231.628 250.813 232.387C249.786 233.145 245.621 232.006 244.888 228.347Z" fill="white"/>
</g>
<path d="M258.233 218.774C258.272 218.99 258.318 219.194 258.368 219.386C257.931 218.825 257.274 217.274 256.575 213.117C255.339 205.798 263.361 202.209 263.205 190.389C263.148 185.985 262.981 182.804 262.8 180.551C263.78 184.998 264.781 190.534 264.717 194.413C264.593 201.927 257.768 216.22 258.233 218.774Z" fill="url(#paint14_linear_1_1802)"/>
<g opacity="0.23">
<path opacity="0.23" d="M255.847 200.987C255.975 200.744 256.102 200.489 256.227 200.227C256.951 198.707 257.597 196.861 257.995 194.671L258.308 192.054L256.83 173.185C256.83 173.185 256.994 173.044 257.285 172.892C257.626 176.59 258.783 189.096 258.904 190.906C259.021 192.708 257.413 199.624 255.847 200.987Z" fill="white"/>
</g>
<path d="M247.935 207.232V209.536C247.693 209.744 247.47 209.861 247.271 209.838C246.223 209.712 244.696 206.817 244.696 206.817C246.067 207.256 247.125 207.334 247.935 207.232Z" fill="#ECBFB9"/>
<path d="M246.778 185.885C246.778 185.885 249.709 191.076 242.227 194.735C234.746 198.394 233.049 201.12 233.435 209.841C233.435 209.841 230.195 201.883 234.515 196.777C238.834 191.672 246.855 190.055 246.778 185.885Z" fill="url(#paint15_linear_1_1802)"/>
<path d="M301.124 222.414C300.741 223.617 300.239 224.823 299.592 226.018C293.903 236.521 285.552 239.303 281.382 240.038C280.051 240.273 278.809 239.168 278.777 237.723L278.732 235.634L278.783 237.968L278.777 237.742C278.747 236.596 279.5 235.623 280.555 235.439C283.865 234.863 290.914 232.586 295.781 223.6C298.942 217.763 297.68 211.314 296.733 208.179C296.394 207.055 296.867 205.859 297.857 205.378C299.054 204.795 300.486 205.488 300.898 206.848C301.895 210.137 303.104 216.202 301.124 222.414Z" fill="#AECFDC"/>
<path d="M269.712 237.544C269.712 237.544 273.234 233.085 277.503 233.44C281.772 233.794 285.174 237.999 283.999 241.758C282.824 245.518 278.925 248.265 278.925 248.265L275.011 244.814C275.011 244.814 278.043 243.118 278.685 240.914C279.327 238.71 275.507 235.959 272.439 240.181L269.712 237.544Z" fill="#A17194"/>
<path d="M299.927 246.235C290.166 240.017 290.166 229.807 299.927 223.548C309.687 217.288 325.659 217.288 335.42 223.548C345.18 229.808 345.18 240.017 335.42 246.235C325.659 252.453 309.687 252.453 299.927 246.235Z" fill="#2A2F6D"/>
<path d="M301.566 237.285C292.211 231.892 292.211 223.037 301.566 217.608C310.922 212.179 326.231 212.179 335.587 217.608C344.943 223.038 344.943 231.892 335.587 237.285C326.232 242.678 310.922 242.678 301.566 237.285Z" fill="#2A2F6D"/>
<path d="M342.631 228.274H342.267V237.417H342.631V228.274Z" fill="#2A2F6D"/>
<path d="M342.627 227.016L339.023 220.774L335.142 217.906C331.797 216.334 327.69 215.564 323.342 215.564V215.968C324.035 215.968 324.719 215.988 325.393 216.028C322.778 215.977 319.739 216.163 316.279 216.615C318.612 216.191 320.986 215.968 323.34 215.968L323.342 215.564C323.341 215.564 323.34 215.564 323.34 215.564C316.228 215.565 308.473 217.617 302.372 221.558C301.94 221.837 301.527 222.124 301.124 222.413L293.084 223.479V235.509C293.084 235.509 293.092 235.512 293.104 235.518C293.243 238.785 295.008 241.817 298.499 244.073C302.139 246.424 307.085 247.565 312.389 247.565C319.501 247.565 327.256 245.512 333.357 241.571C339.48 237.616 342.652 232.589 342.63 227.981C342.663 227.368 342.627 227.016 342.627 227.016ZM307.319 246.78C306.208 246.608 305.139 246.378 304.122 246.093C305.219 246.378 306.284 246.603 307.319 246.78ZM304.001 246.06C303.959 246.049 303.918 246.036 303.876 246.024C303.919 246.036 303.958 246.049 304.001 246.06Z" fill="#2A2F6D"/>
<path d="M316.754 239.537C315.461 239.537 314.072 239.505 312.383 239.438C306.235 239.192 303.266 238.355 298.571 235.544C295.182 233.516 293.297 230.42 293.264 226.827H293.248V153.348H293.264C293.253 150.995 294.094 148.119 295.571 145.457C296.751 143.329 298.903 140.311 302.449 138.02C308.56 134.07 316.43 133.739 323.327 133.739C329.529 133.739 334.635 136.44 337.127 138.051C340.165 140.014 341.976 142.635 342.366 145.631L342.383 145.761L342.379 145.774L342.384 145.819C342.435 146.284 342.453 146.751 342.436 147.209L342.434 147.261L342.453 147.299V225.857H342.438C342.34 230.344 339.429 233.699 333.278 236.414C328.319 238.603 323.378 239.537 316.754 239.537ZM340.309 141.496C340.567 141.879 340.796 142.24 341.008 142.6L341.31 142.394C341.101 142.008 340.859 141.625 340.591 141.256L340.309 141.496Z" fill="url(#paint16_linear_1_1802)"/>
<path d="M323.328 133.935C329.487 133.935 334.562 136.62 337.038 138.22C338.454 139.136 339.6 140.195 340.453 141.368L340.167 141.612C340.423 141.993 340.649 142.351 340.86 142.708L341.166 142.497C341.701 143.489 342.047 144.548 342.191 145.659L342.202 145.742L342.199 145.753L342.209 145.843C342.258 146.297 342.275 146.754 342.26 147.201L342.256 147.305L342.276 147.347V225.337L342.26 225.338L342.261 225.852C342.165 230.251 339.29 233.549 333.213 236.232C328.276 238.411 323.354 239.34 316.754 239.34C315.464 239.34 314.077 239.309 312.389 239.242C306.275 238.998 303.323 238.165 298.656 235.372C295.326 233.379 293.475 230.343 293.442 226.825H293.426V153.348H293.442C293.431 151.03 294.262 148.191 295.722 145.56C296.892 143.451 299.024 140.46 302.539 138.189C308.611 134.264 316.453 133.935 323.327 133.935H323.328ZM323.328 133.543C323.328 133.543 323.328 133.543 323.327 133.543C316.215 133.543 308.46 133.907 302.359 137.85C296.237 141.808 293.065 148.74 293.087 153.35L293.071 151.45V228.251L293.087 226.829C293.119 230.223 294.812 233.517 298.486 235.717C303.25 238.569 306.328 239.392 312.376 239.634C313.884 239.694 315.338 239.733 316.754 239.733C322.547 239.733 327.709 239.084 333.344 236.596C339.773 233.758 342.519 230.275 342.616 225.862L342.615 225.338C342.619 225.514 342.619 225.689 342.616 225.862L342.63 235.281V147.259C342.623 147.245 342.621 147.231 342.614 147.217C342.631 146.738 342.612 146.264 342.561 145.796C342.598 145.678 342.63 145.603 342.63 145.603H342.543C342.159 142.656 340.408 139.944 337.217 137.882C333.578 135.53 328.632 133.543 323.328 133.543ZM341.157 142.494C340.955 142.152 340.724 141.783 340.452 141.379C340.715 141.74 340.95 142.112 341.157 142.494Z" fill="white"/>
<g opacity="0.5">
<path opacity="0.5" d="M342.157 227.302V150.443C342.157 150.443 337.789 142.666 330.28 143.499C322.771 144.332 321.56 149.054 321.56 149.054V234.607C321.56 234.607 321.653 236.695 322.873 237.417C326.568 239.604 332.236 238.614 340.882 231.14C342.159 230.037 341.597 229.174 342.157 227.302Z" fill="url(#paint17_linear_1_1802)"/>
</g>
<path d="M334.926 218.327C337.401 218.327 339.407 214.877 339.407 210.622C339.407 206.366 337.401 202.916 334.926 202.916C332.452 202.916 330.446 206.366 330.446 210.622C330.446 214.877 332.452 218.327 334.926 218.327Z" fill="url(#paint18_linear_1_1802)"/>
<path d="M310.351 200.038C310.931 201.141 311.628 202.224 312.465 203.265C319.827 212.416 328.502 213.434 332.722 213.301C334.07 213.258 335.104 211.917 334.891 210.491L334.584 208.43L334.927 210.733L334.895 210.51C334.731 209.378 333.827 208.576 332.758 208.613C329.409 208.726 322.1 207.937 315.802 200.108C311.71 195.021 311.863 188.425 312.264 185.151C312.408 183.977 311.742 182.9 310.688 182.63C309.414 182.303 308.124 183.278 307.948 184.699C307.523 188.134 307.358 194.342 310.351 200.038Z" fill="#CDE9F9"/>
<path d="M308.632 171.865C308.632 171.865 305.408 176.59 306.606 181.125C307.805 185.659 312.239 188.46 315.329 186.413C318.419 184.365 320.047 179.588 320.047 179.588L316.176 176.078C316.176 176.078 315.301 179.702 313.48 180.851C311.658 182.001 308.428 178.448 311.535 174.261L308.632 171.865Z" fill="#A17194"/>
<path d="M320.328 218.689L317.11 217.952V217.953C317.109 217.953 317.216 217.164 316.854 216.688C316.548 216.287 315.858 216.067 314.911 216.067C314.224 216.067 313.309 216.185 312.846 216.749C312.398 217.296 312.468 218.133 312.469 218.142L309.208 218.596C309.178 218.35 308.957 216.146 310.359 214.379C311.378 213.093 312.91 212.44 314.911 212.44C316.933 212.44 318.447 213.103 319.412 214.412C320.744 216.219 320.375 218.442 320.328 218.689Z" fill="white"/>
<path d="M302.976 217.943L300.527 217.382V217.382C300.526 217.382 300.607 216.782 300.332 216.42C300.099 216.115 299.573 215.947 298.852 215.947C298.33 215.947 297.633 216.037 297.28 216.467C296.94 216.883 296.993 217.52 296.994 217.527L294.512 217.873C294.489 217.686 294.321 216.008 295.387 214.662C296.164 213.683 297.33 213.187 298.852 213.187C300.392 213.187 301.545 213.692 302.279 214.688C303.293 216.063 303.012 217.755 302.976 217.943Z" fill="white"/>
<path d="M228.009 274.518C228.009 267.353 222.682 261.878 216.11 261.878C209.539 261.878 204.212 267.686 204.212 274.852C204.212 282.017 209.539 287.825 216.11 287.825C222.682 287.825 228.009 281.683 228.009 274.518Z" fill="url(#paint19_linear_1_1802)"/>
<path d="M221.924 279.576C221.919 279.568 221.914 279.563 221.914 279.563L219.683 274.239C219.683 273.9 218.06 273.626 216.057 273.626C214.054 273.626 212.431 273.9 212.431 274.239L209.817 279.525C209.747 279.592 209.709 279.661 209.709 279.731C209.709 280.339 212.458 280.833 215.848 280.833C219.237 280.833 221.986 280.34 221.986 279.731C221.985 279.679 221.964 279.627 221.924 279.576Z" fill="white"/>
<path d="M221.914 279.564C221.459 278.487 218.962 272.567 218.673 271.731C218.439 271.051 218.396 270.587 218.39 270.391V266.728H218.387C218.389 266.722 218.39 266.715 218.39 266.709C218.39 266.438 217.369 266.219 216.111 266.219C214.852 266.219 213.832 266.438 213.832 266.709C213.832 266.715 213.833 266.722 213.834 266.728H213.832V270.286H213.83C213.641 272.109 210.447 278.315 209.817 279.527C209.747 279.593 209.709 279.662 209.709 279.733C209.709 280.341 212.457 280.834 215.847 280.834C219.237 280.834 221.985 280.341 221.985 279.733C221.985 279.675 221.961 279.619 221.914 279.564Z" fill="white"/>
<path d="M216.11 267.198C217.369 267.198 218.389 266.979 218.389 266.708C218.389 266.437 217.369 266.217 216.11 266.217C214.852 266.217 213.832 266.437 213.832 266.708C213.832 266.979 214.852 267.198 216.11 267.198Z" fill="white"/>
<path d="M216.057 274.852C218.059 274.852 219.683 274.578 219.683 274.239C219.683 273.9 218.059 273.626 216.057 273.626C214.054 273.626 212.43 273.9 212.43 274.239C212.43 274.578 214.054 274.852 216.057 274.852Z" fill="white"/>
<path d="M215.846 280.833C219.236 280.833 221.985 280.339 221.985 279.731C221.985 279.123 219.236 278.63 215.846 278.63C212.456 278.63 209.708 279.123 209.708 279.731C209.708 280.339 212.456 280.833 215.846 280.833Z" fill="white"/>
<path d="M228.009 274.518C228.009 267.353 222.682 261.878 216.11 261.878C209.539 261.878 204.212 267.686 204.212 274.852C204.212 282.017 209.539 287.825 216.11 287.825C222.682 287.825 228.009 281.683 228.009 274.518Z" fill="url(#paint20_linear_1_1802)"/>
<path d="M321.076 290.614C321.076 283.449 315.749 277.974 309.178 277.974C302.606 277.974 297.279 283.782 297.279 290.948C297.279 298.113 302.606 303.921 309.178 303.921C315.749 303.921 321.076 297.779 321.076 290.614Z" fill="url(#paint21_linear_1_1802)"/>
<path d="M314.991 295.672C314.985 295.664 314.981 295.659 314.981 295.659L312.75 290.335C312.75 289.996 311.127 289.722 309.124 289.722C307.121 289.722 305.498 289.996 305.498 290.335L302.884 295.621C302.814 295.688 302.776 295.757 302.776 295.827C302.776 296.435 305.525 296.929 308.914 296.929C312.304 296.929 315.053 296.436 315.053 295.827C315.052 295.775 315.031 295.723 314.991 295.672Z" fill="white"/>
<path d="M314.981 295.66C314.526 294.583 312.029 288.663 311.741 287.827C311.506 287.147 311.463 286.683 311.457 286.487V282.824H311.455C311.456 282.818 311.457 282.811 311.457 282.805C311.457 282.534 310.437 282.314 309.178 282.314C307.92 282.314 306.899 282.534 306.899 282.805C306.899 282.811 306.9 282.818 306.901 282.824H306.899V286.382H306.897C306.709 288.205 303.514 294.411 302.884 295.622C302.814 295.689 302.776 295.758 302.776 295.828C302.776 296.437 305.525 296.93 308.915 296.93C312.304 296.93 315.053 296.437 315.053 295.828C315.052 295.771 315.028 295.715 314.981 295.66Z" fill="white"/>
<path d="M309.178 283.294C310.436 283.294 311.456 283.075 311.456 282.804C311.456 282.533 310.436 282.313 309.178 282.313C307.919 282.313 306.899 282.533 306.899 282.804C306.899 283.075 307.919 283.294 309.178 283.294Z" fill="white"/>
<path d="M309.124 290.948C311.126 290.948 312.75 290.673 312.75 290.335C312.75 289.996 311.126 289.722 309.124 289.722C307.121 289.722 305.497 289.996 305.497 290.335C305.497 290.673 307.121 290.948 309.124 290.948Z" fill="white"/>
<path d="M308.914 296.928C312.304 296.928 315.052 296.435 315.052 295.827C315.052 295.219 312.304 294.726 308.914 294.726C305.524 294.726 302.776 295.219 302.776 295.827C302.776 296.435 305.524 296.928 308.914 296.928Z" fill="white"/>
<path d="M321.076 290.614C321.076 283.449 315.749 277.974 309.178 277.974C302.606 277.974 297.279 283.782 297.279 290.948C297.279 298.113 302.606 303.921 309.178 303.921C315.749 303.921 321.076 297.779 321.076 290.614Z" fill="url(#paint22_linear_1_1802)"/>
<path d="M368.731 229.196C368.731 224.155 364.983 220.303 360.36 220.303C355.736 220.303 351.989 224.39 351.989 229.43C351.989 234.471 355.736 238.558 360.36 238.558C364.982 238.558 368.731 234.237 368.731 229.196Z" fill="url(#paint23_linear_1_1802)"/>
<path d="M364.449 232.754C364.445 232.749 364.442 232.745 364.442 232.745L362.873 228.999C362.873 228.761 361.73 228.568 360.321 228.568C358.912 228.568 357.77 228.761 357.77 228.999L355.931 232.718C355.881 232.765 355.855 232.814 355.855 232.863C355.855 233.291 357.789 233.638 360.174 233.638C362.559 233.638 364.492 233.291 364.492 232.863C364.492 232.826 364.477 232.79 364.449 232.754Z" fill="white"/>
<path d="M364.442 232.745C364.122 231.988 362.365 227.822 362.162 227.234C361.997 226.756 361.967 226.429 361.963 226.291V223.714H361.961C361.962 223.709 361.963 223.705 361.963 223.7C361.963 223.51 361.245 223.355 360.359 223.355C359.474 223.355 358.756 223.51 358.756 223.7C358.756 223.705 358.757 223.709 358.757 223.714H358.756V226.216H358.754C358.622 227.499 356.375 231.866 355.931 232.718C355.881 232.765 355.855 232.813 355.855 232.863C355.855 233.291 357.789 233.637 360.174 233.637C362.559 233.637 364.492 233.291 364.492 232.863C364.492 232.823 364.475 232.784 364.442 232.745Z" fill="white"/>
<path d="M360.359 224.046C361.245 224.046 361.963 223.891 361.963 223.701C361.963 223.51 361.245 223.356 360.359 223.356C359.474 223.356 358.756 223.51 358.756 223.701C358.756 223.891 359.474 224.046 360.359 224.046Z" fill="white"/>
<path d="M360.322 229.431C361.731 229.431 362.873 229.238 362.873 228.999C362.873 228.761 361.731 228.568 360.322 228.568C358.912 228.568 357.77 228.761 357.77 228.999C357.77 229.238 358.912 229.431 360.322 229.431Z" fill="white"/>
<path d="M360.174 233.638C362.559 233.638 364.492 233.291 364.492 232.863C364.492 232.435 362.559 232.089 360.174 232.089C357.789 232.089 355.856 232.435 355.856 232.863C355.856 233.291 357.789 233.638 360.174 233.638Z" fill="white"/>
<path d="M368.731 229.196C368.731 224.155 364.983 220.303 360.36 220.303C355.736 220.303 351.989 224.39 351.989 229.43C351.989 234.471 355.736 238.558 360.36 238.558C364.982 238.558 368.731 234.237 368.731 229.196Z" fill="url(#paint24_linear_1_1802)"/>
<path d="M268.891 166.367C268.891 166.367 272.484 165.925 274.465 161.638L268.891 166.367Z" fill="white"/>
<path d="M269.029 167.73L268.754 165.005L268.892 166.368L268.744 165.006C268.865 164.989 271.726 164.549 273.358 161.016L275.572 162.261C273.314 167.15 269.203 167.709 269.029 167.73Z" fill="url(#paint25_linear_1_1802)"/>
<path d="M274.576 181.97C274.576 181.97 276.365 185.436 280.718 185.747L274.576 181.97Z" fill="white"/>
<path d="M273.496 182.648L275.656 181.291L274.576 181.97L275.651 181.282C275.713 181.398 277.211 184.122 280.798 184.379L280.637 187.115C275.674 186.761 273.583 182.816 273.496 182.648Z" fill="url(#paint26_linear_1_1802)"/>
<path d="M282.652 173.442C282.652 173.442 285.419 174.357 287.842 172.398L282.652 173.442Z" fill="url(#paint27_linear_1_1802)"/>
<path d="M282.452 174.317L282.852 172.566L282.652 173.441L282.845 172.564C282.939 172.593 285.161 173.267 287.157 171.654L288.526 173.142C285.764 175.375 282.586 174.361 282.452 174.317Z" fill="url(#paint28_linear_1_1802)"/>
<path d="M260.73 151.545C260.73 151.545 264.323 151.103 266.303 146.815L260.73 151.545Z" fill="white"/>
<path d="M260.868 152.907L260.592 150.182L260.73 151.545L260.583 150.183C260.704 150.166 263.564 149.726 265.196 146.193L267.411 147.438C265.152 152.327 261.041 152.886 260.868 152.907Z" fill="url(#paint29_linear_1_1802)"/>
<path d="M241.875 168.92C241.875 168.92 243.664 172.386 248.016 172.697L241.875 168.92Z" fill="white"/>
<path d="M240.795 169.598L242.955 168.241L241.874 168.919L242.95 168.232C243.012 168.348 244.51 171.072 248.096 171.328L247.935 174.065C242.972 173.711 240.881 169.766 240.795 169.598Z" fill="url(#paint30_linear_1_1802)"/>
<path d="M249.951 160.392C249.951 160.392 252.718 161.307 255.14 159.348L249.951 160.392Z" fill="url(#paint31_linear_1_1802)"/>
<path d="M249.75 161.267L250.151 159.516L249.95 160.392L250.143 159.514C250.237 159.543 252.459 160.218 254.456 158.604L255.824 160.092C253.062 162.325 249.884 161.311 249.75 161.267Z" fill="url(#paint32_linear_1_1802)"/>
<path d="M280.511 140.089C280.511 140.089 282.119 142.561 285.444 142.412L280.511 140.089Z" fill="white"/>
<path d="M279.74 140.7L281.281 139.479L280.51 140.089L281.276 139.472C281.331 139.555 282.665 141.489 285.405 141.367L285.481 143.457C281.691 143.627 279.819 140.819 279.74 140.7Z" fill="url(#paint33_linear_1_1802)"/>
<path d="M273.229 150.089C273.229 150.089 271.808 152.697 273.246 156.006L273.229 150.089Z" fill="white"/>
<path d="M272.416 149.55L274.041 150.628L273.229 150.089L274.045 150.621C273.998 150.71 272.916 152.827 274.101 155.554L272.391 156.459C270.751 152.684 272.348 149.676 272.416 149.55Z" fill="url(#paint34_linear_1_1802)"/>
<path d="M281.387 152.829C281.387 152.829 281.869 155.202 283.954 156.247L281.387 152.829Z" fill="url(#paint35_linear_1_1802)"/>
<path d="M280.785 153.01L281.989 152.65L281.387 152.83L281.988 152.643C282.005 152.723 282.429 154.606 284.147 155.468L283.762 157.028C281.384 155.835 280.808 153.124 280.785 153.01Z" fill="url(#paint36_linear_1_1802)"/>
<path d="M415.224 232.23L415.215 230.698L415.211 232.115L415.22 233.646L415.224 232.23Z" fill="url(#paint37_linear_1_1802)"/>
<path d="M427.974 234.072L426.285 235.154L426.282 236.571L427.971 235.488L427.974 234.072Z" fill="url(#paint38_linear_1_1802)"/>
<path d="M408.325 235.154L406.625 234.072L406.622 235.489L408.322 236.571L408.325 235.154Z" fill="url(#paint39_linear_1_1802)"/>
<path d="M411.931 240.062C411.94 240.011 411.954 239.96 411.966 239.909C411.98 239.849 411.994 239.789 412.013 239.73C412.028 239.681 412.049 239.633 412.068 239.584C412.093 239.522 412.117 239.459 412.147 239.398C412.169 239.353 412.195 239.309 412.22 239.265C412.259 239.195 412.301 239.125 412.347 239.056C412.375 239.016 412.405 238.976 412.435 238.936C412.504 238.843 412.581 238.752 412.665 238.663C412.695 238.631 412.722 238.598 412.754 238.566C412.806 238.514 412.864 238.464 412.921 238.414C412.971 238.37 413.019 238.325 413.073 238.282C413.134 238.233 413.201 238.186 413.268 238.138C413.336 238.089 413.401 238.039 413.474 237.992C413.636 237.888 413.809 237.794 413.986 237.706C414.036 237.681 414.088 237.658 414.14 237.634C414.279 237.57 414.421 237.51 414.566 237.456C414.618 237.436 414.669 237.415 414.722 237.396C414.814 237.365 414.907 237.337 415.001 237.309C415.072 237.287 415.143 237.264 415.215 237.245C415.313 237.219 415.413 237.197 415.513 237.175C415.582 237.159 415.65 237.142 415.719 237.128C415.922 237.089 416.128 237.058 416.336 237.034C416.4 237.026 416.464 237.022 416.528 237.016C416.65 237.005 416.772 236.995 416.895 236.989C416.973 236.985 417.052 236.983 417.13 236.981C417.229 236.979 417.328 236.979 417.427 236.98C417.51 236.981 417.593 236.984 417.676 236.987C417.767 236.991 417.859 236.997 417.95 237.003C418.034 237.01 418.118 237.017 418.201 237.026C418.292 237.036 418.381 237.047 418.471 237.06C418.553 237.071 418.633 237.084 418.714 237.097C418.81 237.114 418.906 237.133 419.001 237.153C419.076 237.168 419.152 237.185 419.226 237.203C419.34 237.23 419.451 237.262 419.563 237.294C419.625 237.312 419.688 237.329 419.749 237.349C419.948 237.413 420.143 237.485 420.33 237.566C420.424 237.606 420.514 237.65 420.604 237.694C420.651 237.717 420.699 237.738 420.745 237.762C420.882 237.834 421.015 237.909 421.143 237.991C422.211 238.672 422.744 239.565 422.742 240.456L422.745 239.039C422.748 238.147 422.214 237.255 421.146 236.574C421.018 236.492 420.885 236.416 420.748 236.345C420.702 236.321 420.654 236.3 420.607 236.277C420.526 236.237 420.446 236.196 420.363 236.16C420.354 236.156 420.343 236.153 420.334 236.149C420.145 236.068 419.951 235.996 419.752 235.932C419.736 235.927 419.721 235.92 419.705 235.915C419.66 235.9 419.612 235.891 419.567 235.877C419.455 235.845 419.343 235.813 419.229 235.786C419.199 235.779 419.17 235.769 419.139 235.762C419.095 235.752 419.049 235.745 419.004 235.736C418.909 235.716 418.813 235.697 418.717 235.681C418.678 235.674 418.641 235.665 418.602 235.659C418.56 235.652 418.517 235.649 418.475 235.643C418.385 235.631 418.295 235.619 418.204 235.61C418.16 235.605 418.118 235.598 418.075 235.594C418.035 235.59 417.994 235.59 417.954 235.587C417.862 235.58 417.77 235.574 417.678 235.571C417.632 235.569 417.586 235.564 417.54 235.562C417.504 235.561 417.467 235.564 417.431 235.563C417.331 235.562 417.231 235.562 417.132 235.564C417.083 235.565 417.034 235.564 416.985 235.565C416.956 235.566 416.927 235.57 416.898 235.571C416.775 235.577 416.653 235.587 416.531 235.598C416.482 235.603 416.432 235.604 416.383 235.609C416.368 235.611 416.353 235.614 416.338 235.616C416.13 235.64 415.925 235.672 415.721 235.711C415.711 235.713 415.701 235.714 415.692 235.716C415.633 235.728 415.576 235.744 415.518 235.757C415.417 235.779 415.316 235.801 415.217 235.828C415.145 235.847 415.075 235.87 415.005 235.891C414.911 235.919 414.817 235.947 414.725 235.979C414.705 235.986 414.685 235.991 414.665 235.998C414.632 236.01 414.602 236.026 414.569 236.038C414.423 236.093 414.281 236.152 414.143 236.216C414.091 236.24 414.039 236.264 413.988 236.289C413.811 236.377 413.639 236.47 413.476 236.574C413.454 236.588 413.432 236.603 413.41 236.617C413.361 236.65 413.318 236.686 413.271 236.719C413.205 236.767 413.137 236.814 413.075 236.863C413.022 236.907 412.974 236.951 412.924 236.996C412.867 237.046 412.809 237.096 412.757 237.148C412.747 237.158 412.734 237.168 412.724 237.178C412.703 237.2 412.688 237.223 412.668 237.245C412.584 237.334 412.507 237.425 412.438 237.517C412.422 237.538 412.402 237.557 412.388 237.577C412.373 237.597 412.364 237.618 412.35 237.638C412.304 237.707 412.262 237.777 412.223 237.847C412.206 237.876 412.184 237.905 412.169 237.935C412.161 237.95 412.157 237.965 412.15 237.98C412.12 238.041 412.096 238.104 412.071 238.166C412.056 238.202 412.037 238.238 412.025 238.274C412.02 238.287 412.019 238.299 412.015 238.312C411.995 238.371 411.982 238.431 411.968 238.49C411.959 238.531 411.944 238.571 411.937 238.611C411.935 238.622 411.935 238.633 411.933 238.643C411.923 238.706 411.919 238.769 411.914 238.832C411.911 238.873 411.902 238.913 411.901 238.954C411.9 238.972 411.9 238.989 411.9 239.007L411.897 240.424C411.897 240.365 411.905 240.307 411.91 240.248C411.917 240.187 411.921 240.124 411.931 240.062Z" fill="url(#paint40_linear_1_1802)"/>
<path d="M427.964 240.346C427.938 240.431 427.908 240.516 427.878 240.601C427.857 240.659 427.835 240.716 427.811 240.774C427.79 240.828 427.767 240.882 427.744 240.936C427.718 240.993 427.691 241.05 427.664 241.107C427.638 241.159 427.612 241.211 427.585 241.263C427.55 241.33 427.512 241.395 427.474 241.461C427.446 241.509 427.418 241.557 427.389 241.605C427.347 241.672 427.302 241.739 427.256 241.805C427.227 241.849 427.197 241.893 427.166 241.936C427.077 242.059 426.984 242.181 426.884 242.301C426.87 242.317 426.855 242.332 426.841 242.349C426.752 242.453 426.659 242.555 426.561 242.657C426.484 242.736 426.407 242.816 426.325 242.894L426.321 244.311C426.389 244.246 426.455 244.182 426.519 244.117C426.532 244.103 426.544 244.087 426.558 244.073C426.655 243.972 426.748 243.87 426.836 243.766C426.851 243.75 426.866 243.734 426.88 243.717C426.981 243.597 427.074 243.476 427.162 243.354C427.17 243.343 427.179 243.333 427.186 243.323C427.21 243.289 427.23 243.255 427.253 243.221C427.298 243.155 427.343 243.089 427.385 243.022C427.415 242.974 427.443 242.925 427.471 242.877C427.509 242.812 427.546 242.746 427.581 242.68C427.592 242.658 427.606 242.637 427.617 242.615C427.633 242.585 427.646 242.553 427.661 242.523C427.688 242.466 427.715 242.41 427.74 242.353C427.764 242.298 427.787 242.244 427.809 242.189C427.832 242.132 427.854 242.075 427.874 242.017C427.883 241.992 427.895 241.966 427.903 241.94C427.924 241.881 427.943 241.821 427.96 241.762H430.356L430.36 240.345H427.964V240.346Z" fill="url(#paint41_linear_1_1802)"/>
<path d="M408.361 244.311L408.364 242.894C407.531 242.111 406.975 241.243 406.7 240.346H404.304L404.3 241.762H406.696C406.971 242.659 407.527 243.527 408.361 244.311Z" fill="url(#paint42_linear_1_1802)"/>
<path d="M423.41 244.763C423.122 244.888 422.826 245.001 422.525 245.106C422.359 245.164 422.188 245.212 422.019 245.264C421.86 245.312 421.704 245.365 421.543 245.408C421.37 245.454 421.193 245.491 421.018 245.531C420.855 245.569 420.693 245.61 420.528 245.642C420.166 245.713 419.798 245.773 419.428 245.819L419.424 247.236C419.795 247.19 420.162 247.13 420.524 247.059C420.542 247.055 420.56 247.054 420.578 247.05C420.727 247.021 420.871 246.981 421.018 246.947C421.192 246.907 421.367 246.871 421.539 246.825C421.701 246.782 421.859 246.729 422.019 246.68C422.187 246.628 422.357 246.58 422.522 246.523C422.542 246.516 422.562 246.511 422.582 246.504C422.863 246.405 423.138 246.297 423.406 246.18L425.106 247.263L428.022 245.394L428.025 243.977L425.11 245.846L423.41 244.763Z" fill="url(#paint43_linear_1_1802)"/>
<path d="M415.292 245.819C415.032 245.787 414.776 245.742 414.52 245.698C414.336 245.666 414.154 245.631 413.972 245.593C413.813 245.56 413.655 245.524 413.498 245.486C413.281 245.433 413.068 245.374 412.856 245.312C412.689 245.263 412.521 245.216 412.357 245.162C412.284 245.137 412.211 245.113 412.139 245.087C411.855 244.987 411.573 244.881 411.301 244.764C411.3 244.764 411.299 244.763 411.299 244.763L409.608 245.847L406.673 243.978L406.67 245.395L409.604 247.264L411.296 246.179C411.569 246.297 411.851 246.403 412.136 246.504C412.208 246.529 412.281 246.554 412.354 246.578C412.427 246.602 412.499 246.63 412.573 246.653C412.665 246.682 412.76 246.702 412.852 246.728C413.064 246.79 413.277 246.849 413.494 246.902C413.564 246.919 413.632 246.942 413.703 246.958C413.79 246.978 413.88 246.991 413.968 247.009C414.15 247.048 414.333 247.083 414.517 247.115C414.601 247.129 414.683 247.15 414.767 247.162C414.939 247.19 415.113 247.214 415.287 247.235L415.288 247.235L415.296 248.766H419.432L419.435 247.35H415.3L415.292 245.819Z" fill="url(#paint44_linear_1_1802)"/>
<path d="M425.109 245.846L423.41 244.763C422.187 245.293 420.83 245.645 419.427 245.818L419.435 247.349H415.299L415.292 245.818C413.887 245.645 412.527 245.293 411.299 244.763L409.607 245.847L406.673 243.978L408.364 242.894C407.531 242.11 406.975 241.242 406.7 240.345H404.304L404.29 237.703H406.686C406.953 236.806 407.502 235.939 408.325 235.155L406.625 234.072L409.541 232.202L411.241 233.285C412.466 232.757 413.82 232.403 415.223 232.23L415.215 230.699H419.35L419.358 232.23C420.763 232.403 422.12 232.757 423.351 233.285L425.04 232.202L427.974 234.072L426.285 235.154C427.116 235.939 427.675 236.806 427.95 237.702H430.346L430.359 240.345H427.964C427.697 241.242 427.15 242.11 426.325 242.894L428.025 243.977L425.109 245.846ZM413.503 241.477C415.627 242.83 419.058 242.828 421.169 241.475C423.28 240.121 423.272 237.929 421.147 236.575C419.022 235.222 415.588 235.222 413.477 236.575C411.367 237.929 411.378 240.123 413.503 241.477Z" fill="url(#paint45_linear_1_1802)" stroke="white" stroke-miterlimit="10"/>
<path d="M396.93 245.004L396.924 243.816L396.921 244.916L396.928 246.104L396.93 245.004Z" fill="url(#paint46_linear_1_1802)"/>
<path d="M406.826 246.434L405.515 247.274L405.512 248.374L406.823 247.533L406.826 246.434Z" fill="url(#paint47_linear_1_1802)"/>
<path d="M391.577 247.274L390.258 246.434L390.255 247.534L391.574 248.374L391.577 247.274Z" fill="url(#paint48_linear_1_1802)"/>
<path d="M394.375 251.083C394.382 251.043 394.393 251.004 394.402 250.964C394.413 250.918 394.423 250.871 394.438 250.825C394.451 250.787 394.467 250.75 394.482 250.712C394.5 250.664 394.52 250.615 394.543 250.568C394.56 250.533 394.58 250.499 394.6 250.465C394.63 250.41 394.662 250.356 394.698 250.303C394.72 250.271 394.743 250.24 394.766 250.209C394.82 250.137 394.88 250.067 394.945 249.998C394.969 249.973 394.99 249.947 395.015 249.922C395.055 249.882 395.1 249.844 395.144 249.804C395.183 249.77 395.22 249.735 395.262 249.702C395.309 249.664 395.362 249.627 395.414 249.591C395.466 249.553 395.516 249.514 395.573 249.477C395.699 249.397 395.833 249.324 395.97 249.256C396.01 249.236 396.05 249.218 396.09 249.199C396.198 249.149 396.308 249.103 396.421 249.061C396.461 249.046 396.501 249.029 396.542 249.015C396.613 248.99 396.686 248.969 396.758 248.947C396.813 248.93 396.868 248.912 396.924 248.897C397 248.877 397.078 248.86 397.156 248.843C397.209 248.831 397.262 248.818 397.315 248.807C397.473 248.777 397.633 248.752 397.794 248.734C397.844 248.728 397.894 248.725 397.943 248.72C398.038 248.711 398.133 248.704 398.228 248.699C398.288 248.696 398.35 248.695 398.41 248.694C398.487 248.692 398.564 248.691 398.641 248.693C398.705 248.693 398.769 248.696 398.834 248.698C398.905 248.702 398.976 248.705 399.047 248.711C399.112 248.716 399.177 248.722 399.241 248.729C399.312 248.736 399.382 248.745 399.451 248.755C399.514 248.764 399.577 248.774 399.64 248.784C399.715 248.797 399.789 248.812 399.863 248.827C399.921 248.839 399.98 248.852 400.037 248.866C400.125 248.887 400.212 248.911 400.298 248.936C400.346 248.95 400.395 248.964 400.443 248.979C400.597 249.029 400.748 249.084 400.894 249.147C400.966 249.178 401.036 249.212 401.106 249.247C401.143 249.264 401.18 249.28 401.215 249.299C401.322 249.355 401.425 249.413 401.524 249.477C402.353 250.005 402.767 250.698 402.765 251.39L402.768 250.291C402.77 249.599 402.356 248.906 401.527 248.378C401.428 248.314 401.324 248.255 401.218 248.2C401.183 248.181 401.145 248.165 401.109 248.147C401.046 248.117 400.985 248.084 400.92 248.056C400.912 248.053 400.904 248.051 400.897 248.048C400.75 247.985 400.6 247.929 400.445 247.879C400.432 247.875 400.421 247.87 400.409 247.866C400.373 247.855 400.337 247.847 400.301 247.837C400.215 247.811 400.128 247.787 400.039 247.766C400.016 247.76 399.993 247.752 399.97 247.747C399.935 247.739 399.899 247.734 399.864 247.727C399.791 247.711 399.716 247.697 399.642 247.684C399.612 247.679 399.583 247.672 399.552 247.667C399.52 247.662 399.487 247.66 399.454 247.655C399.384 247.645 399.314 247.637 399.243 247.629C399.21 247.626 399.177 247.62 399.143 247.617C399.112 247.614 399.08 247.614 399.049 247.612C398.978 247.606 398.907 247.602 398.835 247.599C398.8 247.597 398.764 247.594 398.728 247.593C398.7 247.592 398.672 247.594 398.643 247.593C398.566 247.592 398.488 247.593 398.411 247.594C398.373 247.595 398.335 247.594 398.297 247.595C398.275 247.596 398.253 247.599 398.23 247.6C398.134 247.605 398.04 247.612 397.945 247.621C397.907 247.625 397.868 247.626 397.83 247.63C397.819 247.631 397.807 247.634 397.795 247.635C397.634 247.654 397.474 247.678 397.317 247.709C397.309 247.71 397.301 247.711 397.293 247.712C397.248 247.721 397.204 247.734 397.159 247.744C397.08 247.762 397.002 247.779 396.925 247.799C396.869 247.814 396.815 247.832 396.76 247.848C396.687 247.87 396.614 247.892 396.543 247.917C396.527 247.922 396.511 247.926 396.496 247.931C396.471 247.94 396.447 247.953 396.422 247.962C396.309 248.005 396.199 248.051 396.091 248.101C396.051 248.119 396.01 248.137 395.971 248.157C395.834 248.225 395.7 248.298 395.574 248.378C395.557 248.39 395.54 248.401 395.523 248.412C395.484 248.437 395.451 248.465 395.415 248.492C395.363 248.528 395.311 248.565 395.263 248.603C395.221 248.636 395.184 248.671 395.145 248.705C395.101 248.744 395.056 248.783 395.015 248.823C395.007 248.832 394.998 248.839 394.989 248.847C394.973 248.864 394.962 248.882 394.946 248.899C394.881 248.968 394.822 249.038 394.768 249.11C394.756 249.126 394.74 249.141 394.728 249.156C394.717 249.172 394.71 249.188 394.699 249.204C394.663 249.257 394.631 249.311 394.601 249.366C394.588 249.389 394.571 249.411 394.559 249.434C394.553 249.446 394.55 249.458 394.544 249.469C394.521 249.517 394.502 249.565 394.483 249.614C394.472 249.642 394.456 249.67 394.447 249.698C394.444 249.708 394.442 249.717 394.439 249.727C394.424 249.773 394.414 249.819 394.403 249.865C394.396 249.896 394.384 249.927 394.379 249.959C394.377 249.967 394.378 249.976 394.376 249.984C394.368 250.033 394.365 250.082 394.361 250.13C394.358 250.162 394.352 250.194 394.351 250.226C394.351 250.239 394.35 250.253 394.35 250.266L394.347 251.366C394.347 251.32 394.354 251.275 394.358 251.229C394.364 251.18 394.367 251.131 394.375 251.083Z" fill="url(#paint49_linear_1_1802)"/>
<path d="M406.818 251.303C406.798 251.369 406.775 251.435 406.751 251.501C406.735 251.546 406.717 251.59 406.699 251.635C406.683 251.677 406.665 251.719 406.646 251.761C406.627 251.805 406.606 251.849 406.584 251.894C406.564 251.934 406.544 251.975 406.523 252.015C406.496 252.066 406.467 252.117 406.437 252.168C406.416 252.206 406.394 252.243 406.371 252.28C406.339 252.332 406.303 252.384 406.268 252.435C406.245 252.469 406.222 252.504 406.198 252.537C406.129 252.633 406.057 252.727 405.979 252.82C405.969 252.832 405.956 252.845 405.946 252.857C405.877 252.938 405.804 253.018 405.728 253.096C405.669 253.158 405.609 253.22 405.545 253.28L405.542 254.38C405.595 254.33 405.646 254.28 405.695 254.229C405.706 254.218 405.715 254.206 405.726 254.195C405.801 254.117 405.874 254.038 405.942 253.957C405.953 253.944 405.965 253.932 405.976 253.919C406.054 253.826 406.126 253.732 406.195 253.636C406.201 253.628 406.208 253.62 406.214 253.612C406.232 253.586 406.248 253.56 406.266 253.534C406.301 253.482 406.335 253.431 406.368 253.379C406.391 253.342 406.413 253.304 406.434 253.267C406.464 253.216 406.493 253.165 406.52 253.114C406.529 253.097 406.54 253.081 406.548 253.064C406.56 253.04 406.57 253.016 406.581 252.992C406.603 252.948 406.624 252.904 406.643 252.86C406.662 252.818 406.679 252.776 406.696 252.734C406.714 252.689 406.732 252.645 406.748 252.6C406.755 252.58 406.764 252.561 406.77 252.541C406.786 252.494 406.801 252.448 406.815 252.402H408.674L408.677 251.302H406.818V251.303Z" fill="url(#paint50_linear_1_1802)"/>
<path d="M391.605 254.38L391.607 253.281C390.96 252.673 390.529 251.999 390.315 251.303H388.456L388.453 252.402H390.313C390.526 253.099 390.958 253.772 391.605 254.38Z" fill="url(#paint51_linear_1_1802)"/>
<path d="M403.283 254.731C403.06 254.828 402.83 254.915 402.597 254.997C402.469 255.042 402.336 255.08 402.204 255.12C402.081 255.157 401.96 255.198 401.834 255.232C401.7 255.267 401.563 255.296 401.427 255.327C401.3 255.356 401.175 255.388 401.047 255.413C400.765 255.468 400.481 255.515 400.193 255.551L400.19 256.65C400.478 256.615 400.763 256.568 401.044 256.513C401.058 256.51 401.072 256.509 401.086 256.506C401.201 256.483 401.313 256.452 401.427 256.426C401.562 256.395 401.698 256.367 401.831 256.331C401.957 256.298 402.08 256.256 402.204 256.218C402.334 256.179 402.466 256.141 402.594 256.097C402.61 256.091 402.625 256.088 402.641 256.082C402.859 256.005 403.072 255.922 403.281 255.831L404.6 256.671L406.862 255.22L406.865 254.121L404.603 255.571L403.283 254.731Z" fill="url(#paint52_linear_1_1802)"/>
<path d="M396.983 255.55C396.782 255.525 396.583 255.49 396.384 255.456C396.242 255.432 396.1 255.405 395.959 255.375C395.836 255.349 395.713 255.321 395.591 255.291C395.423 255.251 395.258 255.205 395.093 255.157C394.964 255.119 394.833 255.083 394.706 255.04C394.65 255.022 394.593 255.002 394.537 254.982C394.316 254.905 394.098 254.823 393.887 254.732C393.886 254.732 393.885 254.731 393.885 254.731L392.572 255.572L390.295 254.122L390.292 255.221L392.569 256.672L393.882 255.83C394.094 255.922 394.313 256.004 394.534 256.082C394.59 256.101 394.646 256.121 394.703 256.139C394.76 256.158 394.816 256.179 394.874 256.198C394.944 256.22 395.019 256.235 395.09 256.256C395.255 256.304 395.42 256.35 395.588 256.39C395.643 256.404 395.695 256.422 395.75 256.434C395.818 256.45 395.888 256.459 395.956 256.474C396.097 256.504 396.239 256.531 396.382 256.555C396.447 256.567 396.51 256.582 396.576 256.593C396.71 256.613 396.844 256.632 396.979 256.649L396.981 256.649L396.987 257.838H400.196L400.199 256.738H396.989L396.983 255.55Z" fill="url(#paint53_linear_1_1802)"/>
<path d="M404.602 255.571L403.283 254.731C402.334 255.142 401.281 255.415 400.193 255.55L400.199 256.738H396.989L396.983 255.55C395.893 255.415 394.838 255.142 393.884 254.731L392.572 255.572L390.295 254.121L391.607 253.28C390.96 252.672 390.529 251.998 390.315 251.302H388.456L388.445 249.251H390.305C390.512 248.555 390.938 247.883 391.577 247.273L390.257 246.433L392.52 244.982L393.839 245.822C394.79 245.412 395.841 245.138 396.929 245.003L396.923 243.815H400.133L400.139 245.003C401.228 245.138 402.282 245.412 403.237 245.822L404.548 244.982L406.825 246.433L405.514 247.273C406.159 247.882 406.592 248.554 406.806 249.251H408.666L408.676 251.302H406.817C406.61 251.998 406.186 252.671 405.545 253.279L406.864 254.12L404.602 255.571ZM395.595 252.18C397.244 253.231 399.907 253.23 401.545 252.179C403.183 251.129 403.176 249.427 401.527 248.377C399.879 247.327 397.214 247.327 395.575 248.377C393.937 249.427 393.946 251.13 395.595 252.18Z" fill="url(#paint54_linear_1_1802)" stroke="white" stroke-miterlimit="10"/>
<path d="M387.94 257.182C387.94 249.519 382.242 243.663 375.214 243.663C368.185 243.663 362.487 249.876 362.487 257.539C362.487 265.203 368.185 271.415 375.214 271.415C382.242 271.415 387.94 264.846 387.94 257.182Z" fill="url(#paint55_linear_1_1802)"/>
<path d="M375.212 244.447C381.951 244.447 387.229 250.041 387.229 257.182C387.229 260.705 385.977 264.058 383.704 266.625C381.415 269.209 378.4 270.632 375.212 270.632C368.587 270.632 363.196 264.759 363.196 257.539C363.196 250.32 368.587 244.447 375.212 244.447ZM375.212 243.663C368.184 243.663 362.486 249.876 362.486 257.539C362.486 265.203 368.184 271.415 375.212 271.415C382.241 271.415 387.939 264.846 387.939 257.182C387.939 249.519 382.241 243.663 375.212 243.663Z" fill="url(#paint56_linear_1_1802)"/>
<defs>
<linearGradient id="paint0_linear_1_1802" x1="346.716" y1="162.871" x2="419.384" y2="162.871" gradientUnits="userSpaceOnUse">
<stop offset="0.0607" stop-color="#28A8E0"/>
<stop offset="0.9984" stop-color="#29ABE2" stop-opacity="0"/>
</linearGradient>
<linearGradient id="paint1_linear_1_1802" x1="365.8" y1="159.864" x2="399.447" y2="159.864" gradientUnits="userSpaceOnUse">
<stop stop-color="#BD8AAE"/>
<stop offset="1" stop-color="#2484C6" stop-opacity="0"/>
</linearGradient>
<linearGradient id="paint2_linear_1_1802" x1="365.171" y1="159.942" x2="399.972" y2="159.942" gradientUnits="userSpaceOnUse">
<stop stop-color="#BD8AAE"/>
<stop offset="1" stop-color="#2484C6" stop-opacity="0"/>
</linearGradient>
<linearGradient id="paint3_linear_1_1802" x1="375.616" y1="164.209" x2="399.406" y2="164.209" gradientUnits="userSpaceOnUse">
<stop stop-color="#BD8AAE"/>
<stop offset="1" stop-color="#2484C6" stop-opacity="0"/>
</linearGradient>
<linearGradient id="paint4_linear_1_1802" x1="375.068" y1="164.237" x2="399.931" y2="164.237" gradientUnits="userSpaceOnUse">
<stop stop-color="#BD8AAE"/>
<stop offset="1" stop-color="#2484C6" stop-opacity="0"/>
</linearGradient>
<linearGradient id="paint5_linear_1_1802" x1="363.979" y1="162.643" x2="390.98" y2="162.643" gradientUnits="userSpaceOnUse">
<stop offset="0.0607" stop-color="#28A8E0"/>
<stop offset="0.9984" stop-color="#29ABE2" stop-opacity="0"/>
</linearGradient>
<linearGradient id="paint6_linear_1_1802" x1="363.277" y1="162.641" x2="391.683" y2="162.641" gradientUnits="userSpaceOnUse">
<stop stop-color="#BD8AAE"/>
<stop offset="1" stop-color="#2484C6" stop-opacity="0"/>
</linearGradient>
<linearGradient id="paint7_linear_1_1802" x1="352.465" y1="263.124" x2="440.953" y2="263.124" gradientUnits="userSpaceOnUse">
<stop stop-color="#21409A"/>
<stop offset="0.9984" stop-color="#29ABE2" stop-opacity="0"/>
</linearGradient>
<linearGradient id="paint8_linear_1_1802" x1="352.643" y1="252.685" x2="440.775" y2="252.685" gradientUnits="userSpaceOnUse">
<stop offset="0.0607" stop-color="#28A8E0"/>
<stop offset="0.9984" stop-color="#29ABE2" stop-opacity="0"/>
</linearGradient>
<linearGradient id="paint9_linear_1_1802" x1="226.397" y1="226.009" x2="249.089" y2="226.009" gradientUnits="userSpaceOnUse">
<stop stop-color="#6B385F"/>
<stop offset="0.4197" stop-color="#6F3B62" stop-opacity="0.7323"/>
<stop offset="0.5218" stop-color="#764268" stop-opacity="0.6035"/>
<stop offset="0.6937" stop-color="#8C567A" stop-opacity="0.3865"/>
<stop offset="0.9131" stop-color="#B5799B" stop-opacity="0.1096"/>
<stop offset="1" stop-color="#CC8DAE" stop-opacity="0"/>
</linearGradient>
<linearGradient id="paint10_linear_1_1802" x1="249.497" y1="190.218" x2="253.19" y2="190.218" gradientUnits="userSpaceOnUse">
<stop stop-color="#6B385F"/>
<stop offset="0.4197" stop-color="#6F3B62" stop-opacity="0.7323"/>
<stop offset="0.5218" stop-color="#764268" stop-opacity="0.6035"/>
<stop offset="0.6937" stop-color="#8C567A" stop-opacity="0.3865"/>
<stop offset="0.9131" stop-color="#B5799B" stop-opacity="0.1096"/>
<stop offset="1" stop-color="#CC8DAE" stop-opacity="0"/>
</linearGradient>
<linearGradient id="paint11_linear_1_1802" x1="216.613" y1="230.126" x2="232.677" y2="230.126" gradientUnits="userSpaceOnUse">
<stop stop-color="#BD8AAE"/>
<stop offset="1" stop-color="#2484C6" stop-opacity="0"/>
</linearGradient>
<linearGradient id="paint12_linear_1_1802" x1="239.406" y1="272.941" x2="253.721" y2="272.941" gradientUnits="userSpaceOnUse">
<stop stop-color="#BD8AAE"/>
<stop offset="1" stop-color="#2484C6" stop-opacity="0"/>
</linearGradient>
<linearGradient id="paint13_linear_1_1802" x1="218.153" y1="214.582" x2="264.72" y2="214.582" gradientUnits="userSpaceOnUse">
<stop offset="0.2372" stop-color="#21409A"/>
<stop offset="0.6554" stop-color="#215DAB" stop-opacity="0.5476"/>
<stop offset="0.9984" stop-color="#29ABE2" stop-opacity="0"/>
</linearGradient>
<linearGradient id="paint14_linear_1_1802" x1="256.445" y1="199.968" x2="264.72" y2="199.968" gradientUnits="userSpaceOnUse">
<stop offset="0.2372" stop-color="#21409A"/>
<stop offset="0.6554" stop-color="#215DAB" stop-opacity="0.5476"/>
<stop offset="0.9984" stop-color="#29ABE2" stop-opacity="0"/>
</linearGradient>
<linearGradient id="paint15_linear_1_1802" x1="232.268" y1="197.863" x2="247.343" y2="197.863" gradientUnits="userSpaceOnUse">
<stop stop-color="#7E4D71"/>
<stop offset="0.648" stop-color="#A17194"/>
</linearGradient>
<linearGradient id="paint16_linear_1_1802" x1="293.248" y1="186.637" x2="342.453" y2="186.637" gradientUnits="userSpaceOnUse">
<stop offset="0.0607" stop-color="#28A8E0"/>
<stop offset="0.9984" stop-color="#29ABE2" stop-opacity="0"/>
</linearGradient>
<linearGradient id="paint17_linear_1_1802" x1="342.157" y1="190.937" x2="321.56" y2="190.937" gradientUnits="userSpaceOnUse">
<stop offset="0.4247" stop-color="white"/>
<stop offset="1" stop-color="#2484C6" stop-opacity="0"/>
</linearGradient>
<linearGradient id="paint18_linear_1_1802" x1="330.446" y1="210.622" x2="339.406" y2="210.622" gradientUnits="userSpaceOnUse">
<stop offset="0.2372" stop-color="#21409A"/>
<stop offset="0.6554" stop-color="#215DAB" stop-opacity="0.5476"/>
<stop offset="0.9984" stop-color="#29ABE2" stop-opacity="0"/>
</linearGradient>
<linearGradient id="paint19_linear_1_1802" x1="204.212" y1="274.852" x2="228.009" y2="274.852" gradientUnits="userSpaceOnUse">
<stop stop-color="#BD8AAE"/>
<stop offset="1" stop-color="#2484C6" stop-opacity="0"/>
</linearGradient>
<linearGradient id="paint20_linear_1_1802" x1="204.212" y1="274.852" x2="228.009" y2="274.852" gradientUnits="userSpaceOnUse">
<stop offset="0.0607" stop-color="#28A8E0"/>
<stop offset="0.9984" stop-color="#29ABE2" stop-opacity="0"/>
</linearGradient>
<linearGradient id="paint21_linear_1_1802" x1="297.279" y1="290.948" x2="321.076" y2="290.948" gradientUnits="userSpaceOnUse">
<stop stop-color="#BD8AAE"/>
<stop offset="1" stop-color="#2484C6" stop-opacity="0"/>
</linearGradient>
<linearGradient id="paint22_linear_1_1802" x1="297.279" y1="290.948" x2="321.076" y2="290.948" gradientUnits="userSpaceOnUse">
<stop offset="0.0607" stop-color="#28A8E0"/>
<stop offset="0.9984" stop-color="#29ABE2" stop-opacity="0"/>
</linearGradient>
<linearGradient id="paint23_linear_1_1802" x1="351.988" y1="229.431" x2="368.731" y2="229.431" gradientUnits="userSpaceOnUse">
<stop stop-color="#BD8AAE"/>
<stop offset="1" stop-color="#2484C6" stop-opacity="0"/>
</linearGradient>
<linearGradient id="paint24_linear_1_1802" x1="351.988" y1="229.431" x2="368.731" y2="229.431" gradientUnits="userSpaceOnUse">
<stop offset="0.0607" stop-color="#28A8E0"/>
<stop offset="0.9984" stop-color="#29ABE2" stop-opacity="0"/>
</linearGradient>
<linearGradient id="paint25_linear_1_1802" x1="268.744" y1="164.373" x2="275.572" y2="164.373" gradientUnits="userSpaceOnUse">
<stop offset="0.0607" stop-color="#28A8E0"/>
<stop offset="0.9984" stop-color="#29ABE2" stop-opacity="0"/>
</linearGradient>
<linearGradient id="paint26_linear_1_1802" x1="276.183" y1="181.044" x2="279.362" y2="187.736" gradientUnits="userSpaceOnUse">
<stop offset="0.0607" stop-color="#28A8E0"/>
<stop offset="0.9984" stop-color="#29ABE2" stop-opacity="0"/>
</linearGradient>
<linearGradient id="paint27_linear_1_1802" x1="282.652" y1="173.027" x2="287.842" y2="173.027" gradientUnits="userSpaceOnUse">
<stop stop-color="#BD8AAE"/>
<stop offset="1" stop-color="#2484C6" stop-opacity="0"/>
</linearGradient>
<linearGradient id="paint28_linear_1_1802" x1="282.991" y1="172.166" x2="288.192" y2="174.061" gradientUnits="userSpaceOnUse">
<stop stop-color="#BD8AAE"/>
<stop offset="1" stop-color="#2484C6" stop-opacity="0"/>
</linearGradient>
<linearGradient id="paint29_linear_1_1802" x1="260.583" y1="149.55" x2="267.41" y2="149.55" gradientUnits="userSpaceOnUse">
<stop offset="0.0607" stop-color="#28A8E0"/>
<stop offset="0.9984" stop-color="#29ABE2" stop-opacity="0"/>
</linearGradient>
<linearGradient id="paint30_linear_1_1802" x1="243.48" y1="167.994" x2="246.659" y2="174.686" gradientUnits="userSpaceOnUse">
<stop offset="0.0607" stop-color="#28A8E0"/>
<stop offset="0.9984" stop-color="#29ABE2" stop-opacity="0"/>
</linearGradient>
<linearGradient id="paint31_linear_1_1802" x1="249.951" y1="159.977" x2="255.14" y2="159.977" gradientUnits="userSpaceOnUse">
<stop stop-color="#BD8AAE"/>
<stop offset="1" stop-color="#2484C6" stop-opacity="0"/>
</linearGradient>
<linearGradient id="paint32_linear_1_1802" x1="250.289" y1="159.117" x2="255.49" y2="161.013" gradientUnits="userSpaceOnUse">
<stop stop-color="#BD8AAE"/>
<stop offset="1" stop-color="#2484C6" stop-opacity="0"/>
</linearGradient>
<linearGradient id="paint33_linear_1_1802" x1="281.647" y1="139.24" x2="284.598" y2="144.002" gradientUnits="userSpaceOnUse">
<stop offset="0.0607" stop-color="#28A8E0"/>
<stop offset="0.9984" stop-color="#29ABE2" stop-opacity="0"/>
</linearGradient>
<linearGradient id="paint34_linear_1_1802" x1="274.401" y1="150.916" x2="270.837" y2="155.144" gradientUnits="userSpaceOnUse">
<stop offset="0.0607" stop-color="#28A8E0"/>
<stop offset="0.9984" stop-color="#29ABE2" stop-opacity="0"/>
</linearGradient>
<linearGradient id="paint35_linear_1_1802" x1="281.625" y1="152.678" x2="283.868" y2="156.298" gradientUnits="userSpaceOnUse">
<stop stop-color="#BD8AAE"/>
<stop offset="1" stop-color="#2484C6" stop-opacity="0"/>
</linearGradient>
<linearGradient id="paint36_linear_1_1802" x1="282.274" y1="152.602" x2="282.926" y2="157.148" gradientUnits="userSpaceOnUse">
<stop stop-color="#BD8AAE"/>
<stop offset="1" stop-color="#2484C6" stop-opacity="0"/>
</linearGradient>
<linearGradient id="paint37_linear_1_1802" x1="415.211" y1="232.172" x2="415.224" y2="232.172" gradientUnits="userSpaceOnUse">
<stop offset="0.0607" stop-color="#28A8E0"/>
<stop offset="0.9984" stop-color="#29ABE2" stop-opacity="0"/>
</linearGradient>
<linearGradient id="paint38_linear_1_1802" x1="426.282" y1="235.321" x2="427.974" y2="235.321" gradientUnits="userSpaceOnUse">
<stop offset="0.0607" stop-color="#28A8E0"/>
<stop offset="0.9984" stop-color="#29ABE2" stop-opacity="0"/>
</linearGradient>
<linearGradient id="paint39_linear_1_1802" x1="406.622" y1="235.321" x2="408.325" y2="235.321" gradientUnits="userSpaceOnUse">
<stop offset="0.0607" stop-color="#28A8E0"/>
<stop offset="0.9984" stop-color="#29ABE2" stop-opacity="0"/>
</linearGradient>
<linearGradient id="paint40_linear_1_1802" x1="411.898" y1="238.01" x2="422.747" y2="238.01" gradientUnits="userSpaceOnUse">
<stop offset="0.0607" stop-color="#28A8E0"/>
<stop offset="0.9984" stop-color="#29ABE2" stop-opacity="0"/>
</linearGradient>
<linearGradient id="paint41_linear_1_1802" x1="426.321" y1="242.328" x2="430.36" y2="242.328" gradientUnits="userSpaceOnUse">
<stop offset="0.0607" stop-color="#28A8E0"/>
<stop offset="0.9984" stop-color="#29ABE2" stop-opacity="0"/>
</linearGradient>
<linearGradient id="paint42_linear_1_1802" x1="404.3" y1="242.328" x2="408.364" y2="242.328" gradientUnits="userSpaceOnUse">
<stop offset="0.0607" stop-color="#28A8E0"/>
<stop offset="0.9984" stop-color="#29ABE2" stop-opacity="0"/>
</linearGradient>
<linearGradient id="paint43_linear_1_1802" x1="419.424" y1="245.62" x2="428.025" y2="245.62" gradientUnits="userSpaceOnUse">
<stop offset="0.0607" stop-color="#28A8E0"/>
<stop offset="0.9984" stop-color="#29ABE2" stop-opacity="0"/>
</linearGradient>
<linearGradient id="paint44_linear_1_1802" x1="406.67" y1="246.372" x2="419.435" y2="246.372" gradientUnits="userSpaceOnUse">
<stop offset="0.0607" stop-color="#28A8E0"/>
<stop offset="0.9984" stop-color="#29ABE2" stop-opacity="0"/>
</linearGradient>
<linearGradient id="paint45_linear_1_1802" x1="404.29" y1="239.024" x2="430.36" y2="239.024" gradientUnits="userSpaceOnUse">
<stop offset="0.0607" stop-color="#28A8E0"/>
<stop offset="0.9984" stop-color="#29ABE2" stop-opacity="0"/>
</linearGradient>
<linearGradient id="paint46_linear_1_1802" x1="396.921" y1="244.96" x2="396.931" y2="244.96" gradientUnits="userSpaceOnUse">
<stop offset="0.0607" stop-color="#28A8E0"/>
<stop offset="0.9984" stop-color="#29ABE2" stop-opacity="0"/>
</linearGradient>
<linearGradient id="paint47_linear_1_1802" x1="405.512" y1="247.404" x2="406.826" y2="247.404" gradientUnits="userSpaceOnUse">
<stop offset="0.0607" stop-color="#28A8E0"/>
<stop offset="0.9984" stop-color="#29ABE2" stop-opacity="0"/>
</linearGradient>
<linearGradient id="paint48_linear_1_1802" x1="390.255" y1="247.404" x2="391.577" y2="247.404" gradientUnits="userSpaceOnUse">
<stop offset="0.0607" stop-color="#28A8E0"/>
<stop offset="0.9984" stop-color="#29ABE2" stop-opacity="0"/>
</linearGradient>
<linearGradient id="paint49_linear_1_1802" x1="394.35" y1="249.49" x2="402.769" y2="249.49" gradientUnits="userSpaceOnUse">
<stop offset="0.0607" stop-color="#28A8E0"/>
<stop offset="0.9984" stop-color="#29ABE2" stop-opacity="0"/>
</linearGradient>
<linearGradient id="paint50_linear_1_1802" x1="405.543" y1="252.841" x2="408.677" y2="252.841" gradientUnits="userSpaceOnUse">
<stop offset="0.0607" stop-color="#28A8E0"/>
<stop offset="0.9984" stop-color="#29ABE2" stop-opacity="0"/>
</linearGradient>
<linearGradient id="paint51_linear_1_1802" x1="388.453" y1="252.841" x2="391.607" y2="252.841" gradientUnits="userSpaceOnUse">
<stop offset="0.0607" stop-color="#28A8E0"/>
<stop offset="0.9984" stop-color="#29ABE2" stop-opacity="0"/>
</linearGradient>
<linearGradient id="paint52_linear_1_1802" x1="400.19" y1="255.396" x2="406.865" y2="255.396" gradientUnits="userSpaceOnUse">
<stop offset="0.0607" stop-color="#28A8E0"/>
<stop offset="0.9984" stop-color="#29ABE2" stop-opacity="0"/>
</linearGradient>
<linearGradient id="paint53_linear_1_1802" x1="390.292" y1="255.98" x2="400.199" y2="255.98" gradientUnits="userSpaceOnUse">
<stop offset="0.0607" stop-color="#28A8E0"/>
<stop offset="0.9984" stop-color="#29ABE2" stop-opacity="0"/>
</linearGradient>
<linearGradient id="paint54_linear_1_1802" x1="388.446" y1="250.277" x2="408.677" y2="250.277" gradientUnits="userSpaceOnUse">
<stop offset="0.0607" stop-color="#28A8E0"/>
<stop offset="0.9984" stop-color="#29ABE2" stop-opacity="0"/>
</linearGradient>
<linearGradient id="paint55_linear_1_1802" x1="362.487" y1="257.54" x2="387.94" y2="257.54" gradientUnits="userSpaceOnUse">
<stop stop-color="#BD8AAE"/>
<stop offset="1" stop-color="#2484C6" stop-opacity="0"/>
</linearGradient>
<linearGradient id="paint56_linear_1_1802" x1="362.486" y1="257.54" x2="387.939" y2="257.54" gradientUnits="userSpaceOnUse">
<stop stop-color="#BD8AAE"/>
<stop offset="1" stop-color="#2484C6" stop-opacity="0"/>
</linearGradient>
</defs>
</svg>
